<svg width="22" height="17" viewBox="0 0 22 17" fill="none" xmlns="http://www.w3.org/2000/svg">
<path d="M20.6836 1.79852C20.4107 1.47599 20.0287 1.27899 19.6076 1.24382L4.7785 0.00561334C4.35743 -0.0295514 3.94804 0.10136 3.62547 0.374165C3.30421 0.6459 3.1075 1.02605 3.07122 1.44502L2.77288 4.24406H1.58159C0.709506 4.24406 0 4.95356 0 5.82565V15.1084C0 15.9805 0.709506 16.69 1.58159 16.69H16.4624C17.3345 16.69 18.044 15.9805 18.044 15.1084V13.6026L18.5721 13.6467C18.6166 13.6504 18.6609 13.6522 18.7048 13.6522C19.5178 13.6522 20.2109 13.0267 20.2798 12.2022L21.0522 2.9516C21.0873 2.53057 20.9564 2.12109 20.6836 1.79852ZM1.58159 5.06663H16.4624C16.8809 5.06663 17.2214 5.40713 17.2214 5.82565V6.6715H0.822568V5.82565C0.822568 5.40713 1.16307 5.06663 1.58159 5.06663ZM0.822568 7.49406H17.2214V9.20044H0.822568V7.49406ZM16.4624 15.8674H1.58159C1.16307 15.8674 0.822568 15.5269 0.822568 15.1084V10.023H17.2214V15.1084C17.2214 15.5269 16.8809 15.8674 16.4624 15.8674ZM20.2325 2.88312L19.4601 12.1337C19.4252 12.5508 19.0575 12.8619 18.6405 12.8269L18.044 12.7771V5.82565C18.044 4.95356 17.3345 4.24406 16.4624 4.24406H3.60013L3.88963 1.52794C3.88996 1.52481 3.89025 1.52173 3.8905 1.51856C3.92533 1.10148 4.29286 0.790384 4.71006 0.825343L19.5392 2.06355C19.7413 2.08042 19.9247 2.17497 20.0556 2.32978C20.1865 2.48459 20.2494 2.68106 20.2325 2.88312Z" fill="#e88c44"/>
<path d="M15.4999 11.2461H11.5417C11.3145 11.2461 11.1304 11.4302 11.1304 11.6574V14.2398C11.1304 14.467 11.3145 14.6511 11.5417 14.6511H15.4999C15.7271 14.6511 15.9112 14.467 15.9112 14.2398V11.6574C15.9112 11.4302 15.7271 11.2461 15.4999 11.2461ZM15.0887 13.8285H11.9529V12.0687H15.0887V13.8285Z" fill="#e88c44"/>
</svg>
