<svg width="20" height="20" viewBox="0 0 20 20" fill="none" xmlns="http://www.w3.org/2000/svg">
<path d="M19.1836 7.32357C18.9409 7.09999 18.656 6.92717 18.3455 6.81524C18.0351 6.70332 17.7054 6.65455 17.3759 6.67181C17.0465 6.68606 16.7232 6.76569 16.4249 6.90605C16.1265 7.04642 15.8591 7.24473 15.6381 7.48943L12.9569 10.4349C12.7238 10.0489 12.395 9.72959 12.0024 9.50781C11.6098 9.28603 11.1666 9.16928 10.7157 9.16884H7.5011V8.33539H7.81448C8.3943 8.33473 8.95018 8.1041 9.36018 7.6941C9.77018 7.28411 10.0008 6.72822 10.0015 6.1484C10.0027 5.63034 9.8195 5.12875 9.48458 4.7335C9.14966 4.33826 8.68494 4.07519 8.1737 3.99142L5.4358 3.53468C5.30833 3.51167 5.19401 3.44198 5.11514 3.33923C5.03628 3.23648 4.99852 3.10803 5.00924 2.97895C5.01997 2.84986 5.0784 2.7294 5.17314 2.64107C5.26787 2.55274 5.39212 2.50287 5.52164 2.5012H7.7253C8.02201 2.5012 8.29872 2.66122 8.4479 2.91793C8.55854 3.10913 8.7406 3.24856 8.95403 3.30553C9.16746 3.3625 9.39478 3.33236 9.58599 3.22172C9.77719 3.11109 9.91662 2.92903 9.97359 2.7156C10.0306 2.50217 10.0004 2.27484 9.88978 2.08364C9.66975 1.70405 9.35399 1.38883 8.97403 1.16946C8.59407 0.950081 8.16321 0.834224 7.72447 0.833455H7.5011C7.5011 0.612409 7.41329 0.400417 7.25699 0.244113C7.10068 0.0878102 6.88869 0 6.66764 0C6.4466 0 6.23461 0.0878102 6.0783 0.244113C5.922 0.400417 5.83419 0.612409 5.83419 0.833455H5.52081C4.94099 0.834117 4.3851 1.06474 3.97511 1.47474C3.56511 1.88474 3.33448 2.44062 3.33382 3.02044C3.33382 4.09393 4.1031 5.00157 5.16159 5.17742L7.89949 5.63416C8.02696 5.65718 8.14128 5.72686 8.22014 5.82961C8.29901 5.93236 8.33677 6.06081 8.32604 6.1899C8.31532 6.31898 8.25689 6.43944 8.16215 6.52777C8.06741 6.6161 7.94316 6.66597 7.81365 6.66764H5.60999C5.31328 6.66764 5.03657 6.50762 4.88738 6.25092C4.83283 6.15596 4.76004 6.07272 4.6732 6.00599C4.58636 5.93926 4.48719 5.89035 4.38139 5.86208C4.27558 5.83381 4.16524 5.82673 4.05669 5.84126C3.94814 5.85578 3.84353 5.89161 3.74888 5.9467C3.65408 6.00141 3.571 6.07429 3.50441 6.16117C3.43783 6.24805 3.38905 6.34721 3.36086 6.45298C3.33268 6.55875 3.32565 6.66904 3.34017 6.77753C3.3547 6.88602 3.39049 6.99057 3.44551 7.0852C3.66557 7.46469 3.98136 7.77979 4.36133 7.99902C4.7413 8.21826 5.17214 8.33395 5.61082 8.33455H5.83419V9.16801H3.33382C1.49522 9.16801 0 10.6632 0 12.5018V16.6691C0 18.5077 1.49522 20.0029 3.33382 20.0029H7.47193C9.84728 20.0029 12.1143 18.9861 13.6953 17.2125L19.3662 10.8474C19.8042 10.3533 20.0306 9.70693 19.9967 9.04749C19.9627 8.38805 19.671 7.76835 19.1845 7.32191L19.1836 7.32357ZM18.121 9.73976L12.4493 16.1057C11.8236 16.8074 11.0566 17.369 10.1987 17.7536C9.3408 18.1383 8.41129 18.3373 7.47109 18.3377H3.33299C2.41369 18.3377 1.66608 17.5901 1.66608 16.6708V12.5035C1.66608 11.5842 2.41369 10.8366 3.33299 10.8366H10.7149C11.24 10.8366 11.6675 11.2633 11.6675 11.7884C11.6663 12.0171 11.5832 12.2379 11.4335 12.4107C11.2837 12.5836 11.077 12.6972 10.8508 12.731L6.54929 13.3453C6.43848 13.3578 6.33131 13.3925 6.23413 13.4472C6.13695 13.5018 6.05173 13.5755 5.98353 13.6637C5.91532 13.7519 5.86552 13.853 5.83706 13.9608C5.80861 14.0686 5.80208 14.1811 5.81786 14.2915C5.83365 14.4018 5.87143 14.508 5.92897 14.6035C5.9865 14.699 6.06262 14.782 6.15282 14.8476C6.24302 14.9132 6.34546 14.96 6.45408 14.9852C6.5627 15.0105 6.67528 15.0137 6.78516 14.9947L11.0866 14.3804C11.5584 14.3109 12.0024 14.1146 12.3714 13.8125C12.7404 13.5104 13.0205 13.1139 13.1819 12.6652L16.8716 8.61043C17.0225 8.44374 17.23 8.34706 17.4542 8.33622C17.6801 8.33039 17.8943 8.40456 18.061 8.55459C18.4002 8.86463 18.4277 9.39554 18.121 9.73893V9.73976ZM10.8349 3.34882C10.8349 3.12778 10.9227 2.91579 11.079 2.75948C11.2353 2.60318 11.4473 2.51537 11.6684 2.51537H15.0655L13.9904 1.41854C13.9137 1.34039 13.8532 1.24791 13.8123 1.14637C13.7713 1.04483 13.7508 0.936223 13.7518 0.826749C13.7529 0.717276 13.7755 0.609081 13.8183 0.508341C13.8612 0.407601 13.9235 0.316289 14.0016 0.239618C14.0798 0.162948 14.1723 0.102421 14.2738 0.0614926C14.3753 0.0205643 14.484 3.65613e-05 14.5934 0.00108137C14.8145 0.00319147 15.0257 0.0930432 15.1806 0.25087L16.995 2.10197C17.3209 2.42702 17.5026 2.86625 17.5026 3.33465C17.5026 3.80306 17.32 4.24312 16.9892 4.574L15.1806 6.41844C15.018 6.58513 14.8013 6.66848 14.5855 6.66848C14.4214 6.66822 14.261 6.61957 14.1244 6.52861C13.9877 6.43765 13.881 6.30842 13.8175 6.15709C13.754 6.00576 13.7365 5.83906 13.7672 5.67785C13.798 5.51664 13.8756 5.36808 13.9904 5.25077L15.0389 4.18061H11.6684C11.4473 4.18061 11.2353 4.0928 11.079 3.9365C10.9227 3.7802 10.8349 3.5682 10.8349 3.34716V3.34882Z" fill="#E88C44"/>
</svg>
