<svg width="45" height="34" viewBox="0 0 45 34" fill="none" xmlns="http://www.w3.org/2000/svg">
<path d="M25.1184 23.3298C25.1184 18.1691 29.3019 13.9856 34.4626 13.9856C35.0887 13.9856 35.7001 14.0483 36.2918 14.1658C36.5588 13.2465 36.6943 12.2941 36.6942 11.3368C36.6942 5.73476 32.1528 1.19336 26.5507 1.19336C22.5593 1.19336 19.109 3.50031 17.4534 6.8522C16.1762 5.67218 14.4695 4.95024 12.5936 4.95024C8.6369 4.95024 5.42942 8.15773 5.42942 12.1144C5.42942 16.031 8.57266 19.2114 12.4739 19.2755C12.4339 19.2762 12.3942 19.2784 12.3541 19.2784C9.17717 19.2784 6.48508 17.2099 5.54658 14.3469C2.97341 15.567 1.19336 18.1877 1.19336 21.2248C1.19336 25.4269 4.59991 28.8335 8.80205 28.8335H26.913C25.7854 27.2897 25.1184 25.3879 25.1184 23.3298Z" fill="#E88C44" fill-opacity="0.6"/>
<path d="M42.5934 16.6264C42.174 16.1182 41.4218 16.0463 40.9135 16.4655C40.4052 16.8851 40.3333 17.6371 40.7527 18.1454C41.9527 19.5993 42.6135 21.4405 42.6135 23.3297C42.6135 27.8241 38.957 31.4806 34.4626 31.4806C30.3898 31.4806 27.0049 28.4776 26.4059 24.5696L26.4058 24.5684C26.3827 24.4157 26.3641 24.2624 26.35 24.1086C26.3408 24.0113 26.3334 23.9139 26.3276 23.8164C26.3256 23.7817 26.3231 23.7471 26.3216 23.7124C26.3154 23.5849 26.3122 23.4573 26.3119 23.3297C26.3119 18.8352 29.9684 15.1787 34.4628 15.1787C34.996 15.1787 35.5334 15.2315 36.0599 15.3359C36.6661 15.4563 37.2655 15.0925 37.4381 14.4979C37.7363 13.4707 37.8877 12.4065 37.8878 11.3368C37.8878 5.08562 32.8022 0 26.551 0C22.6906 0 19.1848 1.91294 17.0996 5.07533C15.7634 4.21787 14.2061 3.7568 12.5938 3.7568C7.98548 3.7568 4.23633 7.50595 4.23633 12.1142C4.23633 12.6243 4.28194 13.1277 4.37089 13.6195C1.69321 15.1854 0 18.0939 0 21.2249C0 26.0783 3.94857 30.0268 8.80198 30.0268H26.3329C28.2672 32.3707 31.1933 33.8672 34.4625 33.8672C40.2728 33.8672 45 29.1402 45 23.3298C45 20.8876 44.1454 18.5069 42.5934 16.6264ZM24.8444 27.6401H8.80198C5.26456 27.6401 2.38658 24.7621 2.38658 21.2248C2.38658 19.1795 3.37799 17.2645 4.98876 16.0675C6.42393 18.7501 9.22869 20.4717 12.354 20.4717C12.3907 20.4717 12.4273 20.4707 12.4637 20.4694L12.4913 20.4685C13.1431 20.4589 13.6666 19.9283 13.6672 19.2765C13.6678 18.6246 13.1453 18.0929 12.4936 18.0822C9.25646 18.0291 6.62282 15.3519 6.62282 12.1142C6.62282 8.82185 9.30138 6.14329 12.5938 6.14329C14.0992 6.14329 15.5376 6.70632 16.6438 7.7284C16.7801 7.85431 16.9439 7.9467 17.1222 7.99823C17.3005 8.04975 17.4883 8.05899 17.6708 8.02521C17.8533 7.99143 18.0254 7.91557 18.1734 7.80364C18.3214 7.69171 18.4413 7.54681 18.5236 7.38044C20.045 4.29996 23.1209 2.38632 26.551 2.38632C31.4861 2.38632 35.5012 6.40134 35.5012 11.3366C35.5012 11.8379 35.4589 12.3378 35.3752 12.8316C35.0718 12.8052 34.7674 12.7919 34.4628 12.7919C28.6525 12.7919 23.9253 17.5189 23.9253 23.3294C23.9253 23.4215 23.9266 23.5135 23.9289 23.605C23.9302 23.6556 23.9327 23.7059 23.9346 23.7564C23.9362 23.7962 23.9373 23.8362 23.9393 23.8758C23.943 23.9485 23.948 24.0209 23.9532 24.0933C23.9544 24.1097 23.9552 24.1263 23.9564 24.1427C23.963 24.2297 23.9709 24.3164 23.9796 24.4029L23.9798 24.4056C24.0934 25.5301 24.3846 26.6185 24.8444 27.6401Z" fill="#063164" fill-opacity="0.7"/>
<path d="M36.1507 23.3298L37.8706 21.6098C38.3366 21.1438 38.3366 20.3882 37.8706 19.9221C37.4045 19.4563 36.6492 19.4563 36.1829 19.9221L34.4631 21.642L32.7432 19.9221C32.2772 19.4564 31.5219 19.4563 31.0556 19.9221C30.5896 20.3881 30.5896 21.1437 31.0556 21.6098L32.7754 23.3298L31.0556 25.0498C30.5896 25.5158 30.5896 26.2714 31.0556 26.7375C31.2886 26.9704 31.594 27.0871 31.8993 27.0871C32.2046 27.0871 32.5101 26.9705 32.7431 26.7375L34.4629 25.0177L36.1827 26.7375C36.2934 26.8485 36.425 26.9365 36.5698 26.9964C36.7145 27.0564 36.8698 27.0872 37.0265 27.0871C37.3318 27.0871 37.6372 26.9705 37.8702 26.7375C38.3362 26.2715 38.3362 25.5159 37.8702 25.0498L36.1507 23.3298Z" fill="#063164" fill-opacity="0.7"/>
</svg>
