<svg width="15" height="16" viewBox="0 0 15 16" fill="none" xmlns="http://www.w3.org/2000/svg">
<path d="M7.34474 2.10723e-07C8.30492 -0.000293861 9.23992 0.307209 10.0125 0.877376C10.7851 1.44754 11.3545 2.25034 11.6373 3.16795C11.92 4.08556 11.9012 5.06964 11.5836 5.97576C11.2659 6.88188 10.6662 7.66231 9.87236 8.20251C11.2502 8.70787 12.4452 9.61403 13.3037 10.8044C14.1621 11.9947 14.6447 13.4147 14.6892 14.8816C14.6934 14.963 14.6812 15.0445 14.6535 15.1211C14.6258 15.1978 14.583 15.2682 14.5277 15.3281C14.4724 15.388 14.4057 15.4363 14.3315 15.4701C14.2573 15.5039 14.1771 15.5225 14.0957 15.5249C14.0142 15.5273 13.933 15.5134 13.857 15.484C13.7809 15.4546 13.7115 15.4103 13.6528 15.3538C13.5941 15.2972 13.5473 15.2295 13.5151 15.1545C13.4829 15.0796 13.466 14.999 13.4654 14.9175C13.4168 13.3267 12.7507 11.8173 11.6082 10.7092C10.4657 9.60116 8.93671 8.98146 7.34515 8.98146C5.75358 8.98146 4.22456 9.60116 3.0821 10.7092C1.93964 11.8173 1.27351 13.3267 1.2249 14.9175C1.22003 15.0799 1.15084 15.2337 1.03257 15.3451C0.914291 15.4565 0.756612 15.5163 0.594217 15.5115C0.431822 15.5066 0.278014 15.4374 0.166628 15.3191C0.0552429 15.2009 -0.00459605 15.0432 0.000275794 14.8808C0.044973 13.414 0.527593 11.9942 1.38603 10.804C2.24446 9.61386 3.43942 8.70782 4.81712 8.20251C4.02331 7.66231 3.42357 6.88188 3.10592 5.97576C2.78827 5.06964 2.76944 4.08556 3.0522 3.16795C3.33497 2.25034 3.90442 1.44754 4.67699 0.877376C5.44956 0.307209 6.38455 -0.000293861 7.34474 2.10723e-07ZM4.07908 4.49028C4.07908 5.35639 4.42314 6.18702 5.03557 6.79945C5.648 7.41188 6.47863 7.75594 7.34474 7.75594C8.21084 7.75594 9.04148 7.41188 9.65391 6.79945C10.2663 6.18702 10.6104 5.35639 10.6104 4.49028C10.6104 3.62417 10.2663 2.79354 9.65391 2.18111C9.04148 1.56868 8.21084 1.22462 7.34474 1.22462C6.47863 1.22462 5.648 1.56868 5.03557 2.18111C4.42314 2.79354 4.07908 3.62417 4.07908 4.49028Z" fill="#E88C44"/>
</svg>
