<svg width="15" height="15" viewBox="0 0 15 15" fill="none" xmlns="http://www.w3.org/2000/svg">
<path d="M1.83625 15C1.31843 15 0.88293 14.8397 0.529758 14.5192C0.176586 14.1986 0 13.8033 0 13.3333V11.025H2.75437V0H14.69V13.3333C14.69 13.8033 14.5134 14.1986 14.1602 14.5192C13.8071 14.8397 13.3716 15 12.8537 15H1.83625ZM12.8537 14.1667C13.1139 14.1667 13.3321 14.0867 13.5084 13.9267C13.6847 13.7667 13.7725 13.5689 13.7719 13.3333V0.833333H3.6725V11.025H11.9356V13.3333C11.9356 13.5694 12.0238 13.7675 12.2 13.9275C12.3763 14.0875 12.5942 14.1672 12.8537 14.1667ZM4.9441 4.4875V3.65417H12.5003V4.4875H4.9441ZM4.9441 6.795V5.96167H12.5003V6.795H4.9441ZM1.83625 14.1667H11.0175V11.8583H0.918125V13.3333C0.918125 13.5694 1.00627 13.7675 1.18255 13.9275C1.35883 14.0875 1.57673 14.1672 1.83625 14.1667ZM1.83625 14.1667H0.918125H11.0175H1.83625Z" fill="#E88C44"/>
</svg>
