<svg width="15" height="17" viewBox="0 0 15 17" fill="none" xmlns="http://www.w3.org/2000/svg">
<path d="M1.83625 16.5263C1.31843 16.5263 0.88293 16.3497 0.529758 15.9965C0.176586 15.6433 0 15.2078 0 14.69V12.1468H2.75437V0H14.69V14.69C14.69 15.2078 14.5134 15.6433 14.1602 15.9965C13.8071 16.3497 13.3716 16.5263 12.8537 16.5263H1.83625ZM12.8537 15.6081C13.1139 15.6081 13.3321 15.52 13.5084 15.3437C13.6847 15.1674 13.7725 14.9495 13.7719 14.69V0.918125H3.6725V12.1468H11.9356V14.69C11.9356 14.9501 12.0238 15.1683 12.2 15.3446C12.3763 15.5209 12.5942 15.6087 12.8537 15.6081ZM4.9441 4.9441V4.02598H12.5003V4.9441H4.9441ZM4.9441 7.48639V6.56827H12.5003V7.48639H4.9441ZM1.83625 15.6081H11.0175V13.0649H0.918125V14.69C0.918125 14.9501 1.00627 15.1683 1.18255 15.3446C1.35883 15.5209 1.57673 15.6087 1.83625 15.6081ZM1.83625 15.6081H0.918125H11.0175H1.83625Z" fill="#063164"/>
</svg>
