<svg width="14" height="14" viewBox="0 0 14 14" fill="none" xmlns="http://www.w3.org/2000/svg">
<path d="M12.752 4.73848V11.4959C12.752 11.6888 12.714 11.8798 12.6402 12.058C12.5663 12.2363 12.4581 12.3982 12.3217 12.5346C12.1853 12.671 12.0234 12.7792 11.8451 12.853C11.6669 12.9269 11.4759 12.9649 11.283 12.9649H2.469C2.07939 12.9649 1.70575 12.8101 1.43026 12.5346C1.15477 12.2591 1 11.8855 1 11.4959V2.68189C1 2.29229 1.15477 1.91864 1.43026 1.64315C1.70575 1.36766 2.07939 1.21289 2.469 1.21289H8.61969" stroke="white" stroke-linecap="round" stroke-linejoin="round"/>
<path d="M13.541 0.467231C13.4873 0.408266 13.4222 0.360793 13.3497 0.327682C13.2772 0.29457 13.1987 0.276508 13.119 0.274586C13.0393 0.272663 12.96 0.286921 12.886 0.316498C12.8119 0.346074 12.7447 0.390355 12.6882 0.446665L12.2339 0.898749C12.1789 0.953841 12.1479 1.02854 12.1479 1.10643C12.1479 1.18431 12.1789 1.25901 12.2339 1.31411L12.6504 1.72983C12.6777 1.75726 12.7101 1.77902 12.7459 1.79387C12.7816 1.80872 12.8199 1.81637 12.8586 1.81637C12.8973 1.81637 12.9356 1.80872 12.9714 1.79387C13.0071 1.77902 13.0396 1.75726 13.0669 1.72983L13.5098 1.28913C13.7338 1.06548 13.7547 0.701168 13.541 0.467231Z" fill="white"/>
<path d="M11.3151 1.81718L4.68549 8.43501C4.6453 8.47505 4.61608 8.52475 4.60066 8.57934L4.29401 9.49269C4.28666 9.51747 4.28614 9.54378 4.2925 9.56883C4.29886 9.59389 4.31187 9.61676 4.33014 9.63504C4.34842 9.65332 4.37129 9.66632 4.39635 9.67268C4.4214 9.67904 4.44771 9.67852 4.47249 9.67117L5.3851 9.36452C5.4397 9.3491 5.4894 9.31988 5.52943 9.27969L12.1473 2.64937C12.2085 2.58749 12.2428 2.50395 12.2428 2.4169C12.2428 2.32985 12.2085 2.24631 12.1473 2.18443L11.7818 1.81718C11.7199 1.7554 11.636 1.7207 11.5485 1.7207C11.461 1.7207 11.377 1.7554 11.3151 1.81718Z" fill="white"/>
</svg>
