<svg width="14" height="14" viewBox="0 0 14 14" fill="none" xmlns="http://www.w3.org/2000/svg">
<path d="M12.752 4.55367V11.3111C12.752 11.504 12.714 11.695 12.6402 11.8732C12.5663 12.0514 12.4581 12.2134 12.3217 12.3498C12.1853 12.4862 12.0234 12.5944 11.8451 12.6682C11.6669 12.7421 11.4759 12.78 11.283 12.78H2.469C2.07939 12.78 1.70575 12.6253 1.43026 12.3498C1.15477 12.0743 1 11.7007 1 11.3111V2.49707C1 2.10747 1.15477 1.73383 1.43026 1.45834C1.70575 1.18285 2.07939 1.02808 2.469 1.02808H8.61969" stroke="white" stroke-linecap="round" stroke-linejoin="round"/>
<path d="M13.5405 0.282904C13.4868 0.223939 13.4218 0.176467 13.3492 0.143355C13.2767 0.110244 13.1982 0.0921816 13.1185 0.0902594C13.0388 0.0883371 12.9595 0.102595 12.8855 0.132171C12.8115 0.161748 12.7442 0.206029 12.6877 0.262338L12.2334 0.714422C12.1784 0.769515 12.1475 0.844215 12.1475 0.922102C12.1475 0.999989 12.1784 1.07469 12.2334 1.12978L12.6499 1.54551C12.6772 1.57293 12.7097 1.5947 12.7454 1.60955C12.7811 1.6244 12.8194 1.63204 12.8581 1.63204C12.8968 1.63204 12.9351 1.6244 12.9709 1.60955C13.0066 1.5947 13.0391 1.57293 13.0664 1.54551L13.5093 1.10481C13.7333 0.881153 13.7542 0.516842 13.5405 0.282904Z" fill="white"/>
<path d="M11.3151 1.63261L4.68549 8.25044C4.6453 8.29048 4.61608 8.34018 4.60066 8.39477L4.29401 9.30812C4.28666 9.3329 4.28614 9.35921 4.2925 9.38426C4.29886 9.40932 4.31187 9.43219 4.33014 9.45047C4.34842 9.46874 4.37129 9.48175 4.39635 9.48811C4.4214 9.49447 4.44771 9.49395 4.47249 9.4866L5.3851 9.17995C5.4397 9.16453 5.4894 9.13531 5.52943 9.09512L12.1473 2.4648C12.2085 2.40292 12.2428 2.31938 12.2428 2.23233C12.2428 2.14528 12.2085 2.06174 12.1473 1.99986L11.7818 1.63261C11.7199 1.57083 11.636 1.53613 11.5485 1.53613C11.461 1.53613 11.377 1.57083 11.3151 1.63261Z" fill="white"/>
</svg>
