<svg width="12" height="15" viewBox="0 0 12 15" fill="none" xmlns="http://www.w3.org/2000/svg">
<path d="M0 7.82013e-05V14.604L1.75018 12.4521L3.06998 14.0876L4.36109 12.4521L5.65221 14.0876L6.94332 12.4521L8.23443 14.0876L9.52555 12.4521L11.247 14.604V7.82013e-05H0ZM10.3863 12.1365L9.52555 11.075L8.23443 12.7104L6.94332 11.075L5.65221 12.7104L4.36109 11.075L3.06998 12.7104L1.77887 11.075L0.860742 12.1939V0.860821H10.3863V12.1365ZM7.77537 3.44305H2.58223V2.5823H7.77537V3.44305ZM6.05389 6.91471H2.58223V6.05396H6.05389V6.91471ZM8.63611 5.19322H2.58223V4.33248H8.63611V5.19322ZM2.61092 8.63619H8.63611V9.49693H2.61092V8.63619Z" fill="#E88C44"/>
</svg>
