<svg width="14" height="18" viewBox="0 0 14 18" fill="none" xmlns="http://www.w3.org/2000/svg">
<path d="M0 8.76561e-05V17.5205L2.17857 14.9389L3.82143 16.9009L5.42857 14.9389L7.03571 16.9009L8.64286 14.9389L10.25 16.9009L11.8571 14.9389L14 17.5205V8.76561e-05H0ZM12.9286 14.5603L11.8571 13.2867L10.25 15.2487L8.64286 13.2867L7.03571 15.2487L5.42857 13.2867L3.82143 15.2487L2.21429 13.2867L1.07143 14.6291V1.03273H12.9286V14.5603ZM9.67857 4.13064H3.21429V3.098H9.67857V4.13064ZM7.53571 8.29561H3.21429V7.26297H7.53571V8.29561ZM10.75 6.23034H3.21429V5.1977H10.75V6.23034ZM3.25 10.3609H10.75V11.3935H3.25V10.3609Z" fill="#063164"/>
</svg>
