<svg width="19" height="20" viewBox="0 0 19 20" fill="none" xmlns="http://www.w3.org/2000/svg">
<path d="M2.3057 20C1.65549 20 1.10866 19.7863 0.665194 19.3589C0.221732 18.9315 0 18.4044 0 17.7778V14.7H3.45855V0H18.4456V17.7778C18.4456 18.4044 18.2239 18.9315 17.7804 19.3589C17.3369 19.7863 16.7901 20 16.1399 20H2.3057ZM16.1399 18.8889C16.4665 18.8889 16.7405 18.7822 16.9619 18.5689C17.1832 18.3556 17.2935 18.0919 17.2927 17.7778V1.11111H4.6114V14.7H14.987V17.7778C14.987 18.0926 15.0977 18.3567 15.3191 18.57C15.5404 18.7833 15.814 18.8896 16.1399 18.8889ZM6.2081 5.98333V4.87222H15.696V5.98333H6.2081ZM6.2081 9.06V7.94889H15.696V9.06H6.2081ZM2.3057 18.8889H13.8342V15.8111H1.15285V17.7778C1.15285 18.0926 1.26352 18.3567 1.48487 18.57C1.70622 18.7833 1.97983 18.8896 2.3057 18.8889ZM2.3057 18.8889H1.15285H13.8342H2.3057Z" fill="#063164"/>
</svg>
