<svg width="15" height="15" viewBox="0 0 15 15" fill="none" xmlns="http://www.w3.org/2000/svg">
<path d="M7.345 0.000430107C3.29951 0.000430107 0 3.29994 0 7.34543C0 11.3909 3.29951 14.6904 7.345 14.6904C11.3905 14.6904 14.69 11.3909 14.69 7.34543C14.69 3.29994 11.3905 0.000430107 7.345 0.000430107ZM7.345 13.8297C3.75857 13.8297 0.860742 10.9319 0.860742 7.34543C0.860742 3.759 3.75857 0.861172 7.345 0.861172C10.9314 0.861172 13.8293 3.759 13.8293 7.34543C13.8293 10.9319 10.9314 13.8297 7.345 13.8297ZM11.247 7.7758C11.247 9.92766 9.49686 11.6778 7.345 11.6778C5.19314 11.6778 3.44297 9.92766 3.44297 7.7758C3.44297 7.54627 3.64381 7.34543 3.90203 7.34543C4.13156 7.34543 4.3324 7.54627 4.3324 7.7758C4.3324 9.4399 5.6809 10.7884 7.345 10.7884C9.0091 10.7884 10.3576 9.4399 10.3576 7.7758C10.3576 7.54627 10.5584 7.34543 10.788 7.34543C11.0462 7.34543 11.247 7.54627 11.247 7.7758ZM3.90203 4.7632C3.90203 4.27545 4.27502 3.90246 4.76277 3.90246C5.22184 3.90246 5.62352 4.27545 5.62352 4.7632C5.62352 5.22227 5.22184 5.62395 4.76277 5.62395C4.27502 5.62395 3.90203 5.22227 3.90203 4.7632ZM9.06648 4.7632C9.06648 4.27545 9.46816 3.90246 9.92723 3.90246C10.415 3.90246 10.788 4.27545 10.788 4.7632C10.788 5.22227 10.415 5.62395 9.92723 5.62395C9.46816 5.62395 9.06648 5.22227 9.06648 4.7632Z" fill="#063164"/>
</svg>
