<svg width="15" height="15" viewBox="0 0 15 15" fill="none" xmlns="http://www.w3.org/2000/svg">
<path d="M7.345 -5.81741e-05C3.29951 -5.81741e-05 0 3.29945 0 7.34494C0 11.3904 3.29951 14.6899 7.345 14.6899C11.3905 14.6899 14.69 11.3904 14.69 7.34494C14.69 3.29945 11.3905 -5.81741e-05 7.345 -5.81741e-05ZM7.345 13.8292C3.75857 13.8292 0.860742 10.9314 0.860742 7.34494C0.860742 3.75852 3.75857 0.860684 7.345 0.860684C10.9314 0.860684 13.8293 3.75852 13.8293 7.34494C13.8293 10.9314 10.9314 13.8292 7.345 13.8292ZM11.247 7.77531C11.247 9.92717 9.49685 11.6773 7.345 11.6773C5.19314 11.6773 3.44297 9.92717 3.44297 7.77531C3.44297 7.54578 3.64381 7.34494 3.90203 7.34494C4.13156 7.34494 4.3324 7.54578 4.3324 7.77531C4.3324 9.43941 5.6809 10.7879 7.345 10.7879C9.0091 10.7879 10.3576 9.43941 10.3576 7.77531C10.3576 7.54578 10.5584 7.34494 10.788 7.34494C11.0462 7.34494 11.247 7.54578 11.247 7.77531ZM3.90203 4.76272C3.90203 4.27496 4.27502 3.90197 4.76277 3.90197C5.22184 3.90197 5.62352 4.27496 5.62352 4.76272C5.62352 5.22178 5.22184 5.62346 4.76277 5.62346C4.27502 5.62346 3.90203 5.22178 3.90203 4.76272ZM9.06648 4.76272C9.06648 4.27496 9.46816 3.90197 9.92723 3.90197C10.415 3.90197 10.788 4.27496 10.788 4.76272C10.788 5.22178 10.415 5.62346 9.92723 5.62346C9.46816 5.62346 9.06648 5.22178 9.06648 4.76272Z" fill="#E88C44"/>
</svg>
