<svg width="17" height="17" viewBox="0 0 17 17" fill="none" xmlns="http://www.w3.org/2000/svg">
<path d="M1 5.89667V10.7933C1 13.1016 1 14.2558 1.7171 14.9729C2.4342 15.69 3.58835 15.69 5.89667 15.69H10.7933C13.1016 15.69 14.2558 15.69 14.9729 14.9729C15.69 14.2558 15.69 13.1016 15.69 10.7933V5.89667C15.69 3.58835 15.69 2.4342 14.9729 1.7171C14.2558 1 13.1016 1 10.7933 1H5.89667" stroke="#E88C44" stroke-linecap="round"/>
<path d="M10.7934 10.7934V11.2014H11.2014V10.7934H10.7934ZM4.55304 3.97597C4.39369 3.8166 4.13532 3.8166 3.97597 3.97597C3.8166 4.13532 3.8166 4.39369 3.97597 4.55304L4.55304 3.97597ZM10.3853 5.08061V10.7934H11.2014V5.08061H10.3853ZM10.7934 10.3853H5.08061V11.2014H10.7934V10.3853ZM11.082 10.5048L4.55304 3.97597L3.97597 4.55304L10.5048 11.082L11.082 10.5048Z" fill="#E88C44"/>
</svg>
