<svg width="18" height="20" viewBox="0 0 18 20" fill="none" xmlns="http://www.w3.org/2000/svg">
<path d="M13.0081 1H4.7059C3.6942 1 3.18836 1 2.78039 1.14196C2.00676 1.41115 1.39938 2.03642 1.13789 2.83283C1 3.25282 1 3.77356 1 4.81506V17.0407C1 17.7899 1.8599 18.1874 2.40387 17.6896C2.72345 17.3972 3.20505 17.3972 3.52463 17.6896L3.94637 18.0756C4.50648 18.5881 5.35051 18.5881 5.91062 18.0756C6.47073 17.5631 7.31475 17.5631 7.87487 18.0756C8.43498 18.5881 9.279 18.5881 9.83911 18.0756C10.3992 17.5631 11.2432 17.5631 11.8034 18.0756C12.3635 18.5881 13.2075 18.5881 13.7676 18.0756L14.1894 17.6896C14.509 17.3972 14.9905 17.3972 15.3101 17.6896C15.8541 18.1874 16.714 17.7899 16.714 17.0407V4.81506C16.714 3.77356 16.714 3.25282 16.576 2.83283C16.3146 2.03642 15.7072 1.41115 14.9336 1.14196C14.5256 1 14.0198 1 13.0081 1Z" stroke="white" stroke-width="1.2"/>
<path d="M7.54736 8.85693H13.2219" stroke="white" stroke-width="1.2" stroke-linecap="round"/>
<path d="M4.49219 8.85693H4.92869" stroke="white" stroke-width="1.2" stroke-linecap="round"/>
<path d="M4.49219 5.80151H4.92869" stroke="white" stroke-width="1.2" stroke-linecap="round"/>
<path d="M4.49219 11.9126H4.92869" stroke="white" stroke-width="1.2" stroke-linecap="round"/>
<path d="M7.54736 5.80151H13.2219" stroke="white" stroke-width="1.2" stroke-linecap="round"/>
<path d="M7.54736 11.9126H13.2219" stroke="white" stroke-width="1.2" stroke-linecap="round"/>
</svg>
