<svg width="19" height="15" viewBox="0 0 19 15" fill="none" xmlns="http://www.w3.org/2000/svg">
<path d="M11.5878 14.8244H11.5812C11.4268 14.823 11.2769 14.7728 11.1528 14.6809C11.0287 14.589 10.937 14.4601 10.8907 14.3128L7.38954 3.10869L4.76462 10.9842C4.71892 11.1212 4.63365 11.2416 4.51959 11.3301C4.40553 11.4187 4.26778 11.4715 4.12373 11.4818C3.97932 11.4934 3.83478 11.4613 3.70888 11.3896C3.58299 11.3179 3.48157 11.21 3.41781 11.0799L1.94969 8.14296H0.730769C0.536957 8.14296 0.351083 8.06597 0.214037 7.92892C0.0769915 7.79188 0 7.606 0 7.41219C0 7.21838 0.0769915 7.03251 0.214037 6.89546C0.351083 6.75841 0.536957 6.68142 0.730769 6.68142H2.40131C2.53773 6.68068 2.67163 6.71814 2.78787 6.78955C2.9041 6.86097 2.99802 6.9635 3.059 7.08554L3.93958 8.84742L6.71869 0.499846C6.76718 0.354273 6.86025 0.227654 6.98473 0.137938C7.1092 0.0482227 7.25876 -3.69262e-05 7.41219 2.11992e-08H7.41877C7.57316 0.00138211 7.72314 0.0516261 7.8472 0.143525C7.97126 0.235424 8.06303 0.364255 8.10935 0.511538L11.6105 11.7135L14.2354 3.84019C14.2811 3.7031 14.3664 3.58264 14.4806 3.49404C14.5948 3.40545 14.7327 3.35269 14.8768 3.34244C15.021 3.3322 15.1649 3.36492 15.2905 3.43648C15.416 3.50804 15.5175 3.61521 15.5822 3.74446L17.0503 6.68142H18.2692C18.463 6.68142 18.6489 6.75841 18.786 6.89546C18.923 7.03251 19 7.21838 19 7.41219C19 7.606 18.923 7.79188 18.786 7.92892C18.6489 8.06597 18.463 8.14296 18.2692 8.14296H16.5987C16.4629 8.14302 16.3298 8.10525 16.2142 8.03386C16.0987 7.96248 16.0054 7.86032 15.9447 7.73885L15.0677 5.97623L12.2813 14.3231C12.2331 14.4689 12.1401 14.5959 12.0156 14.6859C11.8911 14.7758 11.7414 14.8243 11.5878 14.8244Z" fill="white"/>
</svg>
