<svg width="22" height="22" viewBox="0 0 22 22" fill="none" xmlns="http://www.w3.org/2000/svg">
<path d="M9.14803 4.8817C8.7315 5.29823 8.7315 5.97354 9.14803 6.39005C9.56442 6.80658 10.2398 6.80658 10.6563 6.39005L9.14803 4.8817ZM15.61 11.3437C15.1935 11.7603 15.1935 12.4355 15.61 12.852C16.0264 13.2685 16.7017 13.2685 17.1183 12.852L15.61 11.3437ZM12.8106 17.1625C13.2273 16.7461 13.2274 16.0708 12.8109 15.6542C12.3945 15.2376 11.7192 15.2374 11.3026 15.6538L12.8106 17.1625ZM8.82564 19.6378L9.57025 20.4015L9.57963 20.3921L8.82564 19.6378ZM2.36363 13.1772L1.6094 12.423L1.59984 12.4328L2.36363 13.1772ZM6.3488 10.7004C6.76533 10.2839 6.76533 9.60864 6.3488 9.19211C5.93228 8.77558 5.25698 8.77558 4.84044 9.19211L6.3488 10.7004ZM14.9667 8.54307C15.3832 8.12658 15.3832 7.45127 14.9667 7.03474C14.5501 6.61823 13.8748 6.61823 13.4584 7.03474L14.9667 8.54307ZM6.99633 13.4968C6.57982 13.9133 6.57982 14.5885 6.99633 15.0051C7.41286 15.4216 8.08814 15.4216 8.50467 15.0051L6.99633 13.4968ZM10.6563 6.39005L13.8873 3.15906L12.379 1.65071L9.14803 4.8817L10.6563 6.39005ZM13.8873 3.15906C15.2552 1.79117 17.4731 1.79117 18.841 3.15906L20.3493 1.65071C18.1483 -0.550235 14.5798 -0.550235 12.379 1.65071L13.8873 3.15906ZM18.841 3.15906C20.2089 4.52697 20.2089 6.74479 18.841 8.11269L20.3493 9.62102C22.5502 7.4201 22.5502 3.85166 20.3493 1.65071L18.841 3.15906ZM18.841 8.11269L15.61 11.3437L17.1183 12.852L20.3493 9.62102L18.841 8.11269ZM11.3026 15.6538L8.07165 18.8834L9.57963 20.3921L12.8106 17.1625L11.3026 15.6538ZM8.08103 18.8741C6.70846 20.2125 4.51501 20.1988 3.1593 18.8434L1.65111 20.3518C3.83247 22.5327 7.36175 22.5548 9.57025 20.4015L8.08103 18.8741ZM3.1593 18.8434C1.8036 17.488 1.78939 15.2944 3.12744 13.9217L1.59984 12.4328C-0.553092 14.6417 -0.530239 18.1711 1.65111 20.3518L3.1593 18.8434ZM3.11781 13.9314L6.3488 10.7004L4.84044 9.19211L1.6094 12.423L3.11781 13.9314ZM13.4584 7.03474L6.99633 13.4968L8.50467 15.0051L14.9667 8.54307L13.4584 7.03474Z" fill="#063164"/>
</svg>
