<svg width="20" height="20" viewBox="0 0 20 20" fill="none" xmlns="http://www.w3.org/2000/svg">
<path d="M9.51457 4.66019H10.4854V11.4563H9.51457V4.66019ZM10.9709 13.8835C10.9709 13.6915 10.9139 13.5038 10.8073 13.3441C10.7006 13.1844 10.5489 13.06 10.3715 12.9865C10.1941 12.913 9.99893 12.8938 9.81059 12.9313C9.62226 12.9687 9.44927 13.0612 9.31349 13.197C9.17771 13.3328 9.08525 13.5058 9.04778 13.6941C9.01032 13.8824 9.02955 14.0776 9.10303 14.255C9.17652 14.4324 9.30095 14.5841 9.46061 14.6907C9.62027 14.7974 9.80798 14.8544 10 14.8544C10.2573 14.8539 10.504 14.7514 10.6859 14.5694C10.8679 14.3875 10.9704 14.1408 10.9709 13.8835ZM20 10C20 11.9778 19.4135 13.9112 18.3147 15.5557C17.2159 17.2002 15.6541 18.4819 13.8268 19.2388C11.9996 19.9957 9.98891 20.1937 8.0491 19.8078C6.10929 19.422 4.32746 18.4696 2.92894 17.0711C1.53041 15.6725 0.578004 13.8907 0.192152 11.9509C-0.1937 10.0111 0.00433284 8.00043 0.761209 6.17316C1.51809 4.3459 2.79981 2.78412 4.4443 1.6853C6.08879 0.58649 8.02219 4.24455e-07 10 4.24455e-07C11.3133 -0.000382265 12.6139 0.258014 13.8273 0.760425C15.0407 1.26284 16.1433 1.99942 17.0719 2.92808C18.0006 3.85674 18.7372 4.95928 19.2396 6.17271C19.742 7.38614 20.0004 8.68667 20 10ZM19.0291 10C19.0291 8.21421 18.4996 6.46852 17.5074 4.98369C16.5153 3.49885 15.1052 2.34157 13.4553 1.65818C11.8054 0.974782 9.98999 0.795975 8.23851 1.14437C6.48703 1.49276 4.87819 2.3527 3.61545 3.61544C2.3527 4.87819 1.49276 6.48702 1.14437 8.2385C0.79598 9.98998 0.974786 11.8054 1.65818 13.4553C2.34157 15.1052 3.49886 16.5153 4.98369 17.5074C6.46852 18.4996 8.21421 19.0291 10 19.0291C12.3939 19.0266 14.689 18.0744 16.3817 16.3817C18.0745 14.689 19.0266 12.3939 19.0291 10Z" fill="#063164"/>
</svg>
