<svg width="18" height="17" viewBox="0 0 18 17" fill="none" xmlns="http://www.w3.org/2000/svg">
<path d="M2.06166 3.64381H0.847377C0.686353 3.64381 0.531924 3.57985 0.418062 3.466C0.304201 3.35214 0.240234 3.19772 0.240234 3.03671C0.240234 2.8757 0.304201 2.72128 0.418062 2.60743C0.531924 2.49357 0.686353 2.42961 0.847377 2.42961H5.70452V0.607099C5.70452 0.446087 5.76849 0.291669 5.88235 0.177815C5.99621 0.0639621 6.15064 0 6.31166 0H11.1688C11.3298 0 11.4843 0.0639621 11.5981 0.177815C11.712 0.291669 11.7759 0.446087 11.7759 0.607099V2.42961H16.6331C16.7941 2.42961 16.9485 2.49357 17.0624 2.60743C17.1763 2.72128 17.2402 2.8757 17.2402 3.03671C17.2402 3.19772 17.1763 3.35214 17.0624 3.466C16.9485 3.57985 16.7941 3.64381 16.6331 3.64381H15.4188V16.3929C15.4188 16.5539 15.3548 16.7083 15.241 16.8222C15.1271 16.936 14.9727 17 14.8117 17H2.66881C2.50778 17 2.35335 16.936 2.23949 16.8222C2.12563 16.7083 2.06166 16.5539 2.06166 16.3929V3.64381ZM10.5617 2.42961V1.21541H6.91881V2.42961H10.5617ZM3.27595 15.7858H14.2045V3.64381H3.27595V15.7858ZM6.91881 13.3574C6.75778 13.3574 6.60335 13.2934 6.48949 13.1796C6.37563 13.0657 6.31166 12.9113 6.31166 12.7503V6.67931C6.31166 6.5183 6.37563 6.36388 6.48949 6.25002C6.60335 6.13617 6.75778 6.07221 6.91881 6.07221C7.07983 6.07221 7.23426 6.13617 7.34812 6.25002C7.46198 6.36388 7.52595 6.5183 7.52595 6.67931V12.7503C7.52595 12.9113 7.46198 13.0657 7.34812 13.1796C7.23426 13.2934 7.07983 13.3574 6.91881 13.3574ZM10.5617 13.3574C10.4006 13.3574 10.2462 13.2934 10.1323 13.1796C10.0185 13.0657 9.95452 12.9113 9.95452 12.7503V6.67931C9.95452 6.5183 10.0185 6.36388 10.1323 6.25002C10.2462 6.13617 10.4006 6.07221 10.5617 6.07221C10.7227 6.07221 10.8771 6.13617 10.991 6.25002C11.1048 6.36388 11.1688 6.5183 11.1688 6.67931V12.7503C11.1688 12.9113 11.1048 13.0657 10.991 13.1796C10.8771 13.2934 10.7227 13.3574 10.5617 13.3574Z" fill="#063164"/>
</svg>
