<svg width="22" height="22" viewBox="0 0 22 22" fill="none" xmlns="http://www.w3.org/2000/svg">
<path d="M11.5883 2.17676H6.64712C4.67044 2.17676 3.6821 2.17676 2.92711 2.56144C2.263 2.89982 1.72307 3.43976 1.38469 4.10387C1 4.85886 1 5.8472 1 7.82388V15.3534C1 17.3301 1 18.3183 1.38469 19.0734C1.72307 19.7375 2.263 20.2774 2.92711 20.6158C3.6821 21.0005 4.67044 21.0005 6.64712 21.0005H14.1766C16.1533 21.0005 17.1416 21.0005 17.8967 20.6158C18.5608 20.2774 19.1007 19.7375 19.439 19.0734C19.8237 18.3183 19.8237 17.3301 19.8237 15.3534V10.4121" stroke="white" stroke-linecap="round" stroke-linejoin="round"/>
<path d="M1 16.2945L6.05051 11.244C6.50996 10.7846 7.25487 10.7846 7.71432 11.244L11.5883 15.118M11.5883 15.118L14.8741 11.8322C15.3336 11.3728 16.0785 11.3728 16.5379 11.8322L19.8237 15.118M11.5883 15.118L14.2354 17.7651" stroke="white" stroke-linecap="round" stroke-linejoin="round"/>
<path d="M18.0589 1V3.94121M18.0589 3.94121V6.88242M18.0589 3.94121H15.1177M18.0589 3.94121H21.0001" stroke="white" stroke-linecap="round" stroke-linejoin="round"/>
</svg>
