<svg width="18" height="20" viewBox="0 0 18 20" fill="none" xmlns="http://www.w3.org/2000/svg">
<path d="M9.41717 1.31925C8.98507 0.879335 8.27115 0.896306 7.86048 1.35625L1.271 8.73648C1.09647 8.93189 1 9.1848 1 9.44688V17.5733C1 18.1624 1.47757 18.6399 2.06667 18.6399H5.26667C5.85577 18.6399 6.33333 18.1624 6.33333 17.5733V13.8399C6.33333 13.2508 6.8109 12.7733 7.4 12.7733H10.6C11.1891 12.7733 11.6667 13.2508 11.6667 13.8399V17.5733C11.6667 18.1624 12.1442 18.6399 12.7333 18.6399H15.9333C16.5225 18.6399 17 18.1624 17 17.5733V9.47621C17 9.19664 16.8902 8.92826 16.6943 8.7288L9.41717 1.31925Z" stroke="white" stroke-width="1.3"/>
</svg>
