<svg width="16" height="21" viewBox="0 0 16 21" fill="none" xmlns="http://www.w3.org/2000/svg">
<path d="M0 0.000202179V20.7646L2.4898 17.7051L4.36735 20.0303L6.20408 17.7051L8.04082 20.0303L9.87755 17.7051L11.7143 20.0303L13.551 17.7051L16 20.7646V0.000202179H0ZM14.7755 17.2563L13.551 15.7469L11.7143 18.0722L9.87755 15.7469L8.04082 18.0722L6.20408 15.7469L4.36735 18.0722L2.53061 15.7469L1.22449 17.3379V1.22404H14.7755V17.2563ZM11.0612 4.89555H3.67347V3.67172H11.0612V4.89555ZM8.61224 9.8317H3.67347V8.60786H8.61224V9.8317ZM12.2857 7.38402H3.67347V6.16019H12.2857V7.38402ZM3.71429 12.2794H12.2857V13.5032H3.71429V12.2794Z" fill="white"/>
</svg>
