<svg width="22" height="18" viewBox="0 0 22 18" fill="none" xmlns="http://www.w3.org/2000/svg">
<path d="M5.44385 16.2046C5.44385 12.8421 9.44362 13.515 9.44362 12.1702C9.48833 11.6926 9.3589 11.215 9.0792 10.8254C8.76022 10.5229 8.50895 10.1563 8.34196 9.74972C8.17496 9.34311 8.09603 8.90572 8.11037 8.46639C8.06696 7.71294 8.32273 6.97282 8.82205 6.40691C9.32137 5.84101 10.0239 5.49509 10.7769 5.44434C11.5299 5.49509 12.2324 5.84101 12.7317 6.40691C13.231 6.97282 13.4868 7.71294 13.4434 8.46639C13.4594 8.90702 13.3799 9.34589 13.2104 9.75292C13.0408 10.1599 12.7853 10.5255 12.4612 10.8245C12.1928 11.2193 12.0688 11.6946 12.1101 12.1702C12.1101 13.515 16.1099 12.843 16.1099 16.2055C16.1099 16.2055 15.0478 17.0001 10.7769 17.0001C6.50601 17.0001 5.44385 16.2046 5.44385 16.2046Z" stroke="white" stroke-width="1.3" stroke-miterlimit="10"/>
<path d="M4.98733 12.5256C4.48158 12.5025 4.03539 12.4678 3.64341 12.4243C2.72336 12.406 1.81948 12.179 1 11.7603C1 8.39781 4.99978 9.07066 4.99978 7.72585C5.04448 7.24829 4.91506 6.77068 4.63535 6.38103C4.31637 6.07859 4.0651 5.71199 3.89811 5.30538C3.73111 4.89877 3.65218 4.46139 3.66652 4.02205C3.62312 3.26861 3.87888 2.52848 4.3782 1.96258C4.87753 1.39668 5.58005 1.05075 6.33304 1C7.08603 1.05075 7.78855 1.39668 8.28787 1.96258C8.78719 2.52848 9.04296 3.26861 8.99955 4.02205" stroke="white" stroke-width="1.3" stroke-miterlimit="10"/>
<path d="M16.5673 12.5256C17.073 12.5025 17.5192 12.4678 17.9112 12.4243C18.8312 12.406 19.7351 12.179 20.5546 11.7603C20.5546 8.39781 16.5548 9.07066 16.5548 7.72585C16.5101 7.24829 16.6395 6.77068 16.9192 6.38103C17.2382 6.07859 17.4895 5.71199 17.6565 5.30538C17.8235 4.89877 17.9024 4.46139 17.8881 4.02205C17.9315 3.26861 17.6757 2.52848 17.1764 1.96258C16.6771 1.39668 15.9745 1.05075 15.2216 1C14.4686 1.05075 13.766 1.39668 13.2667 1.96258C12.7674 2.52848 12.5116 3.26861 12.555 4.02205" stroke="white" stroke-width="1.3" stroke-miterlimit="10"/>
</svg>
