<svg width="26" height="26" viewBox="0 0 26 26" fill="none" xmlns="http://www.w3.org/2000/svg">
<path d="M1 15.7363H5.13605V23.934H1V15.7363ZM5.13605 17.5793L7.97181 16.0705C8.14551 15.9781 8.33805 15.9267 8.53469 15.9202C8.73132 15.9137 8.92683 15.9524 9.10623 16.0331L15.1127 18.739C15.3492 18.8456 15.5358 19.039 15.6338 19.2792C15.7319 19.5194 15.734 19.788 15.6396 20.0297L15.5378 20.2902L23.4003 18.3348C23.5671 18.2932 23.7406 18.2855 23.9105 18.3121C24.0804 18.3387 24.2433 18.399 24.3895 18.4895C24.5357 18.5801 24.6623 18.6989 24.7618 18.8391C24.8614 18.9794 24.9318 19.1381 24.9691 19.306L24.9693 19.3073C25.0364 19.6092 24.9926 19.9251 24.8461 20.1974C24.6995 20.4697 24.4599 20.6802 24.1709 20.7905L13.3652 24.9151C13.0791 25.0244 12.7634 25.0282 12.4748 24.9258L5.13605 22.3223V17.5793Z" stroke="white" stroke-width="0.7" stroke-miterlimit="10" stroke-linejoin="round"/>
<path d="M15.5374 20.2904C15.445 20.5406 15.2575 20.7443 15.0158 20.857C14.774 20.9697 14.4975 20.9824 14.2464 20.8922L9.8584 19.3184" stroke="white" stroke-width="0.7" stroke-miterlimit="10" stroke-linecap="round"/>
<path d="M15.7519 13.5292C19.2118 13.5292 22.0165 10.7245 22.0165 7.26461C22.0165 3.80476 19.2118 1 15.7519 1C12.2921 1 9.4873 3.80476 9.4873 7.26461C9.4873 10.7245 12.2921 13.5292 15.7519 13.5292Z" stroke="white" stroke-width="0.7" stroke-miterlimit="10" stroke-linejoin="round"/>
<path d="M14.1299 8.33451C14.1299 8.75568 14.2972 9.1596 14.595 9.45741C14.8928 9.75522 15.2967 9.92253 15.7179 9.92253C16.1391 9.92253 16.543 9.75522 16.8408 9.45741C17.1386 9.1596 17.3059 8.75568 17.3059 8.33451C17.3059 7.50277 16.5238 7.38143 15.7518 7.17236C14.9795 6.9633 14.1976 6.84223 14.1976 6.01022C14.1976 5.58905 14.3649 5.18513 14.6627 4.88732C14.9605 4.58951 15.3645 4.4222 15.7856 4.4222M15.7856 4.4222C16.2068 4.4222 16.6107 4.58951 16.9085 4.88732C17.2063 5.18513 17.3737 5.58905 17.3737 6.01022M15.7856 4.4222L15.7854 3.31445M15.7854 11.0303V9.92253" stroke="white" stroke-width="0.7" stroke-miterlimit="10" stroke-linejoin="round"/>
</svg>
