<svg width="18" height="18" viewBox="0 0 18 18" fill="none" xmlns="http://www.w3.org/2000/svg">
  <path d="M8.51 5.73156C9.46649 5.73156 10.2863 6.07317 10.9695 6.75637C11.6527 7.43958 11.9943 8.25942 11.9943 9.21591C11.9943 10.1724 11.6527 10.9922 10.9695 11.6754C10.2863 12.3587 9.46649 12.7003 8.51 12.7003C7.55351 12.7003 6.73367 12.3587 6.05046 11.6754C5.36726 10.9922 5.02566 10.1724 5.02566 9.21591C5.02566 8.25942 5.36726 7.43958 6.05046 6.75637C6.73367 6.07317 7.55351 5.73156 8.51 5.73156ZM8.51 7.45324C8.01809 7.45324 7.60134 7.62404 7.25974 7.96564C6.91813 8.30725 6.74733 8.724 6.74733 9.21591C6.74733 9.70782 6.91813 10.1246 7.25974 10.4662C7.60134 10.8078 8.01809 10.9786 8.51 10.9786C9.00191 10.9786 9.41866 10.8078 9.76027 10.4662C10.1019 10.1246 10.2727 9.70782 10.2727 9.21591C10.2727 8.724 10.1019 8.30725 9.76027 7.96564C9.41866 7.62404 9.00191 7.45324 8.51 7.45324ZM6.74733 17.9473C6.63802 17.9473 6.54237 17.9131 6.46039 17.8448C6.3784 17.7765 6.33741 17.6876 6.33741 17.5783L6.00947 15.2828C5.51756 15.0915 5.02566 14.8045 4.53375 14.4219L2.36116 15.2828C2.25184 15.3374 2.14253 15.3443 2.03322 15.3033C1.9239 15.2623 1.85558 15.2008 1.82826 15.1188L0.0655877 12.0854C0.0109313 11.9761 -0.00956487 11.8736 0.00409923 11.7779C0.0177633 11.6823 0.0655877 11.5935 0.147572 11.5115L1.99223 10.0767L1.95123 9.21591L1.99223 8.35507L0.147572 6.92034C0.0655877 6.83836 0.0177633 6.74954 0.00409923 6.65389C-0.00956487 6.55824 0.0109313 6.45576 0.0655877 6.34645L1.82826 3.31302C1.85558 3.23103 1.9239 3.16955 2.03322 3.12855C2.14253 3.08756 2.25184 3.09439 2.36116 3.14905L4.53375 4.00989C5.02566 3.62729 5.51756 3.34035 6.00947 3.14905L6.33741 0.853481C6.33741 0.744167 6.3784 0.655352 6.46039 0.58703C6.54237 0.518711 6.63802 0.48455 6.74733 0.48455H10.2727C10.382 0.48455 10.4776 0.518711 10.5596 0.58703C10.6416 0.655352 10.6826 0.744167 10.6826 0.853481L11.0105 3.14905C11.5024 3.34035 11.9943 3.62729 12.4863 4.00989L14.6588 3.14905C14.7682 3.09439 14.8775 3.08756 14.9868 3.12855C15.0961 3.16955 15.1644 3.23103 15.1917 3.31302L16.9544 6.34645C17.0091 6.45576 17.0296 6.55824 17.0159 6.65389C17.0022 6.74954 16.9544 6.83836 16.8724 6.92034L15.0278 8.35507L15.0688 9.21591L15.0278 10.0767L16.8724 11.5115C16.9544 11.5935 17.0022 11.6823 17.0159 11.7779C17.0296 11.8736 17.0091 11.9761 16.9544 12.0854L15.1917 15.1188C15.1644 15.2008 15.0961 15.2623 14.9868 15.3033C14.8775 15.3443 14.7682 15.3374 14.6588 15.2828L12.4863 14.4219C11.9943 14.8045 11.5024 15.0915 11.0105 15.2828L10.6826 17.5783C10.6826 17.6876 10.6416 17.7765 10.5596 17.8448C10.4776 17.9131 10.382 17.9473 10.2727 17.9473H6.74733ZM7.85412 2.20623L7.52619 4.50179C6.46039 4.72042 5.57222 5.23966 4.86169 6.0595L2.77108 5.15767L2.1152 6.30546L3.95986 7.6582C3.60459 8.69667 3.60459 9.73514 3.95986 10.7736L2.1152 12.1674L2.77108 13.2741L4.90268 12.3723C5.61321 13.1922 6.48771 13.7114 7.52619 13.93L7.85412 16.2256H9.16588L9.49382 13.93C10.5323 13.7114 11.4068 13.1922 12.1173 12.3723L14.2489 13.2741L14.9048 12.1674L13.0601 10.8146C13.4154 9.74881 13.4154 8.69667 13.0601 7.6582L14.9048 6.30546L14.2489 5.15767L12.1583 6.0595C11.4478 5.23966 10.5596 4.72042 9.49382 4.50179L9.16588 2.20623H7.85412Z" fill="#FFFFFF"/>
</svg>
