<svg width="30" height="30" viewBox="0 0 30 30" fill="none" xmlns="http://www.w3.org/2000/svg">
<g clip-path="url(#clip0_32_24)">
<path fill-rule="evenodd" clip-rule="evenodd" d="M26.745 17.2559L29.87 13.1934C29.9541 13.0844 29.9997 12.9503 29.9997 12.8125V10C29.9997 9.83424 29.9339 9.67527 29.8166 9.55806C29.6994 9.44085 29.5405 9.375 29.3747 9.375C29.2089 9.375 29.05 9.44085 28.9328 9.55806C28.8155 9.67527 28.7497 9.83424 28.7497 10V12.6L25.7544 16.4941C25.6575 16.6257 25.6161 16.7901 25.639 16.9519C25.6618 17.1138 25.7472 17.2602 25.8768 17.3599C26.0064 17.4595 26.1698 17.5044 26.3321 17.485C26.4944 17.4656 26.6426 17.3834 26.745 17.2559Z" fill="#063164"/>
<path fill-rule="evenodd" clip-rule="evenodd" d="M22.8125 6.24987C22.9361 6.24984 23.0569 6.21317 23.1597 6.14449C23.2624 6.07582 23.3425 5.97821 23.3898 5.86403C23.4371 5.74984 23.4495 5.62419 23.4254 5.50297C23.4013 5.38175 23.3418 5.2704 23.2544 5.18299L18.5669 0.495492C18.4795 0.408111 18.3681 0.348607 18.2469 0.324502C18.1257 0.300397 18 0.312774 17.8858 0.360068C17.7717 0.407362 17.6741 0.487449 17.6054 0.590205C17.5367 0.692961 17.5 0.813773 17.5 0.937367V5.62487C17.5 5.79063 17.5658 5.9496 17.6831 6.06681C17.8003 6.18402 17.9592 6.24987 18.125 6.24987H22.8125Z" fill="#E88C44"/>
<path fill-rule="evenodd" clip-rule="evenodd" d="M23.75 10.9375V5.625C23.75 5.45925 23.6841 5.30031 23.5669 5.18313L18.5669 0.183125C18.4497 0.0659067 18.2907 3.53984e-05 18.125 0L0.625 0C0.45924 0 0.300269 0.065848 0.183058 0.183058C0.065848 0.300269 0 0.45924 0 0.625L0 29.375C0 29.5408 0.065848 29.6997 0.183058 29.8169C0.300269 29.9342 0.45924 30 0.625 30H23.125C23.2908 30 23.4497 29.9342 23.5669 29.8169C23.6842 29.6997 23.75 29.5408 23.75 29.375V16.875C23.75 16.7092 23.6842 16.5503 23.5669 16.4331C23.4497 16.3158 23.2908 16.25 23.125 16.25C22.9592 16.25 22.8003 16.3158 22.6831 16.4331C22.5658 16.5503 22.5 16.7092 22.5 16.875V28.75H1.25V1.25H17.8663L22.5 5.88375V10.9375C22.5 11.1033 22.5658 11.2622 22.6831 11.3794C22.8003 11.4967 22.9592 11.5625 23.125 11.5625C23.2908 11.5625 23.4497 11.4967 23.5669 11.3794C23.6842 11.2622 23.75 11.1033 23.75 10.9375Z" fill="#063164"/>
<path fill-rule="evenodd" clip-rule="evenodd" d="M17.7797 23.0591C17.84 23.0291 17.8947 22.9894 17.9422 22.9419L29.8172 11.0669C29.9344 10.9497 30.0003 10.7907 30.0003 10.625V9.0625C30.0003 8.89674 29.9345 8.73777 29.8173 8.62056C29.7001 8.50335 29.5411 8.4375 29.3753 8.4375H27.8128C27.6471 8.43754 27.4882 8.50341 27.371 8.62063L15.496 20.4956C15.4484 20.5431 15.4088 20.598 15.3788 20.6581L13.8163 23.7831C13.7575 23.9004 13.7371 24.0333 13.758 24.1629C13.779 24.2924 13.8402 24.4121 13.933 24.5049C14.0258 24.5977 14.1454 24.6589 14.275 24.6798C14.4045 24.7008 14.5374 24.6804 14.6547 24.6216L17.7797 23.0591Z" fill="#E88C44"/>
<path fill-rule="evenodd" clip-rule="evenodd" d="M14.9156 7.30914C14.8481 8.97321 13.4753 10.3029 11.7947 10.3029C10.0709 10.3029 8.67125 8.90352 8.67125 7.17946C8.67125 5.45539 10.0712 4.05602 11.7947 4.05602C12.3572 4.05602 12.8847 4.20477 13.3406 4.46539C13.484 4.54148 13.6514 4.55876 13.8074 4.5136C13.9633 4.46844 14.0956 4.36437 14.1761 4.22343C14.2567 4.08248 14.2793 3.91571 14.239 3.75843C14.1988 3.60114 14.099 3.46568 13.9606 3.38071C13.3012 3.00363 12.5546 2.80572 11.795 2.80664C9.38125 2.80664 7.42188 4.76602 7.42188 7.17946C7.42188 9.59289 9.38125 11.5526 11.7947 11.5526C14.1481 11.5526 16.0697 9.68977 16.1641 7.35977C16.1659 7.19719 16.1043 7.0403 15.9923 6.92239C15.8804 6.80449 15.7269 6.73485 15.5644 6.72826C15.402 6.72168 15.2433 6.77866 15.1222 6.88711C15.0011 6.99556 14.927 7.14695 14.9156 7.30914Z" fill="#063164"/>
<path fill-rule="evenodd" clip-rule="evenodd" d="M9.87049 7.31745L11.433 8.87995C11.5502 8.99712 11.7091 9.06294 11.8749 9.06294C12.0406 9.06294 12.1995 8.99712 12.3167 8.87995L15.5186 5.67807C15.5783 5.62042 15.6259 5.55145 15.6587 5.4752C15.6914 5.39895 15.7087 5.31693 15.7094 5.23395C15.7101 5.15096 15.6943 5.06866 15.6629 4.99185C15.6315 4.91504 15.585 4.84526 15.5264 4.78657C15.4677 4.72789 15.3979 4.68148 15.3211 4.65006C15.2443 4.61863 15.162 4.60282 15.079 4.60354C14.996 4.60426 14.914 4.6215 14.8377 4.65426C14.7615 4.68701 14.6925 4.73463 14.6349 4.79432L11.8749 7.55432L10.7542 6.4337C10.6966 6.374 10.6276 6.32639 10.5514 6.29363C10.4751 6.26088 10.3931 6.24364 10.3101 6.24291C10.2271 6.24219 10.1448 6.25801 10.068 6.28943C9.99121 6.32086 9.92143 6.36727 9.86275 6.42595C9.80406 6.48463 9.75766 6.55441 9.72623 6.63122C9.6948 6.70803 9.67899 6.79033 9.67971 6.87332C9.68043 6.95631 9.69767 7.03832 9.73043 7.11457C9.76318 7.19083 9.8108 7.25979 9.87049 7.31745Z" fill="#063164"/>
<path fill-rule="evenodd" clip-rule="evenodd" d="M6.95673 21.4246C6.3258 23.0518 6.25205 24.009 6.25205 24.009C6.24145 24.1342 6.26888 24.2598 6.33074 24.3692C6.3926 24.4786 6.48602 24.5669 6.59881 24.6224C6.7116 24.6779 6.8385 24.6981 6.96295 24.6804C7.08741 24.6627 7.20362 24.6078 7.29642 24.523C7.29642 24.523 7.95955 23.9171 8.69142 23.288C8.56423 23.6108 8.47611 23.8452 8.47611 23.8452C8.42952 23.9714 8.42489 24.1093 8.46292 24.2383C8.50096 24.3674 8.57961 24.4807 8.6872 24.5615C8.79479 24.6422 8.92557 24.6861 9.0601 24.6866C9.19463 24.6872 9.32573 24.6442 9.43392 24.5643C9.43392 24.5643 10.0567 24.1027 10.622 23.7771C10.6674 23.9724 10.7511 24.1449 10.8614 24.2952C11.1827 24.7333 11.7895 24.9993 12.4999 24.9993C12.6656 24.9993 12.8246 24.9334 12.9418 24.8162C13.059 24.699 13.1249 24.54 13.1249 24.3743C13.1249 24.2085 13.059 24.0495 12.9418 23.9323C12.8246 23.8151 12.6656 23.7493 12.4999 23.7493C12.3164 23.7493 12.1445 23.723 12.0058 23.6574C11.9386 23.6252 11.8777 23.5871 11.8508 23.523C11.8227 23.4555 11.8314 23.3736 11.8558 23.2771C11.9399 22.9436 11.8489 22.7221 11.7452 22.5793C11.6114 22.3958 11.3952 22.2599 11.0714 22.2765C10.9042 22.2849 10.6499 22.3643 10.3664 22.4986C10.422 22.3836 10.473 22.2896 10.5149 22.2283C10.7342 21.909 10.8155 21.6908 10.8345 21.5799C10.8572 21.4584 10.8466 21.333 10.8039 21.2171C10.7762 21.1378 10.733 21.0648 10.6769 21.0022C10.6208 20.9397 10.5529 20.8889 10.477 20.8527C10.3363 20.7836 10.1762 20.7647 10.0233 20.7993C9.88486 20.8277 9.59861 20.969 9.25424 21.2208C8.89892 21.4808 8.43298 21.8652 7.98361 22.2493C8.18725 21.6819 8.42209 21.1263 8.68705 20.5849C8.94705 20.0496 9.02236 19.7046 9.01705 19.5333C9.00861 19.264 8.89236 19.0983 8.76736 18.9911C8.62548 18.8696 8.4308 18.7893 8.16923 18.8355C7.97267 18.8702 7.57455 19.0986 7.1133 19.5152C5.75142 20.7458 3.27361 23.6568 3.27361 23.6568C3.16639 23.7832 3.11368 23.9469 3.12704 24.1121C3.14039 24.2773 3.21873 24.4305 3.34486 24.538C3.47125 24.6452 3.63501 24.6979 3.80022 24.6846C3.96542 24.6712 4.11858 24.5929 4.22611 24.4668C4.22611 24.4668 5.68361 22.7518 6.95673 21.4246Z" fill="#E88C44"/>
<path fill-rule="evenodd" clip-rule="evenodd" d="M5.0625 14.375H18.8175C18.9833 14.375 19.1422 14.3092 19.2594 14.1919C19.3767 14.0747 19.4425 13.9158 19.4425 13.75C19.4425 13.5842 19.3767 13.4253 19.2594 13.3081C19.1422 13.1908 18.9833 13.125 18.8175 13.125H5.0625C4.89674 13.125 4.73777 13.1908 4.62056 13.3081C4.50335 13.4253 4.4375 13.5842 4.4375 13.75C4.4375 13.9158 4.50335 14.0747 4.62056 14.1919C4.73777 14.3092 4.89674 14.375 5.0625 14.375ZM5.05375 17.1875H13.8081C13.9705 17.1824 14.1244 17.1143 14.2375 16.9976C14.3505 16.881 14.4137 16.7249 14.4137 16.5625C14.4137 16.4001 14.3505 16.244 14.2375 16.1274C14.1244 16.0107 13.9705 15.9426 13.8081 15.9375H5.05375C4.89141 15.9426 4.73744 16.0107 4.62442 16.1274C4.5114 16.244 4.4482 16.4001 4.4482 16.5625C4.4482 16.7249 4.5114 16.881 4.62442 16.9976C4.73744 17.1143 4.89141 17.1824 5.05375 17.1875Z" fill="#063164"/>
</g>
<defs>
<clipPath id="clip0_32_24">
<rect width="30" height="30" fill="white"/>
</clipPath>
</defs>
</svg>
