<svg width="19" height="15" viewBox="0 0 19 15" fill="none" xmlns="http://www.w3.org/2000/svg">
<path d="M1.08062 0C0.488359 0 0 0.488359 0 1.08063V11.02C0 11.6509 0.509141 12.16 1.14 12.16H2.69563C2.87672 13.2377 3.81336 14.06 4.94 14.06C6.06664 14.06 7.00328 13.2377 7.18437 12.16H10.6994C10.9799 12.16 11.2308 12.0413 11.4237 11.8631C11.6212 12.0368 11.8735 12.157 12.16 12.16H12.5756C12.7567 13.2377 13.6934 14.06 14.82 14.06C16.0743 14.06 17.1 13.0343 17.1 11.78C17.1 10.5257 16.0743 9.5 14.82 9.5C13.6934 9.5 12.7567 10.3223 12.5756 11.4H12.16C12.0887 11.4 11.9804 11.351 11.8988 11.2694C11.8171 11.1877 11.78 11.0898 11.78 11.02V3.8C11.78 3.6575 12.0175 3.42 12.16 3.42H15.2C15.4984 3.42 15.9184 3.73914 16.2094 4.085C16.2123 4.08945 16.2183 4.09242 16.2213 4.09688L16.2806 4.18H14.44C13.8344 4.18 13.3 4.66984 13.3 5.32V6.84C13.3 7.15617 13.4425 7.43375 13.6444 7.63563C13.8462 7.8375 14.1238 7.98 14.44 7.98H18.24V11.02C18.24 11.1625 18.0025 11.4 17.86 11.4H17.1V12.16H17.86C18.4909 12.16 19 11.6509 19 11.02V7.3625C19 6.49266 18.3944 5.72375 18.3944 5.72375H18.3825L16.815 3.63375V3.62188L16.8031 3.61C16.4528 3.18695 15.9273 2.66 15.2 2.66H12.16C12.0249 2.66 11.9002 2.6882 11.78 2.73125V1.10438C11.78 0.521016 11.3198 0 10.7113 0H1.08062ZM1.08062 0.76H10.7113C10.8745 0.76 11.02 0.917344 11.02 1.10438V11.0794C11.02 11.2575 10.879 11.4 10.6994 11.4H7.18437C7.00328 10.3223 6.06664 9.5 4.94 9.5C3.81336 9.5 2.87672 10.3223 2.69563 11.4H1.14C0.9975 11.4 0.76 11.161 0.76 11.02V1.08063C0.76 0.9025 0.899531 0.76 1.08062 0.76ZM14.44 4.94H16.8506L17.7769 6.175C17.7769 6.175 18.1213 6.7643 18.1925 7.22H14.44C14.3762 7.22 14.2737 7.1725 14.1906 7.08938C14.1075 7.00625 14.06 6.90383 14.06 6.84V5.32C14.06 5.12852 14.2856 4.94 14.44 4.94ZM4.94 10.26C5.78461 10.26 6.46 10.9354 6.46 11.78C6.46 12.6246 5.78461 13.3 4.94 13.3C4.09539 13.3 3.42 12.6246 3.42 11.78C3.42 10.9354 4.09539 10.26 4.94 10.26ZM14.82 10.26C15.6646 10.26 16.34 10.9354 16.34 11.78C16.34 12.6246 15.6646 13.3 14.82 13.3C13.9754 13.3 13.3 12.6246 13.3 11.78C13.3 10.9354 13.9754 10.26 14.82 10.26Z" fill="#063164"/>
</svg>
