<svg width="12" height="14" viewBox="0 0 12 14" fill="none" xmlns="http://www.w3.org/2000/svg">
<path fill-rule="evenodd" clip-rule="evenodd" d="M8.66667 8C9.52564 8.00005 10.3514 8.33169 10.9719 8.92577C11.5923 9.51985 11.9594 10.3305 11.9967 11.1887L12 11.3333V12.6667C11.9998 12.8366 11.9347 13 11.8181 13.1236C11.7015 13.2471 11.542 13.3215 11.3724 13.3314C11.2028 13.3414 11.0357 13.2862 10.9054 13.1772C10.7751 13.0681 10.6914 12.9134 10.6713 12.7447L10.6667 12.6667V11.3333C10.6667 10.8232 10.4718 10.3323 10.1218 9.96116C9.77184 9.59 9.29326 9.36659 8.784 9.33667L8.66667 9.33333H3.33333C2.82319 9.3333 2.33232 9.52822 1.96116 9.87819C1.59 10.2282 1.3666 10.7067 1.33667 11.216L1.33333 11.3333V12.6667C1.33314 12.8366 1.26808 13 1.15143 13.1236C1.03479 13.2471 0.875365 13.3215 0.705737 13.3314C0.536109 13.3414 0.36908 13.2862 0.238778 13.1772C0.108476 13.0681 0.0247357 12.9134 0.00466665 12.7447L0 12.6667V11.3333C4.96283e-05 10.4744 0.331694 9.64856 0.925773 9.02815C1.51985 8.40774 2.3305 8.04061 3.18867 8.00333L3.33333 8H8.66667ZM6 0C6.88406 0 7.7319 0.351189 8.35702 0.976311C8.98214 1.60143 9.33333 2.44928 9.33333 3.33333C9.33333 4.21739 8.98214 5.06523 8.35702 5.69036C7.7319 6.31548 6.88406 6.66667 6 6.66667C5.11595 6.66667 4.2681 6.31548 3.64298 5.69036C3.01786 5.06523 2.66667 4.21739 2.66667 3.33333C2.66667 2.44928 3.01786 1.60143 3.64298 0.976311C4.2681 0.351189 5.11595 0 6 0ZM6 1.33333C5.73736 1.33333 5.47728 1.38506 5.23463 1.48557C4.99198 1.58608 4.7715 1.7334 4.58579 1.91912C4.40007 2.10484 4.25275 2.32532 4.15224 2.56797C4.05173 2.81062 4 3.07069 4 3.33333C4 3.59598 4.05173 3.85605 4.15224 4.0987C4.25275 4.34135 4.40007 4.56183 4.58579 4.74755C4.7715 4.93326 4.99198 5.08058 5.23463 5.18109C5.47728 5.2816 5.73736 5.33333 6 5.33333C6.53043 5.33333 7.03914 5.12262 7.41421 4.74755C7.78929 4.37247 8 3.86377 8 3.33333C8 2.8029 7.78929 2.29419 7.41421 1.91912C7.03914 1.54405 6.53043 1.33333 6 1.33333Z" fill="#063164"/>
</svg>
