<svg width="14" height="14" viewBox="0 0 14 14" fill="none" xmlns="http://www.w3.org/2000/svg">
<path d="M1.60416 3.00078H0.659722C0.534481 3.00078 0.41437 2.94811 0.325811 2.85435C0.237252 2.76059 0.1875 2.63342 0.1875 2.50082C0.1875 2.36822 0.237252 2.24105 0.325811 2.1473C0.41437 2.05353 0.534481 2.00086 0.659722 2.00086H4.4375V0.499964C4.4375 0.367366 4.48725 0.240198 4.57581 0.146436C4.66437 0.0526747 4.78448 0 4.90972 0H8.6875C8.81272 0 8.93288 0.0526747 9.0214 0.146436C9.10998 0.240198 9.15968 0.367366 9.15968 0.499964V2.00086H12.9375C13.0627 2.00086 13.1828 2.05353 13.2714 2.1473C13.36 2.24105 13.4097 2.36822 13.4097 2.50082C13.4097 2.63342 13.36 2.76059 13.2714 2.85435C13.1828 2.94811 13.0627 3.00078 12.9375 3.00078H11.9931V13.5C11.9931 13.6326 11.9433 13.7598 11.8548 13.8536C11.7662 13.9473 11.6461 14 11.5209 14H2.07639C1.95115 14 1.83103 13.9473 1.74248 13.8536C1.65392 13.7598 1.60416 13.6326 1.60416 13.5V3.00078ZM8.21531 2.00086V1.00093H5.38195V2.00086H8.21531ZM2.54861 13.0001H11.0486V3.00078H2.54861V13.0001ZM5.38195 11.0002C5.2567 11.0002 5.13659 10.9475 5.04803 10.8538C4.95947 10.76 4.90972 10.6328 4.90972 10.5002V5.50061C4.90972 5.36801 4.95947 5.24084 5.04803 5.14708C5.13659 5.05332 5.2567 5.00064 5.38195 5.00064C5.50719 5.00064 5.6273 5.05332 5.71586 5.14708C5.80441 5.24084 5.85417 5.36801 5.85417 5.50061V10.5002C5.85417 10.6328 5.80441 10.76 5.71586 10.8538C5.6273 10.9475 5.50719 11.0002 5.38195 11.0002ZM8.21531 11.0002C8.09001 11.0002 7.96992 10.9475 7.88133 10.8538C7.79282 10.76 7.74306 10.6328 7.74306 10.5002V5.50061C7.74306 5.36801 7.79282 5.24084 7.88133 5.14708C7.96992 5.05332 8.09001 5.00064 8.21531 5.00064C8.34053 5.00064 8.46062 5.05332 8.54921 5.14708C8.63772 5.24084 8.6875 5.36801 8.6875 5.50061V10.5002C8.6875 10.6328 8.63772 10.76 8.54921 10.8538C8.46062 10.9475 8.34053 11.0002 8.21531 11.0002Z" fill="#063164"/>
</svg>
