<svg width="17" height="17" viewBox="0 0 8 8" fill="none" xmlns="http://www.w3.org/2000/svg">
  <path d="M4 8C1.79431 8 0 6.20569 0 4C0 1.79431 1.79431 0 4 0C6.20569 0 8 1.79431 8 4C8 6.20569 6.20569 8 4 8ZM4 0.5C2.07 0.5 0.5 2.07 0.5 4C0.5 5.93 2.07 7.5 4 7.5C5.93 7.5 7.5 5.93 7.5 4C7.5 2.07 5.93 0.5 4 0.5Z" fill="#063164"/>
  <path d="M5.75 4.25H2.25C2.112 4.25 2 4.138 2 4C2 3.862 2.112 3.75 2.25 3.75H5.75C5.888 3.75 6 3.862 6 4C6 4.138 5.888 4.25 5.75 4.25Z" fill="#063164"/>
  <path d="M4 6C3.862 6 3.75 5.888 3.75 5.75V2.25C3.75 2.112 3.862 2 4 2C4.138 2 4.25 2.112 4.25 2.25V5.75C4.25 5.888 4.138 6 4 6Z" fill="#063164"/>
</svg>
