<svg width="15" height="17" viewBox="0 0 15 17" fill="none" xmlns="http://www.w3.org/2000/svg">
<path d="M1.39905 0V1.39905H0V16.089H14.69V4.19714H9.09381V1.39905H7.69476V0H1.39905ZM2.09857 0.699524H6.99524V2.09857H8.39429V15.3895H5.24643V12.9412H3.84738V15.3895H0.699524V2.09857H2.09857V0.699524ZM2.09857 2.7981V3.49762H2.7981V2.7981H2.09857ZM3.49762 2.7981V3.49762H4.19714V2.7981H3.49762ZM4.89667 2.7981V3.49762H5.59619V2.7981H4.89667ZM6.29571 2.7981V3.49762H6.99524V2.7981H6.29571ZM2.09857 4.54691V5.94595H2.7981V4.54691H2.09857ZM3.49762 4.54691V5.94595H4.19714V4.54691H3.49762ZM4.89667 4.54691V5.94595H5.59619V4.54691H4.89667ZM6.29571 4.54691V5.94595H6.99524V4.54691H6.29571ZM9.09381 4.89667H13.9905V15.3895H9.09381V4.89667ZM9.79333 5.59619V6.29571H10.4929V5.59619H9.79333ZM11.1924 5.59619V6.29571H11.8919V5.59619H11.1924ZM12.5914 5.59619V6.29571H13.291V5.59619H12.5914ZM2.09857 6.64548V8.04452H2.7981V6.64548H2.09857ZM3.49762 6.64548V8.04452H4.19714V6.64548H3.49762ZM4.89667 6.64548V8.04452H5.59619V6.64548H4.89667ZM6.29571 6.64548V8.04452H6.99524V6.64548H6.29571ZM9.79333 6.99524V7.69476H10.4929V6.99524H9.79333ZM11.1924 6.99524V7.69476H11.8919V6.99524H11.1924ZM12.5914 6.99524V7.69476H13.291V6.99524H12.5914ZM9.79333 8.39429V9.09381H10.4929V8.39429H9.79333ZM11.1924 8.39429V9.09381H11.8919V8.39429H11.1924ZM12.5914 8.39429V9.09381H13.291V8.39429H12.5914ZM2.09857 8.74405V10.1431H2.7981V8.74405H2.09857ZM3.49762 8.74405V10.1431H4.19714V8.74405H3.49762ZM4.89667 8.74405V10.1431H5.59619V8.74405H4.89667ZM6.29571 8.74405V10.1431H6.99524V8.74405H6.29571ZM9.79333 9.79333V10.4929H10.4929V9.79333H9.79333ZM11.1924 9.79333V10.4929H11.8919V9.79333H11.1924ZM12.5914 9.79333V10.4929H13.291V9.79333H12.5914ZM2.09857 10.8426V12.2417H2.7981V10.8426H2.09857ZM3.49762 10.8426V12.2417H4.19714V10.8426H3.49762ZM4.89667 10.8426V12.2417H5.59619V10.8426H4.89667ZM6.29571 10.8426V12.2417H6.99524V10.8426H6.29571ZM9.79333 11.1924V11.8919H10.4929V11.1924H9.79333ZM11.1924 11.1924V11.8919H11.8919V11.1924H11.1924ZM12.5914 11.1924V11.8919H13.291V11.1924H12.5914ZM9.79333 12.5914V13.291H10.4929V12.5914H9.79333ZM11.1924 12.5914V13.291H11.8919V12.5914H11.1924ZM12.5914 12.5914V13.291H13.291V12.5914H12.5914ZM2.09857 12.9412V14.69H2.7981V12.9412H2.09857ZM6.29571 12.9412V14.69H6.99524V12.9412H6.29571ZM9.79333 13.9905V14.69H10.4929V13.9905H9.79333ZM11.1924 13.9905V14.69H11.8919V13.9905H11.1924ZM12.5914 13.9905V14.69H13.291V13.9905H12.5914Z" fill="white"/>
</svg>
