<svg width="17" height="18" viewBox="0 0 17 18" fill="none" xmlns="http://www.w3.org/2000/svg">
<path d="M8.72802 1.29311C8.33129 0.889215 7.67582 0.904796 7.29878 1.32708L1.24881 8.10305C1.08857 8.28247 1 8.51467 1 8.75529V16.2163C1 16.7572 1.43847 17.1957 1.97933 17.1957H4.91733C5.4582 17.1957 5.89667 16.7572 5.89667 16.2163V12.7887C5.89667 12.2478 6.33513 11.8093 6.876 11.8093H9.814C10.3549 11.8093 10.7933 12.2478 10.7933 12.7887V16.2163C10.7933 16.7572 11.2318 17.1957 11.7727 17.1957H14.7107C15.2516 17.1957 15.69 16.7572 15.69 16.2163V8.78222C15.69 8.52554 15.5892 8.27914 15.4093 8.096L8.72802 1.29311Z" fill="#063164" stroke="white"/>
</svg>
