<svg width="14" height="12" viewBox="0 0 14 12" fill="none" xmlns="http://www.w3.org/2000/svg">
<path d="M3.72729 10.3308C3.72729 8.26736 6.18184 8.68027 6.18184 7.855C6.20928 7.56194 6.12985 7.26884 5.95821 7.02973C5.76246 6.84413 5.60826 6.61915 5.50578 6.36963C5.4033 6.1201 5.35486 5.85169 5.36366 5.58209C5.33703 5.11972 5.49398 4.66552 5.8004 4.31825C6.10682 3.97097 6.53794 3.75868 7.00003 3.72754C7.46212 3.75868 7.89323 3.97097 8.19965 4.31825C8.50607 4.66552 8.66303 5.11972 8.63639 5.58209C8.64621 5.85249 8.59742 6.12181 8.49339 6.37159C8.38935 6.62137 8.23253 6.8457 8.03367 7.02918C7.86893 7.27145 7.79283 7.56313 7.81821 7.855C7.81821 8.68027 10.2728 8.26791 10.2728 10.3314C10.2728 10.3314 9.62094 10.819 7.00003 10.819C4.37911 10.819 3.72729 10.3308 3.72729 10.3308Z" stroke="#063164" stroke-width="0.8" stroke-miterlimit="10"/>
<path d="M3.44691 8.07292C3.13655 8.05874 2.86273 8.03747 2.62218 8.01074C2.05758 7.99953 1.50289 7.86021 1 7.60328C1 5.53983 3.45455 5.95273 3.45455 5.12746C3.48198 4.8344 3.40256 4.5413 3.23091 4.30219C3.03516 4.11659 2.88097 3.89161 2.77849 3.64209C2.67601 3.39256 2.62757 3.12415 2.63637 2.85455C2.60973 2.39218 2.76669 1.93798 3.07311 1.59071C3.37953 1.24343 3.81064 1.03114 4.27273 1C4.73482 1.03114 5.16594 1.24343 5.47236 1.59071C5.77878 1.93798 5.93573 2.39218 5.9091 2.85455" stroke="#063164" stroke-width="0.8" stroke-miterlimit="10"/>
<path d="M10.553 8.07292C10.8634 8.05874 11.1372 8.03747 11.3777 8.01074C11.9423 7.99953 12.497 7.86021 12.9999 7.60328C12.9999 5.53983 10.5454 5.95273 10.5454 5.12746C10.5179 4.8344 10.5973 4.5413 10.769 4.30219C10.9647 4.11659 11.1189 3.89161 11.2214 3.64209C11.3239 3.39256 11.3723 3.12415 11.3635 2.85455C11.3902 2.39218 11.2332 1.93798 10.9268 1.59071C10.6204 1.24343 10.1893 1.03114 9.72717 1C9.26508 1.03114 8.83396 1.24343 8.52754 1.59071C8.22112 1.93798 8.06417 2.39218 8.0908 2.85455" stroke="#063164" stroke-width="0.8" stroke-miterlimit="10"/>
</svg>
