<svg width="17" height="17" viewBox="0 0 8 8" fill="none" xmlns="http://www.w3.org/2000/svg">
  <path fill-rule="evenodd" clip-rule="evenodd" d="M7.69231 3.70552C7.86215 3.70552 8 3.84336 8 4.01321C8 5.03178 7.60862 6.05036 6.83078 6.82771V6.8282C5.26648 8.38782 2.73357 8.38782 1.16927 6.8282V6.82771C0.899586 6.55689 0.669462 6.24937 0.485708 5.91424C0.466119 5.87889 0.453684 5.84003 0.449113 5.79988C0.444542 5.75973 0.447925 5.71907 0.459068 5.68022C0.470211 5.64137 0.488896 5.6051 0.514057 5.57348C0.539217 5.54185 0.57036 5.51549 0.605708 5.4959C0.641055 5.47632 0.679915 5.46388 0.720068 5.45931C0.760222 5.45474 0.800882 5.45812 0.839728 5.46926C0.878574 5.48041 0.914845 5.49909 0.94647 5.52425C0.978095 5.54941 1.00445 5.58056 1.02404 5.6159C1.17988 5.90089 1.3752 6.16243 1.60422 6.39276C2.92828 7.71287 5.07202 7.71263 6.39607 6.39276C6.70949 6.08087 6.95818 5.7101 7.12783 5.30177C7.29748 4.89345 7.38475 4.45562 7.38462 4.01345C7.38462 3.84361 7.52246 3.70552 7.69231 3.70552ZM6.39607 1.60534C5.07202 0.285475 2.92828 0.285229 1.60422 1.60534C0.958075 2.25149 0.630446 3.09703 0.615431 3.94502C0.613962 4.02663 0.580136 4.10431 0.521394 4.16097C0.462652 4.21763 0.383806 4.24864 0.302202 4.24717C0.220597 4.2457 0.142919 4.21188 0.0862541 4.15314C0.0295896 4.0944 -0.00141898 4.01555 4.99048e-05 3.93394C0.018019 2.93555 0.404232 1.93519 1.16927 1.17015V1.1699C2.73382 -0.389967 5.26648 -0.389967 6.83078 1.1699C7.10048 1.4408 7.33061 1.74841 7.51434 2.08362C7.53393 2.11897 7.54637 2.15783 7.55094 2.19798C7.55551 2.23813 7.55212 2.27879 7.54098 2.31764C7.52984 2.35648 7.51115 2.39276 7.48599 2.42438C7.46083 2.456 7.42969 2.48236 7.39434 2.50195C7.35899 2.52154 7.32014 2.53398 7.27998 2.53855C7.23983 2.54312 7.19917 2.53974 7.16032 2.52859C7.12148 2.51745 7.08521 2.49877 7.05358 2.47361C7.02196 2.44845 6.9956 2.4173 6.97601 2.38195C6.82022 2.09707 6.62498 1.83562 6.39607 1.60534Z" fill="#063164"/>
  <path fill-rule="evenodd" clip-rule="evenodd" d="M7.46285 0.291992C7.6327 0.291992 7.77054 0.429837 7.77054 0.599683V2.23241C7.77054 2.40226 7.6327 2.5401 7.46285 2.5401H5.83012C5.74852 2.5401 5.67026 2.50768 5.61255 2.44998C5.55485 2.39228 5.52243 2.31402 5.52243 2.23241C5.52243 2.15081 5.55485 2.07254 5.61255 2.01484C5.67026 1.95714 5.74852 1.92472 5.83012 1.92472H7.15516V0.599683C7.15516 0.429837 7.29301 0.291992 7.46285 0.291992ZM0.238281 5.7647C0.238281 5.59485 0.376127 5.45701 0.545972 5.45701H2.1787C2.2603 5.45701 2.33857 5.48942 2.39627 5.54713C2.45397 5.60483 2.48639 5.68309 2.48639 5.7647C2.48639 5.8463 2.45397 5.92456 2.39627 5.98227C2.33857 6.03997 2.2603 6.07239 2.1787 6.07239H0.853662V7.39743C0.853662 7.47903 0.821245 7.55729 0.763542 7.615C0.705838 7.6727 0.627576 7.70512 0.545972 7.70512C0.464367 7.70512 0.386105 7.6727 0.328402 7.615C0.270699 7.55729 0.238281 7.47903 0.238281 7.39743V5.7647Z" fill="#063164"/>
</svg>
