<svg width="26" height="24" viewBox="0 0 26 24" fill="none" xmlns="http://www.w3.org/2000/svg">
<path d="M0.25933 22.8645C0.43759 23.1442 0.686105 23.3724 0.980077 23.5261C1.27405 23.6798 1.6032 23.7538 1.93467 23.7406H24.0612C24.393 23.754 24.7225 23.6801 25.0169 23.5264C25.3113 23.3726 25.5602 23.1444 25.7388 22.8645C25.9091 22.5821 25.9994 22.2587 26 21.9289C26.0006 21.5991 25.9115 21.2754 25.7422 20.9924L14.6953 0.935778C14.5186 0.649687 14.2716 0.413536 13.9779 0.249755C13.6841 0.0859736 13.3534 0 13.0171 0C12.6809 0 12.3501 0.0859736 12.0564 0.249755C11.7627 0.413536 11.5157 0.649687 11.339 0.935778L0.26046 20.9924C0.0900572 21.2749 0 21.5985 0 21.9284C0 22.2583 0.0889269 22.582 0.25933 22.8645ZM1.2304 21.5723L12.3315 1.48066C12.4071 1.37008 12.5092 1.28018 12.6285 1.21917C12.7478 1.15816 12.8804 1.12796 13.0143 1.13135C13.1561 1.12929 13.296 1.16378 13.4205 1.2315C13.545 1.29921 13.65 1.39787 13.7254 1.51797L24.7485 21.5362C24.8214 21.6466 24.8618 21.7753 24.8652 21.9076C24.8686 22.0399 24.8348 22.1705 24.7677 22.2845C24.686 22.3932 24.5786 22.4799 24.455 22.5368C24.3315 22.5936 24.1958 22.6188 24.0601 22.6101H1.9358C1.80083 22.6187 1.66583 22.5937 1.54291 22.5372C1.41999 22.4808 1.313 22.3948 1.23153 22.2868C1.1655 22.1794 1.13045 22.0558 1.13025 21.9297C1.13006 21.8036 1.16471 21.68 1.2304 21.5723ZM13.5705 15.8273H12.44V7.91411H13.5705V15.8273ZM11.8748 18.6535C11.8748 18.4299 11.9411 18.2113 12.0653 18.0254C12.1895 17.8395 12.3661 17.6946 12.5727 17.6091C12.7792 17.5235 13.0065 17.5011 13.2258 17.5448C13.4451 17.5884 13.6465 17.696 13.8046 17.8541C13.9627 18.0122 14.0704 18.2137 14.114 18.4329C14.1576 18.6522 14.1352 18.8795 14.0497 19.0861C13.9641 19.2927 13.8192 19.4692 13.6333 19.5934C13.4474 19.7177 13.2289 19.784 13.0053 19.784C12.7056 19.7834 12.4185 19.6641 12.2066 19.4522C11.9947 19.2403 11.8754 18.9531 11.8748 18.6535Z" fill="#D12913"/>
</svg>
