<svg width="17" height="20" viewBox="0 0 17 20" fill="none" xmlns="http://www.w3.org/2000/svg">
<path d="M10.3437 19.9973H14.937C16.1253 19.9973 16.5253 18.5561 16.5253 17.9027C16.529 17.3977 16.3814 16.9032 16.1015 16.483C15.8215 16.0627 15.4221 15.736 14.9546 15.545C15.2246 15.1286 15.3773 14.6471 15.3966 14.1512C15.4158 13.6553 15.3009 13.1634 15.0639 12.7273C14.827 12.2913 14.4768 11.9272 14.0503 11.6736C13.6237 11.4199 13.1366 11.286 12.6404 11.286C12.1441 11.286 11.657 11.4199 11.2305 11.6736C10.8039 11.9272 10.4537 12.2913 10.2168 12.7273C9.97983 13.1634 9.86493 13.6553 9.88417 14.1512C9.90341 14.6471 10.0561 15.1286 10.3261 15.545C9.85925 15.7355 9.4602 16.0616 9.18048 16.4811C8.90075 16.9006 8.75319 17.3944 8.75682 17.8986C8.75682 18.5561 9.15677 19.9973 10.3437 19.9973ZM12.6404 12.3122C12.985 12.3121 13.3219 12.4142 13.6085 12.6056C13.8951 12.7969 14.1185 13.069 14.2504 13.3874C14.3824 13.7057 14.4169 14.0561 14.3497 14.3941C14.2825 14.7321 14.1166 15.0426 13.8729 15.2862C13.6292 15.5299 13.3188 15.6959 12.9807 15.7631C12.6427 15.8303 12.2924 15.7957 11.974 15.6638C11.6557 15.5318 11.3836 15.3084 11.1922 15.0218C11.0008 14.7352 10.8988 14.3983 10.8989 14.0537C10.8994 13.592 11.0831 13.1494 11.4096 12.8229C11.736 12.4964 12.1787 12.3128 12.6404 12.3122ZM10.9064 16.414C11.0365 16.3819 11.1739 16.3998 11.2914 16.4642C11.3157 16.4744 11.3409 16.4823 11.3666 16.4879C11.7567 16.7012 12.1941 16.8129 12.6387 16.8129C13.0832 16.8129 13.5206 16.7012 13.9107 16.4879C13.9359 16.4822 13.9606 16.4745 13.9846 16.4649C14.1002 16.4007 14.2358 16.3826 14.3642 16.414C14.6933 16.498 14.9847 16.69 15.1917 16.9593C15.3987 17.2286 15.5093 17.5596 15.5057 17.8993C15.5057 18.2301 15.2902 18.9839 14.9343 18.9839H10.3437C9.98852 18.9839 9.77363 18.2328 9.77363 17.8993C9.76923 17.5607 9.87841 17.2304 10.0837 16.9612C10.2891 16.692 10.5787 16.4993 10.9064 16.414ZM4.31056e-05 17.8986C4.31056e-05 18.5561 0.399989 20 1.58762 20H6.1809C7.36853 20 7.76848 18.5588 7.76848 17.9054C7.77251 17.4005 7.62507 16.9059 7.34522 16.4857C7.06536 16.0654 6.66594 15.7387 6.19852 15.5477C6.46881 15.1313 6.62172 14.6496 6.6411 14.1535C6.66049 13.6574 6.54565 13.1652 6.30869 12.7289C6.07173 12.2927 5.72143 11.9284 5.29473 11.6746C4.86803 11.4208 4.38075 11.2868 3.88426 11.2868C3.38778 11.2868 2.90049 11.4208 2.47379 11.6746C2.0471 11.9284 1.69679 12.2927 1.45983 12.7289C1.22287 13.1652 1.10803 13.6574 1.12742 14.1535C1.14681 14.6496 1.29971 15.1313 1.57 15.5477C1.1035 15.738 0.704668 16.0637 0.424863 16.4826C0.145058 16.9016 -0.00290129 17.3948 4.31056e-05 17.8986ZM3.88494 12.3122C4.2295 12.3124 4.56629 12.4147 4.8527 12.6062C5.13912 12.7977 5.36231 13.0699 5.49404 13.3883C5.62578 13.7067 5.66014 14.057 5.59279 14.3949C5.52544 14.7328 5.3594 15.0432 5.11566 15.2867C4.87192 15.5303 4.56144 15.6961 4.22347 15.7632C3.8855 15.8302 3.53523 15.7956 3.21695 15.6636C2.89867 15.5316 2.62667 15.3082 2.43535 15.0217C2.24403 14.7351 2.14199 14.3983 2.14213 14.0537C2.14266 13.5918 2.3265 13.1489 2.65326 12.8224C2.98002 12.4959 3.42301 12.3124 3.88494 12.3122ZM2.15365 16.414C2.28329 16.3818 2.42034 16.3997 2.53733 16.4642C2.56207 16.4745 2.58772 16.4824 2.61393 16.4879C3.00379 16.7014 3.44113 16.8133 3.88562 16.8133C4.33011 16.8133 4.76744 16.7014 5.15731 16.4879C5.18276 16.4823 5.2077 16.4746 5.23188 16.4649C5.34749 16.4014 5.48266 16.3835 5.61081 16.4147C5.93987 16.4987 6.23119 16.6907 6.43807 16.9601C6.64494 17.2294 6.75538 17.5604 6.75167 17.8999C6.75167 18.2307 6.53611 18.9845 6.1809 18.9845H1.58762C1.23242 18.9845 1.01685 18.2335 1.01685 17.8999C1.01253 17.5607 1.12222 17.2299 1.32835 16.9605C1.53448 16.691 1.82511 16.4986 2.15365 16.414ZM10.1607 9.81155C10.9111 9.8127 11.6555 9.67765 12.3577 9.41296L13.2301 9.79867C13.362 9.85704 13.5067 9.88073 13.6503 9.8675C13.794 9.85426 13.9319 9.80454 14.0509 9.72305C14.17 9.64156 14.2662 9.53101 14.3305 9.40188C14.3948 9.27275 14.4251 9.12933 14.4184 8.98522L14.3818 8.10941C14.8084 7.69095 15.1483 7.19249 15.3821 6.64255C15.6159 6.09261 15.739 5.50197 15.7443 4.90442C15.745 2.20309 13.2403 0.00203529 10.1607 0.00203529C9.51637 0.00303467 8.87609 0.103879 8.26265 0.300978C7.64795 0.1011 7.00556 -0.000476163 6.35918 1.67808e-06C3.28299 1.67808e-06 0.780276 2.20309 0.780276 4.90713C0.790319 6.11177 1.27791 7.26322 2.13602 8.10873L2.1001 8.98997C2.09573 9.10384 2.11434 9.21743 2.15481 9.32396C2.19529 9.43049 2.25681 9.52778 2.3357 9.61002C2.41458 9.69226 2.50923 9.75777 2.61398 9.80264C2.71873 9.84752 2.83145 9.87083 2.94541 9.87121C3.06403 9.87096 3.1813 9.84603 3.28977 9.798L4.1649 9.41025C5.4803 9.90475 6.92406 9.94105 8.26265 9.51329C8.87613 9.71016 9.51641 9.81077 10.1607 9.81155ZM14.7275 4.90713C14.7198 5.40491 14.6082 5.8956 14.4 6.34779C14.1918 6.79999 13.8914 7.20374 13.5182 7.53322C13.4642 7.58316 13.4218 7.64427 13.3938 7.71228C13.3658 7.78029 13.353 7.85359 13.3562 7.92706L13.3908 8.75814L12.5726 8.39683C12.5093 8.36917 12.4411 8.35455 12.372 8.35385C12.3029 8.35315 12.2344 8.36639 12.1706 8.39276C11.5341 8.65942 10.8508 8.7961 10.1607 8.79474C7.6424 8.79474 5.59454 7.05057 5.59454 4.90713C5.59454 2.76369 7.64307 1.01885 10.1607 1.01885C12.6783 1.01885 14.7275 2.76302 14.7275 4.90713ZM4.35335 8.39208C4.28884 8.36508 4.2195 8.35152 4.14957 8.35222C4.07964 8.35292 4.01059 8.36787 3.94663 8.39615L3.12437 8.76017L3.15894 7.92367C3.16206 7.85027 3.14925 7.77707 3.1214 7.70908C3.09355 7.6411 3.05132 7.57995 2.9976 7.52983C2.62621 7.2001 2.32764 6.79658 2.12094 6.345C1.91423 5.89343 1.80394 5.40372 1.79709 4.90713C1.79709 2.76234 3.84359 1.01681 6.35918 1.01681C6.48459 1.01681 6.60457 1.03918 6.72794 1.04732C6.08156 1.46609 5.54764 2.03689 5.17292 2.70977C4.79819 3.38265 4.59406 4.13711 4.5784 4.90713C4.59424 5.68131 4.80042 6.43968 5.17873 7.11532C5.55703 7.79096 6.09585 8.36308 6.7476 8.78118C5.93008 8.84033 5.11007 8.70707 4.35335 8.39208Z" fill="#063164"/>
<path d="M7.756 5.70902C7.89007 5.70902 8.02113 5.66926 8.13261 5.59478C8.24408 5.52029 8.33097 5.41442 8.38227 5.29056C8.43358 5.16669 8.447 5.03039 8.42085 4.8989C8.39469 4.7674 8.33013 4.64662 8.23533 4.55182C8.14053 4.45701 8.01974 4.39245 7.88825 4.3663C7.75675 4.34014 7.62045 4.35357 7.49659 4.40487C7.37272 4.45618 7.26685 4.54306 7.19237 4.65454C7.11788 4.76602 7.07812 4.89708 7.07812 5.03115C7.07812 5.21093 7.14954 5.38335 7.27667 5.51048C7.4038 5.6376 7.57622 5.70902 7.756 5.70902ZM10.1611 5.70902C10.2952 5.70902 10.4262 5.66926 10.5377 5.59478C10.6492 5.52029 10.7361 5.41442 10.7874 5.29056C10.8387 5.16669 10.8521 5.03039 10.8259 4.8989C10.7998 4.7674 10.7352 4.64662 10.6404 4.55182C10.5456 4.45701 10.4248 4.39245 10.2933 4.3663C10.1618 4.34014 10.0256 4.35357 9.90169 4.40487C9.77782 4.45618 9.67195 4.54306 9.59747 4.65454C9.52298 4.76602 9.48322 4.89708 9.48322 5.03115C9.48322 5.21093 9.55464 5.38335 9.68177 5.51048C9.80889 5.6376 9.98131 5.70902 10.1611 5.70902ZM12.5676 5.70902C12.7016 5.70902 12.8327 5.66926 12.9442 5.59478C13.0556 5.52029 13.1425 5.41442 13.1938 5.29056C13.2451 5.16669 13.2586 5.03039 13.2324 4.8989C13.2062 4.7674 13.1417 4.64662 13.0469 4.55182C12.9521 4.45701 12.8313 4.39245 12.6998 4.3663C12.5683 4.34014 12.432 4.35357 12.3081 4.40487C12.1843 4.45618 12.0784 4.54306 12.0039 4.65454C11.9294 4.76602 11.8897 4.89708 11.8897 5.03115C11.8897 5.21093 11.9611 5.38335 12.0882 5.51048C12.2153 5.6376 12.3878 5.70902 12.5676 5.70902Z" fill="#063164"/>
</svg>
