<svg width="20" height="19" viewBox="0 0 20 19" fill="none" xmlns="http://www.w3.org/2000/svg">
<path d="M15.4167 0H4.58333C3.36816 0.00132347 2.20314 0.484634 1.34389 1.34389C0.484634 2.20314 0.00132347 3.36816 0 4.58333L0 13.75C0.00132347 14.9652 0.484634 16.1302 1.34389 16.9894C2.20314 17.8487 3.36816 18.332 4.58333 18.3333H15.4167C16.6318 18.332 17.7969 17.8487 18.6561 16.9894C19.5154 16.1302 19.9987 14.9652 20 13.75V4.58333C19.9987 3.36816 19.5154 2.20314 18.6561 1.34389C17.7969 0.484634 16.6318 0.00132347 15.4167 0ZM15.4167 2.5C15.9221 2.50168 16.4092 2.68879 16.7858 3.02583L11.3692 8.4425C11.0013 8.79389 10.5121 8.98996 10.0033 8.98996C9.49458 8.98996 9.0054 8.79389 8.6375 8.4425L3.22083 3.02583C3.59571 2.69031 4.08025 2.50331 4.58333 2.5H15.4167ZM15.4167 15.8333H4.58333C4.0308 15.8333 3.50089 15.6138 3.11019 15.2231C2.71949 14.8324 2.5 14.3025 2.5 13.75V5.8475L6.86583 10.2133C7.2773 10.625 7.76584 10.9515 8.30353 11.1743C8.84123 11.3971 9.41756 11.5118 9.99958 11.5118C10.5816 11.5118 11.1579 11.3971 11.6956 11.1743C12.2333 10.9515 12.7219 10.625 13.1333 10.2133L17.5 5.8475V13.75C17.5 14.3025 17.2805 14.8324 16.8898 15.2231C16.4991 15.6138 15.9692 15.8333 15.4167 15.8333Z" fill="#063164"/>
</svg>
