<svg width="19" height="20" viewBox="0 0 19 20" fill="none" xmlns="http://www.w3.org/2000/svg">
<path d="M9.04451 4.39623e-06C7.84064 -0.00149567 6.66766 0.380924 5.69601 1.09169C4.72437 1.80246 4.00468 2.80454 3.64153 3.95233C3.27837 5.10012 3.29068 6.3338 3.67666 7.47411C4.06264 8.61442 4.80218 9.60195 5.78781 10.2932C4.08219 10.9748 2.61955 12.1512 1.58809 13.6711C0.556637 15.1909 0.00355015 16.9846 0 18.8214C0.0139799 19.0486 0.11411 19.262 0.279976 19.4179C0.445843 19.5739 0.664954 19.6608 0.892639 19.6608C1.12032 19.6608 1.33943 19.5739 1.5053 19.4179C1.67117 19.262 1.7713 19.0486 1.78528 18.8214C1.78229 17.5022 2.13241 16.2063 2.7993 15.0682C3.46619 13.93 4.42555 12.9911 5.57779 12.3489C6.73003 11.7066 8.03316 11.3845 9.35192 11.4159C10.6707 11.4472 11.957 11.831 13.0774 12.5273C13.1776 12.5894 13.289 12.6311 13.4053 12.6501C13.5215 12.6691 13.6404 12.665 13.7551 12.638C13.8698 12.6111 13.9781 12.5618 14.0737 12.493C14.1694 12.4242 14.2505 12.3372 14.3126 12.2371C14.3746 12.1369 14.4163 12.0255 14.4353 11.9092C14.4543 11.793 14.4502 11.6741 14.4233 11.5594C14.3963 11.4447 14.3471 11.3364 14.2783 11.2408C14.2095 11.1451 14.1225 11.0639 14.0224 11.0019C13.5037 10.6898 12.9555 10.4298 12.3856 10.2257C13.7929 9.19638 14.7142 7.53934 14.7142 5.6697C14.7142 2.55474 12.1595 4.39623e-06 9.04451 4.39623e-06ZM9.04451 1.78866C11.1943 1.78866 12.9255 3.51994 12.9255 5.6697C12.9255 7.81945 11.1943 9.54736 9.04451 9.54736C6.89475 9.54736 5.16684 7.8262 5.16684 5.6697C5.16684 3.51994 6.89137 1.78866 9.04451 1.78866ZM18.0789 12.5071C17.9339 12.5112 17.7921 12.5505 17.6657 12.6217C17.5393 12.6928 17.4321 12.7936 17.3533 12.9154L14.2755 17.5288L12.3451 16.2362C12.2474 16.1641 12.136 16.1125 12.0178 16.0847C11.8995 16.0568 11.7769 16.0533 11.6572 16.0742C11.5376 16.0951 11.4234 16.1401 11.3217 16.2065C11.2199 16.2728 11.1327 16.3591 11.0653 16.4601C10.9978 16.5612 10.9516 16.6748 10.9294 16.7942C10.9071 16.9137 10.9094 17.0363 10.936 17.1549C10.9625 17.2734 11.0129 17.3853 11.084 17.4838C11.1551 17.5823 11.2454 17.6653 11.3495 17.7279L14.0325 19.5132C14.2299 19.6441 14.4712 19.6913 14.7034 19.6445C14.9356 19.5976 15.1398 19.4606 15.271 19.2635L18.845 13.9042C18.9378 13.7679 18.991 13.6087 18.999 13.444C19.0069 13.2793 18.9691 13.1156 18.8899 12.971C18.8106 12.8264 18.6929 12.7066 18.5498 12.6247C18.4067 12.5429 18.2437 12.5021 18.0789 12.5071Z" fill="#063164"/>
</svg>
