<svg width="26" height="29" viewBox="0 0 26 29" fill="none" xmlns="http://www.w3.org/2000/svg">
<path fill-rule="evenodd" clip-rule="evenodd" d="M18.7778 17.3333C20.6389 17.3334 22.4281 18.052 23.7723 19.3392C25.1166 20.6263 25.912 22.3828 25.9928 24.2421L26 24.5556V27.4444C25.9996 27.8126 25.8586 28.1667 25.6059 28.4344C25.3532 28.7021 25.0077 28.8632 24.6402 28.8848C24.2727 28.9064 23.9108 28.7868 23.6285 28.5505C23.3461 28.3142 23.1647 27.979 23.1212 27.6134L23.1111 27.4444V24.5556C23.1112 23.4503 22.6889 22.3867 21.9306 21.5825C21.1723 20.7783 20.1354 20.2943 19.032 20.2294L18.7778 20.2222H7.22222C6.11692 20.2222 5.05337 20.6445 4.24918 21.4027C3.44499 22.161 2.96096 23.1979 2.89611 24.3013L2.88889 24.5556V27.4444C2.88848 27.8126 2.74751 28.1667 2.49478 28.4344C2.24204 28.7021 1.89662 28.8632 1.5291 28.8848C1.16157 28.9064 0.799674 28.7868 0.517353 28.5505C0.235032 28.3142 0.0535941 27.979 0.0101111 27.6134L0 27.4444V24.5556C0.000107528 22.6944 0.718671 20.9052 2.00584 19.561C3.29301 18.2168 5.04942 17.4213 6.90878 17.3406L7.22222 17.3333H18.7778ZM13 0C14.9155 0 16.7525 0.760911 18.1069 2.11534C19.4613 3.46977 20.2222 5.30677 20.2222 7.22222C20.2222 9.13768 19.4613 10.9747 18.1069 12.3291C16.7525 13.6835 14.9155 14.4444 13 14.4444C11.0845 14.4444 9.24755 13.6835 7.89312 12.3291C6.53869 10.9747 5.77778 9.13768 5.77778 7.22222C5.77778 5.30677 6.53869 3.46977 7.89312 2.11534C9.24755 0.760911 11.0845 0 13 0ZM13 2.88889C12.4309 2.88889 11.8674 3.00097 11.3417 3.21874C10.816 3.43652 10.3383 3.75571 9.93587 4.15809C9.53348 4.56048 9.21429 5.03818 8.99652 5.56393C8.77875 6.08967 8.66667 6.65316 8.66667 7.22222C8.66667 7.79128 8.77875 8.35477 8.99652 8.88052C9.21429 9.40626 9.53348 9.88397 9.93587 10.2864C10.3383 10.6887 10.816 11.0079 11.3417 11.2257C11.8674 11.4435 12.4309 11.5556 13 11.5556C14.1493 11.5556 15.2515 11.099 16.0641 10.2864C16.8768 9.4737 17.3333 8.37149 17.3333 7.22222C17.3333 6.07295 16.8768 4.97075 16.0641 4.15809C15.2515 3.34544 14.1493 2.88889 13 2.88889Z" fill="#063164"/>
</svg>
