<svg width="18" height="18" viewBox="0 0 18 18" fill="none" xmlns="http://www.w3.org/2000/svg">
<path d="M17.1975 18H11.3503C10.9299 18 10.586 17.6551 10.586 17.2336V13.5934C10.586 12.6738 9.85987 11.9457 8.94268 11.9457C8.02548 11.9457 7.29936 12.6738 7.29936 13.5934V17.2336C7.29936 17.6551 6.95541 18 6.53503 18H0.764331C0.343949 18 0 17.6551 0 17.2336V7.42416C0 6.73443 0.343949 6.08302 0.878981 5.69984L8.56051 0.143693C8.82803 -0.0478978 9.17198 -0.0478978 9.43949 0.143693L17.121 5.69984C17.6561 6.08302 18 6.73443 18 7.42416V17.272C17.9618 17.6551 17.6178 18 17.1975 18ZM12.1146 16.5056H16.4713V7.42416C16.4713 7.23257 16.3567 7.04098 16.2038 6.92602L8.98089 1.67642L1.75796 6.88771C1.6051 7.00266 1.49045 7.19425 1.49045 7.38584V16.4673H5.84713V13.5934C5.84713 11.8691 7.26115 10.4513 8.98089 10.4513C10.7006 10.4513 12.1146 11.8691 12.1146 13.5934V16.5056Z" fill="#063164"/>
</svg>
