<svg width="18" height="19" viewBox="0 0 18 19" fill="none" xmlns="http://www.w3.org/2000/svg">
<path d="M3.62905 2.24149V7.41909H1V2.24149C1 1.55585 1.58855 1 2.31452 1C2.67751 1 3.00614 1.13896 3.24402 1.36363C3.48191 1.5883 3.62905 1.89867 3.62905 2.24149Z" stroke="#063164" stroke-width="1.3" stroke-miterlimit="10" stroke-linecap="round" stroke-linejoin="round"/>
<path d="M16.7593 2.23444V18L15.118 17.1306L13.4767 18L11.8354 17.1306L10.1941 18L8.55284 17.1306L6.91155 18L5.27026 17.1306L3.62898 18V2.24149C3.62898 1.89867 3.48184 1.5883 3.24396 1.36363C3.00607 1.13896 2.67744 1 2.31445 1H15.4522C16.1741 1 16.7593 1.55268 16.7593 2.23444Z" stroke="#063164" stroke-width="1.3" stroke-miterlimit="10" stroke-linecap="round" stroke-linejoin="round"/>
<path d="M11.4363 4.10923C11.4363 4.10923 10.6724 3.5028 9.77164 3.75907C8.99623 3.97968 8.8461 4.78514 9.3234 5.18855C9.37733 5.23412 9.44014 5.26918 9.50646 5.29648C9.68792 5.37114 10.1573 5.56075 10.6657 5.73788C12.2334 6.28403 11.5581 7.71644 10.296 7.71644C9.66402 7.71644 9.13362 7.45506 8.81257 7.12045M10.1948 3.11621V3.66063M10.1948 7.75171V8.29613M8.11523 10.4174H14.5192M8.11523 12.5336H14.5192M8.11523 14.6498H14.5192" stroke="#063164" stroke-width="1.3" stroke-miterlimit="10" stroke-linecap="round" stroke-linejoin="round"/>
</svg>
