<svg width="18" height="18" viewBox="0 0 18 18" fill="none" xmlns="http://www.w3.org/2000/svg">
<path d="M17.706 4.884L15 3.258V1.8C15 1.32261 14.8104 0.864773 14.4728 0.527208C14.1352 0.189642 13.6774 0 13.2 0H4.8C4.32261 0 3.86477 0.189642 3.52721 0.527208C3.18964 0.864773 3 1.32261 3 1.8V3.258L0.294 4.884C0.204434 4.9371 0.130229 5.0126 0.0786815 5.10307C0.027134 5.19355 1.81606e-05 5.29587 0 5.4V16.2C0 16.6774 0.189642 17.1352 0.527208 17.4728C0.864773 17.8104 1.32261 18 1.8 18H16.2C16.6774 18 17.1352 17.8104 17.4728 17.4728C17.8104 17.1352 18 16.6774 18 16.2V5.4C18 5.29587 17.9729 5.19355 17.9213 5.10307C17.8698 5.0126 17.7956 4.9371 17.706 4.884ZM1.2 6.702L6.18 10.968L1.2 15.954V6.702ZM7.092 11.754L7.8 12.384C8.12604 12.6629 8.54097 12.8161 8.97 12.8161C9.39904 12.8161 9.81396 12.6629 10.14 12.384L10.878 11.754L15.954 16.8H2.046L7.092 11.754ZM11.82 10.968L16.8 6.702V15.954L11.82 10.968ZM16.374 5.484L14.994 6.684V4.662L16.374 5.484ZM4.8 1.2H13.2C13.3591 1.2 13.5117 1.26321 13.6243 1.37574C13.7368 1.48826 13.8 1.64087 13.8 1.8V7.698L9.39 11.478C9.28132 11.571 9.14301 11.622 9 11.622C8.85699 11.622 8.71868 11.571 8.61 11.478L4.2 7.698V1.8C4.2 1.64087 4.26321 1.48826 4.37574 1.37574C4.48826 1.26321 4.64087 1.2 4.8 1.2ZM3 6.666L1.62 5.466L3 4.662V6.666Z" fill="#063164"/>
<path d="M6.00002 4.2H9.75002C9.90915 4.2 10.0618 4.13679 10.1743 4.02426C10.2868 3.91174 10.35 3.75913 10.35 3.6C10.35 3.44087 10.2868 3.28826 10.1743 3.17574C10.0618 3.06321 9.90915 3 9.75002 3H6.00002C5.84089 3 5.68828 3.06321 5.57576 3.17574C5.46324 3.28826 5.40002 3.44087 5.40002 3.6C5.40002 3.75913 5.46324 3.91174 5.57576 4.02426C5.68828 4.13679 5.84089 4.2 6.00002 4.2ZM6.00002 7.2H12C12.1592 7.2 12.3118 7.13679 12.4243 7.02426C12.5368 6.91174 12.6 6.75913 12.6 6.6C12.6 6.44087 12.5368 6.28826 12.4243 6.17574C12.3118 6.06321 12.1592 6 12 6H6.00002C5.84089 6 5.68828 6.06321 5.57576 6.17574C5.46324 6.28826 5.40002 6.44087 5.40002 6.6C5.40002 6.75913 5.46324 6.91174 5.57576 7.02426C5.68828 7.13679 5.84089 7.2 6.00002 7.2Z" fill="#063164"/>
</svg>
