<svg width="20" height="21" viewBox="0 0 20 21" fill="none" xmlns="http://www.w3.org/2000/svg">
<path fill-rule="evenodd" clip-rule="evenodd" d="M6.70394 18.9733L6.922 19.3605L6.92246 19.3613C7.13188 19.7356 6.99907 20.2131 6.62873 20.4233L5.79231 20.8996C5.79198 20.8998 5.79165 20.9 5.7913 20.9002C5.41885 21.1106 4.94359 20.9771 4.73434 20.6049L2.27473 16.2379C2.06342 15.8634 2.19627 15.3853 2.56708 15.1749L3.40446 14.6985L3.40476 14.6983C3.77539 14.4881 4.25082 14.6202 4.46188 14.9926L4.46231 14.9934L4.63536 15.3006L6.79015 14.047C7.45903 13.6584 8.143 13.4075 8.87765 13.6472C9.58062 13.8762 10.7282 14.3702 11.8994 14.5828C11.9143 14.5856 11.9289 14.5892 11.9433 14.5939C12.5562 14.7933 12.9278 15.4164 12.7605 16.0417C12.744 16.1037 12.7233 16.1646 12.6986 16.2238C12.7957 16.1895 12.8894 16.1459 12.9783 16.0936L15.9606 14.3482C17.0587 13.7055 17.7916 13.7817 18.206 14.0611C18.5678 14.3049 18.7361 14.7209 18.7254 15.1296C18.7144 15.543 18.5172 15.9372 18.1946 16.1368L12.783 19.4847C12.2038 19.8438 11.5695 19.9283 10.9123 19.7521L10.9119 19.752L7.12118 18.7312L6.70394 18.9733ZM4.96744 15.8902L6.37186 18.3837L6.90498 18.0744C6.98242 18.0295 7.07445 18.0173 7.16083 18.0405L11.0861 19.0976C11.5577 19.224 12.0133 19.1659 12.4289 18.9082L12.4292 18.908L17.8411 15.56C17.9814 15.4731 18.0467 15.2914 18.0514 15.1116C18.0654 14.584 17.5375 14.2092 16.3 14.9336L13.3177 16.6789C12.8311 16.9638 12.321 17.0429 11.7651 16.954L11.7639 16.9538L11.3938 16.8933C11.3893 16.8925 11.3847 16.8917 11.3802 16.8908L11.3797 16.8907C10.7059 16.7517 10.081 16.5472 9.38747 16.36C9.2078 16.3114 9.10115 16.1255 9.14944 15.9449C9.19772 15.7644 9.38279 15.6572 9.56246 15.7057C10.2376 15.888 10.8462 16.088 11.5015 16.2242C11.8104 16.258 12.0383 16.1322 12.1094 15.866L12.1094 15.8658C12.1812 15.5976 12.0132 15.3386 11.7545 15.2449C10.5583 15.0238 9.38772 14.5255 8.66962 14.2916L8.66946 14.2915C8.12366 14.1134 7.62467 14.3447 7.12771 14.6335L4.96744 15.8902ZM3.87593 15.3277L3.87559 15.3271C3.84749 15.2784 3.78513 15.2605 3.73633 15.2882L2.89924 15.7644L2.89895 15.7645C2.85036 15.7921 2.83359 15.8548 2.86128 15.9039L2.86136 15.9041L5.32105 20.2712L5.32122 20.2715C5.34882 20.3206 5.41161 20.3374 5.46074 20.3098L6.29631 19.8339L6.29673 19.8337C6.34561 19.8059 6.36242 19.7428 6.33487 19.6934L3.87593 15.3277ZM3.59749 15.7667C3.78732 15.7384 3.96357 15.8701 3.99185 16.0608C4.01894 16.2516 3.8879 16.4298 3.69803 16.4571C3.5082 16.4854 3.33194 16.3526 3.30371 16.1619C3.27658 15.9711 3.40766 15.794 3.59749 15.7667ZM6.19636 4.43931V5.61735C6.19636 6.15108 5.76509 6.58447 5.23387 6.58447C4.70265 6.58447 4.27138 6.15108 4.27138 5.61735V4.43931C3.97668 4.4366 3.68699 4.29861 3.50062 4.0409C3.18838 3.60908 3.28378 3.00375 3.71358 2.69002L4.66814 1.99316C4.83258 1.87311 5.03062 1.80844 5.23387 1.80844C5.43713 1.80844 5.63517 1.87311 5.7996 1.99316L6.75417 2.69002C7.18392 3.00375 7.27936 3.60908 6.96713 4.0409C6.78076 4.29861 6.49102 4.4366 6.19636 4.43931ZM6.03696 3.71895C6.09883 3.75734 6.17286 3.77082 6.2442 3.75668C6.31555 3.74253 6.37894 3.70182 6.42167 3.6427C6.46658 3.58053 6.4851 3.50299 6.47314 3.42712C6.46119 3.35124 6.41974 3.28324 6.35791 3.23806L5.40331 2.5412C5.35405 2.50524 5.29473 2.48588 5.23385 2.48588C5.17297 2.48588 5.11365 2.50524 5.0644 2.5412L4.10983 3.23806C4.04959 3.28216 4.00869 3.34798 3.9957 3.42172C3.98271 3.49547 3.99864 3.5714 4.04015 3.63359C4.08167 3.69579 4.14553 3.73942 4.21836 3.75533C4.29119 3.77125 4.36732 3.75821 4.43079 3.71895C4.48183 3.6871 4.54043 3.66954 4.60049 3.6681C4.66056 3.66665 4.71992 3.68137 4.77243 3.71073C4.82493 3.74008 4.86867 3.78301 4.89911 3.83506C4.92956 3.88711 4.9456 3.9464 4.94557 4.00677V5.61735C4.94557 5.77723 5.07476 5.90704 5.23387 5.90704C5.39298 5.90704 5.52217 5.77723 5.52217 5.61735V4.00677C5.52216 3.9464 5.53821 3.88713 5.56866 3.83508C5.5991 3.78304 5.64284 3.74012 5.69534 3.71077C5.74784 3.68141 5.80719 3.66669 5.86726 3.66813C5.92732 3.66957 5.98591 3.68711 6.03696 3.71895ZM13.3951 7.30906L17.2995 11.2322C17.3308 11.2637 17.3557 11.301 17.3726 11.3421C17.3896 11.3832 17.3983 11.4272 17.3983 11.4717C17.3983 11.5162 17.3896 11.5603 17.3726 11.6013C17.3557 11.6424 17.3308 11.6798 17.2995 11.7112C16.2141 12.8019 14.7144 13.4766 13.058 13.4766C9.74521 13.4766 7.05966 10.7781 7.05966 7.44933C7.05966 4.12062 9.74521 1.42217 13.058 1.42217C13.1474 1.42217 13.2332 1.45786 13.2964 1.52138C13.3596 1.5849 13.3951 1.67105 13.3951 1.76089V7.30906ZM12.721 7.44933V2.11014C9.93752 2.28488 7.73385 4.60854 7.73385 7.44933C7.73385 10.4039 10.1176 12.7991 13.058 12.7991C14.407 12.7991 15.6388 12.2951 16.5769 11.4642L12.8197 7.68884C12.7884 7.65739 12.7635 7.62005 12.7466 7.57895C12.7297 7.53785 12.7209 7.49381 12.721 7.44933ZM20 6.9753C20 8.63965 19.3286 10.1465 18.2431 11.2372C18.1799 11.3007 18.0942 11.3364 18.0048 11.3364C17.9154 11.3364 17.8296 11.3007 17.7664 11.2372L13.7632 7.21481C13.7161 7.16744 13.684 7.10709 13.671 7.04138C13.658 6.97568 13.6647 6.90757 13.6902 6.84568C13.7157 6.78378 13.7589 6.73088 13.8143 6.69366C13.8698 6.65645 13.9349 6.63658 14.0016 6.63658H19.6629C19.7523 6.63658 19.838 6.67227 19.9013 6.73579C19.9645 6.79931 20 6.88547 20 6.9753ZM19.3153 7.31401H14.8154L17.9972 10.5111C18.7548 9.64749 19.2393 8.53639 19.3153 7.31401ZM14.0016 0C17.3144 0 20 2.69845 20 6.02715C20 6.11699 19.9645 6.20314 19.9013 6.26666C19.838 6.33018 19.7523 6.36587 19.6629 6.36587H14.0016C13.9122 6.36587 13.8265 6.33018 13.7633 6.26666C13.7 6.20314 13.6645 6.11699 13.6645 6.02715V0.338714C13.6645 0.248881 13.7 0.162728 13.7633 0.0992069C13.8265 0.0356858 13.9122 0 14.0016 0ZM14.3387 0.68797V5.68848H19.3153C19.1484 3.00367 17.0106 0.855718 14.3387 0.68797ZM2.87944 7.96896V9.14696C2.87944 9.68073 2.44817 10.1141 1.91695 10.1141C1.38573 10.1141 0.954459 9.68073 0.954459 9.14696V7.96896C0.659796 7.96625 0.370063 7.82822 0.183734 7.5705C-0.128541 7.13869 -0.0331016 6.5334 0.396652 6.21967L1.35122 5.52277C1.51566 5.40273 1.7137 5.33808 1.91695 5.33808C2.1202 5.33808 2.31824 5.40273 2.48268 5.52277L3.43729 6.21967C3.86704 6.5334 3.96244 7.13869 3.6502 7.5705C3.46383 7.82822 3.17414 7.96625 2.87944 7.96896ZM2.72003 7.24856C2.78191 7.28693 2.85594 7.30041 2.92728 7.28628C2.99863 7.27214 3.06203 7.23145 3.10478 7.17234C3.14968 7.11017 3.16818 7.03263 3.15622 6.95676C3.14426 6.88089 3.10281 6.81289 3.04099 6.76771L2.08642 6.07085C2.03717 6.03488 1.97785 6.01551 1.91697 6.01551C1.85608 6.01551 1.79676 6.03488 1.74752 6.07085L0.792906 6.76771C0.73249 6.81173 0.691419 6.87759 0.678331 6.95141C0.665243 7.02524 0.681157 7.10129 0.722728 7.16357C0.764299 7.22585 0.828286 7.26951 0.901232 7.28536C0.974177 7.30121 1.0504 7.28801 1.11386 7.24856C1.16491 7.21674 1.2235 7.1992 1.28356 7.19777C1.34362 7.19634 1.40296 7.21106 1.45546 7.24041C1.50795 7.26976 1.55169 7.31268 1.58214 7.36471C1.61259 7.41675 1.62865 7.47601 1.62865 7.53638V9.14696C1.62865 9.30683 1.75784 9.43664 1.91695 9.43664C2.07606 9.43664 2.20525 9.30683 2.20525 9.14696V7.53638C2.20525 7.47601 2.22131 7.41675 2.25176 7.36471C2.28221 7.31268 2.32594 7.26976 2.37844 7.24041C2.43093 7.21106 2.49028 7.19634 2.55034 7.19777C2.6104 7.1992 2.66898 7.21674 2.72003 7.24856ZM6.40928 11.3314V12.5095C6.40928 13.0432 5.97801 13.4766 5.44679 13.4766C4.91557 13.4766 4.4843 13.0432 4.4843 12.5095V11.3314C4.18964 11.3287 3.89991 11.1907 3.71358 10.933C3.4013 10.5012 3.49674 9.89586 3.92649 9.58212L4.88106 8.88526C5.0455 8.76523 5.24354 8.70058 5.44679 8.70058C5.65004 8.70058 5.84808 8.76523 6.01252 8.88526L6.96713 9.58212C7.39688 9.89586 7.49228 10.5012 7.18005 10.933C6.99367 11.1907 6.70398 11.3287 6.40928 11.3314ZM6.24988 10.611C6.31176 10.6494 6.38578 10.6629 6.45713 10.6488C6.52847 10.6346 6.59187 10.5939 6.63463 10.5348C6.67953 10.4727 6.69803 10.3951 6.68606 10.3193C6.6741 10.2434 6.63266 10.1754 6.57083 10.1302L5.61626 9.4333C5.56701 9.39734 5.50769 9.37798 5.44681 9.37798C5.38593 9.37798 5.32661 9.39734 5.27736 9.4333L4.32279 10.1302C4.26246 10.1743 4.22147 10.2401 4.20843 10.3139C4.19539 10.3877 4.21131 10.4636 4.25284 10.5259C4.29438 10.5881 4.3583 10.6318 4.43119 10.6476C4.50407 10.6635 4.58024 10.6504 4.6437 10.611C4.69475 10.5792 4.75334 10.5616 4.81341 10.5602C4.87348 10.5588 4.93284 10.5735 4.98535 10.6028C5.03785 10.6322 5.08159 10.6751 5.11203 10.7272C5.14248 10.7792 5.15852 10.8385 5.15849 10.8989V12.5095C5.15849 12.6693 5.28768 12.7991 5.44679 12.7991C5.6059 12.7991 5.73509 12.6693 5.73509 12.5095V10.8989C5.73508 10.8385 5.75113 10.7792 5.78157 10.7272C5.81202 10.6751 5.85576 10.6322 5.90826 10.6029C5.96076 10.5735 6.02011 10.5588 6.08017 10.5602C6.14024 10.5617 6.19883 10.5792 6.24988 10.611Z" fill="#063164"/>
</svg>
