<svg width="17" height="18" viewBox="0 0 17 18" fill="none" xmlns="http://www.w3.org/2000/svg">
<path d="M16.1449 8.45024V3.31918C16.1448 3.23556 16.126 3.15302 16.09 3.07755C16.054 3.00209 16.0016 2.9356 15.9366 2.88292C15.8718 2.82994 15.796 2.79208 15.7146 2.77212C15.6333 2.75216 15.5486 2.75059 15.4666 2.76752C14.9973 2.86607 14.5191 2.91512 14.0396 2.91388C12.973 2.91701 11.92 2.67438 10.9623 2.20481C10.0046 1.73524 9.16798 1.05136 8.51729 0.206214C8.4626 0.141597 8.39448 0.0896746 8.31768 0.0540616C8.24088 0.0184485 8.15724 0 8.07258 0C7.98793 0 7.90429 0.0184485 7.82749 0.0540616C7.75068 0.0896746 7.68257 0.141597 7.62787 0.206214C6.97719 1.05136 6.14055 1.73524 5.18287 2.20481C4.22518 2.67438 3.17219 2.91701 2.10559 2.91388C1.62611 2.91512 1.14782 2.86607 0.678576 2.76752C0.596577 2.75059 0.511834 2.75216 0.43052 2.77212C0.349206 2.79208 0.273369 2.82994 0.208535 2.88292C0.143593 2.9356 0.0912049 3.00209 0.0551769 3.07755C0.0191489 3.15302 0.000386379 3.23556 0.000252903 3.31918V8.45024C-0.0103927 9.90554 0.31518 11.3436 0.951594 12.6525C2.16188 15.059 4.23063 16.6464 7.88119 17.9665C8.00487 18.0112 8.1403 18.0112 8.26398 17.9665C9.68961 17.4856 11.045 16.8174 12.2945 15.9793V16.03C12.291 16.1072 12.3035 16.1842 12.3311 16.2564C12.3587 16.3285 12.4009 16.3942 12.4549 16.4494L12.9419 16.9448C13.0421 17.0458 13.1768 17.1051 13.319 17.1108L15.3399 17.2009H15.3624C15.4378 17.2009 15.5124 17.1858 15.5818 17.1565C15.6513 17.1271 15.7141 17.0842 15.7666 17.0301C15.8191 16.976 15.8602 16.9119 15.8875 16.8417C15.9147 16.7714 15.9276 16.6964 15.9254 16.6211L15.8606 14.6227C15.8572 14.4803 15.7998 14.3445 15.7002 14.2427L14.8108 13.342C14.9459 13.1225 15.0754 12.8973 15.1936 12.6609C15.832 11.3498 16.1577 9.90847 16.1449 8.45024ZM13.5836 16.0075L13.4204 15.8442L13.4626 14.9042C13.4656 14.8284 13.4533 14.7527 13.4264 14.6818C13.3994 14.6109 13.3585 14.5462 13.3059 14.4915C13.2533 14.4368 13.1902 14.3933 13.1204 14.3636C13.0506 14.3339 12.9755 14.3187 12.8997 14.3187H12.7758L11.9483 14.3412L11.9877 13.404C11.9908 13.3282 11.9784 13.2525 11.9515 13.1816C11.9246 13.1107 11.8836 13.046 11.831 12.9913C11.7784 12.9366 11.7154 12.8931 11.6455 12.8634C11.5757 12.8337 11.5007 12.8185 11.4248 12.8185L10.4903 12.8439L9.86268 12.2106C9.77993 12.1213 9.67047 12.0612 9.55071 12.0394C9.43096 12.0176 9.30735 12.0352 9.19843 12.0895C8.95563 12.2014 8.70058 12.2846 8.43848 12.3372C8.20427 12.3861 7.96564 12.4106 7.72638 12.4104C6.94805 12.4122 6.1904 12.1599 5.56854 11.6918C4.94667 11.2237 4.49458 10.5655 4.28094 9.81701C4.0673 9.06857 4.10378 8.27084 4.38485 7.54502C4.66592 6.81921 5.17621 6.20496 5.8382 5.7956C6.5002 5.38624 7.27771 5.20414 8.05264 5.27696C8.82756 5.34978 9.55754 5.67354 10.1317 6.19906C10.7058 6.72457 11.0928 7.42313 11.2337 8.1886C11.3746 8.95407 11.2619 9.74463 10.9125 10.4402C10.8591 10.5455 10.8401 10.6649 10.8583 10.7816C10.8765 10.8983 10.9309 11.0063 11.0139 11.0903L13.6821 13.7783L13.7046 13.8008L14.7432 14.8535L14.777 16.0497L13.5836 16.0075ZM15.0191 8.45024C15.0269 9.73169 14.7379 10.9976 14.1747 12.1486C14.1128 12.2697 14.048 12.3851 13.9833 12.5033L12.0806 10.5725C12.4504 9.63898 12.511 8.61149 12.2535 7.64101C11.996 6.67052 11.434 5.80824 10.65 5.1809C9.86609 4.55356 8.90157 4.19424 7.89824 4.15578C6.89492 4.11731 5.90571 4.40171 5.07602 4.96719C4.24634 5.53266 3.61993 6.34938 3.28888 7.2973C2.95783 8.24522 2.93959 9.27434 3.23685 10.2334C3.53411 11.1924 4.13118 12.0308 4.94032 12.6254C5.74945 13.2199 6.72795 13.5391 7.73201 13.5363C8.04798 13.5368 8.36312 13.5038 8.6721 13.4377C8.88526 13.3961 9.09506 13.3387 9.29976 13.266L9.83453 13.8065C9.88826 13.862 9.95317 13.9056 10.025 13.9342C10.0968 13.9629 10.1739 13.9759 10.2511 13.9725H10.814L10.7887 14.5354C10.7844 14.613 10.7967 14.6905 10.8248 14.7628C10.853 14.8352 10.8963 14.9006 10.9519 14.9548L11.2812 15.2898C10.271 15.9205 9.19508 16.4396 8.07258 16.8378C4.79637 15.6275 3.00627 14.2596 1.95923 12.1486C1.39604 10.9976 1.10703 9.73169 1.11484 8.45024V3.98062C1.43984 4.0201 1.76694 4.03984 2.09433 4.03973C3.21836 4.04515 4.33106 3.81502 5.36073 3.36418C6.3904 2.91334 7.31419 2.25178 8.07258 1.42213C8.8297 2.25037 9.75167 2.9111 10.7793 3.3619C11.8069 3.81269 12.9174 4.04358 14.0396 4.03973C14.367 4.03984 14.6941 4.0201 15.0191 3.98062V8.45024Z" fill="#063164"/>
<path d="M6.89609 6.66602C6.57755 6.66602 6.26617 6.76051 6.00135 6.93754C5.73654 7.11457 5.53019 7.36618 5.40841 7.66053C5.28664 7.95487 5.25493 8.27873 5.31728 8.59111C5.37962 8.90348 5.53324 9.19035 5.75868 9.41539C5.98412 9.64044 6.27125 9.79355 6.58373 9.85535C6.89622 9.91715 7.22002 9.88487 7.51415 9.76258C7.80828 9.6403 8.05953 9.43351 8.2361 9.16838C8.41266 8.90325 8.50661 8.59171 8.50606 8.27317C8.50606 8.06188 8.46439 7.85266 8.38345 7.65749C8.30251 7.46231 8.18387 7.28502 8.03434 7.13574C7.8848 6.98647 7.7073 6.86815 7.51199 6.78755C7.31667 6.70695 7.10738 6.66565 6.89609 6.66602ZM6.89609 8.75728C6.80034 8.75728 6.70675 8.72889 6.62713 8.67569C6.54752 8.6225 6.48547 8.54689 6.44883 8.45843C6.41219 8.36997 6.4026 8.27263 6.42128 8.17872C6.43996 8.08481 6.48607 7.99855 6.55377 7.93085C6.62148 7.86314 6.70774 7.81703 6.80165 7.79835C6.89556 7.77967 6.9929 7.78926 7.08136 7.8259C7.16982 7.86254 7.24542 7.92459 7.29862 8.00421C7.35181 8.08382 7.38021 8.17742 7.38021 8.27317C7.38021 8.40156 7.3292 8.5247 7.23841 8.61549C7.14763 8.70628 7.02449 8.75728 6.89609 8.75728Z" fill="#063164"/>
</svg>
