<svg width="20" height="17" viewBox="0 0 20 17" fill="none" xmlns="http://www.w3.org/2000/svg">
<path d="M11.6667 6.66667C11.6667 6.98167 11.8925 7.24833 12.2033 7.3L14.7375 7.7225C15.2773 7.81085 15.768 8.08862 16.1215 8.50599C16.475 8.92336 16.6683 9.45303 16.6667 10C16.6667 11.3783 15.545 12.5 14.1667 12.5V13.3333H12.5V12.5C11.1217 12.5 10 11.3783 10 10H11.6667C11.6667 10.4592 12.04 10.8333 12.5 10.8333H14.1667C14.6267 10.8333 15 10.4592 15 10C15.0004 9.84788 14.9466 9.70058 14.8483 9.58452C14.7499 9.46846 14.6135 9.39123 14.4633 9.36667L11.9292 8.94417C11.3894 8.85581 10.8987 8.57804 10.5452 8.16068C10.1916 7.74331 9.99836 7.21364 10 6.66667C10 5.28833 11.1217 4.16667 12.5 4.16667V3.33333H14.1667V4.16667C15.545 4.16667 16.6667 5.28833 16.6667 6.66667H15C15 6.2075 14.6267 5.83333 14.1667 5.83333H12.5C12.04 5.83333 11.6667 6.2075 11.6667 6.66667ZM20 2.5V16.6667H0V2.5C0 1.12167 1.12167 0 2.5 0H17.5C18.8783 0 20 1.12167 20 2.5ZM18.3333 2.5C18.3333 2.04083 17.96 1.66667 17.5 1.66667H2.5C2.04 1.66667 1.66667 2.04083 1.66667 2.5V15H18.3333V2.5ZM3.33333 5.83333H8.33333V4.16667H3.33333V5.83333ZM3.33333 9.16667H8.33333V7.5H3.33333V9.16667ZM3.33333 12.5H8.33333V10.8333H3.33333V12.5Z" fill="#063164"/>
</svg>
