<svg width="20" height="19" viewBox="0 0 20 19" fill="none" xmlns="http://www.w3.org/2000/svg">
<path d="M19.9667 10.3904L18.4486 1.78043C18.2422 0.610613 17.1225 -0.17335 15.9529 0.0329521L2.93194 2.32895C1.76209 2.53521 0.978162 3.65473 1.18442 4.82455L1.29598 5.45728C0.534105 5.78963 0 6.54977 0 7.43272V15.9605C0 17.1483 0.966411 18.1147 2.15428 18.1147H15.08C16.2678 18.1147 17.2343 17.1483 17.2343 15.9605V13.0597L18.2192 12.886C18.7859 12.7861 19.2797 12.4715 19.6098 12.0001C19.9399 11.5288 20.0666 10.957 19.9667 10.3904ZM18.6473 11.3261C18.4973 11.5404 18.2727 11.6834 18.0152 11.7288L17.2343 11.8665V7.43268C17.2343 6.24481 16.2678 5.27839 15.08 5.27839H2.45768L2.34167 4.62048C2.29623 4.3629 2.35389 4.10306 2.5039 3.88877C2.65392 3.67451 2.87843 3.53151 3.13601 3.48607L16.157 1.19012C16.2133 1.18017 16.2703 1.17516 16.3275 1.17515C16.7935 1.17515 17.2077 1.50997 17.2914 1.98442L18.8095 10.5944C18.8549 10.852 18.7973 11.1119 18.6473 11.3261ZM15.08 16.9397H2.15428C1.61434 16.9397 1.17506 16.5004 1.17506 15.9605V11.7843H16.0592V15.9604C16.0592 16.5004 15.6199 16.9397 15.08 16.9397ZM2.15428 6.4535H15.08C15.6199 6.4535 16.0592 6.89277 16.0592 7.43272V7.94387H1.17506V7.43272C1.17506 6.89277 1.61434 6.4535 2.15428 6.4535ZM16.0592 9.11893V10.6093H1.17506V9.11893H16.0592Z" fill="#063164"/>
<path d="M19.9667 10.3904L18.4486 1.78043C18.2422 0.610613 17.1225 -0.17335 15.9529 0.0329521L2.93194 2.32895C1.76209 2.53521 0.978162 3.65473 1.18442 4.82455L1.29598 5.45728C0.534105 5.78963 0 6.54977 0 7.43272V15.9605C0 17.1483 0.966411 18.1147 2.15428 18.1147H15.08C16.2678 18.1147 17.2343 17.1483 17.2343 15.9605V13.0597L18.2192 12.886C18.7859 12.7861 19.2797 12.4715 19.6098 12.0001C19.9399 11.5288 20.0666 10.957 19.9667 10.3904ZM18.6473 11.3261C18.4973 11.5404 18.2727 11.6834 18.0152 11.7288L17.2343 11.8665V7.43268C17.2343 6.24481 16.2678 5.27839 15.08 5.27839H2.45768L2.34167 4.62048C2.29623 4.3629 2.35389 4.10306 2.5039 3.88877C2.65392 3.67451 2.87843 3.53151 3.13601 3.48607L16.157 1.19012C16.2133 1.18017 16.2703 1.17516 16.3275 1.17515C16.7935 1.17515 17.2077 1.50997 17.2914 1.98442L18.8095 10.5944C18.8549 10.852 18.7973 11.1119 18.6473 11.3261ZM15.08 16.9397H2.15428C1.61434 16.9397 1.17506 16.5004 1.17506 15.9605V11.7843H16.0592V15.9604C16.0592 16.5004 15.6199 16.9397 15.08 16.9397ZM2.15428 6.4535H15.08C15.6199 6.4535 16.0592 6.89277 16.0592 7.43272V7.94387H1.17506V7.43272C1.17506 6.89277 1.61434 6.4535 2.15428 6.4535ZM16.0592 9.11893V10.6093H1.17506V9.11893H16.0592Z" fill="#063164"/>
<path d="M19.9667 10.3904L18.4486 1.78043C18.2422 0.610613 17.1225 -0.17335 15.9529 0.0329521L2.93194 2.32895C1.76209 2.53521 0.978162 3.65473 1.18442 4.82455L1.29598 5.45728C0.534105 5.78963 0 6.54977 0 7.43272V15.9605C0 17.1483 0.966411 18.1147 2.15428 18.1147H15.08C16.2678 18.1147 17.2343 17.1483 17.2343 15.9605V13.0597L18.2192 12.886C18.7859 12.7861 19.2797 12.4715 19.6098 12.0001C19.9399 11.5288 20.0666 10.957 19.9667 10.3904ZM18.6473 11.3261C18.4973 11.5404 18.2727 11.6834 18.0152 11.7288L17.2343 11.8665V7.43268C17.2343 6.24481 16.2678 5.27839 15.08 5.27839H2.45768L2.34167 4.62048C2.29623 4.3629 2.35389 4.10306 2.5039 3.88877C2.65392 3.67451 2.87843 3.53151 3.13601 3.48607L16.157 1.19012C16.2133 1.18017 16.2703 1.17516 16.3275 1.17515C16.7935 1.17515 17.2077 1.50997 17.2914 1.98442L18.8095 10.5944C18.8549 10.852 18.7973 11.1119 18.6473 11.3261ZM15.08 16.9397H2.15428C1.61434 16.9397 1.17506 16.5004 1.17506 15.9605V11.7843H16.0592V15.9604C16.0592 16.5004 15.6199 16.9397 15.08 16.9397ZM2.15428 6.4535H15.08C15.6199 6.4535 16.0592 6.89277 16.0592 7.43272V7.94387H1.17506V7.43272C1.17506 6.89277 1.61434 6.4535 2.15428 6.4535ZM16.0592 9.11893V10.6093H1.17506V9.11893H16.0592Z" fill="#063164"/>
<path d="M19.9667 10.3904L18.4486 1.78043C18.2422 0.610613 17.1225 -0.17335 15.9529 0.0329521L2.93194 2.32895C1.76209 2.53521 0.978162 3.65473 1.18442 4.82455L1.29598 5.45728C0.534105 5.78963 0 6.54977 0 7.43272V15.9605C0 17.1483 0.966411 18.1147 2.15428 18.1147H15.08C16.2678 18.1147 17.2343 17.1483 17.2343 15.9605V13.0597L18.2192 12.886C18.7859 12.7861 19.2797 12.4715 19.6098 12.0001C19.9399 11.5288 20.0666 10.957 19.9667 10.3904ZM18.6473 11.3261C18.4973 11.5404 18.2727 11.6834 18.0152 11.7288L17.2343 11.8665V7.43268C17.2343 6.24481 16.2678 5.27839 15.08 5.27839H2.45768L2.34167 4.62048C2.29623 4.3629 2.35389 4.10306 2.5039 3.88877C2.65392 3.67451 2.87843 3.53151 3.13601 3.48607L16.157 1.19012C16.2133 1.18017 16.2703 1.17516 16.3275 1.17515C16.7935 1.17515 17.2077 1.50997 17.2914 1.98442L18.8095 10.5944C18.8549 10.852 18.7973 11.1119 18.6473 11.3261ZM15.08 16.9397H2.15428C1.61434 16.9397 1.17506 16.5004 1.17506 15.9605V11.7843H16.0592V15.9604C16.0592 16.5004 15.6199 16.9397 15.08 16.9397ZM2.15428 6.4535H15.08C15.6199 6.4535 16.0592 6.89277 16.0592 7.43272V7.94387H1.17506V7.43272C1.17506 6.89277 1.61434 6.4535 2.15428 6.4535ZM16.0592 9.11893V10.6093H1.17506V9.11893H16.0592Z" fill="#063164"/>
</svg>
