<svg width="20" height="18" viewBox="0 0 20 18" fill="none" xmlns="http://www.w3.org/2000/svg">
<path d="M4.5836 9C4.74778 9.00005 4.91035 9.03186 5.06202 9.09361C5.21369 9.15535 5.35149 9.24583 5.46754 9.35987C5.5836 9.47391 5.67565 9.60928 5.73843 9.75825C5.80121 9.90722 5.8335 10.0669 5.83344 10.2281C5.83339 10.3893 5.801 10.5489 5.73811 10.6979C5.67523 10.8468 5.58309 10.9821 5.46696 11.0961C5.35082 11.21 5.21296 11.3004 5.06125 11.3621C4.90954 11.4237 4.74695 11.4554 4.58276 11.4554C4.25117 11.4553 3.93321 11.3258 3.69882 11.0955C3.46443 10.8652 3.33281 10.5529 3.33292 10.2273C3.33303 9.90167 3.46486 9.58945 3.69941 9.35929C3.93396 9.12913 4.25201 8.99989 4.5836 9ZM19.6726 15.3311C18.966 16.3276 17.3653 18 14.5824 18C11.7994 18 10.1979 16.3276 9.49132 15.3311C9.27867 15.0346 9.16453 14.6808 9.16453 14.3182C9.16453 13.9555 9.27867 13.6018 9.49132 13.3053C10.1979 12.3087 11.7985 10.6364 14.5824 10.6364C17.3662 10.6364 18.9676 12.3079 19.6734 13.3053C19.8859 13.6018 20 13.9556 20 14.3182C20 14.6808 19.8859 15.0346 19.6734 15.3311H19.6726ZM18.3044 14.2405C17.6686 13.3429 16.5071 12.2735 14.5815 12.2735C12.6559 12.2735 11.4944 13.3437 10.8587 14.2413C10.8412 14.2636 10.8318 14.2909 10.8318 14.319C10.8318 14.3471 10.8412 14.3744 10.8587 14.3967C11.4952 15.2951 12.6568 16.3645 14.5824 16.3645C16.508 16.3645 17.6695 15.2943 18.3052 14.3967C18.3226 14.3742 18.332 14.3468 18.332 14.3186C18.332 14.2904 18.3226 14.2629 18.3052 14.2405H18.3044ZM7.49907 13.9099C7.49907 14.1269 7.41128 14.335 7.25502 14.4885C7.09876 14.6419 6.88683 14.7281 6.66584 14.7281H4.16615C1.86893 14.7281 0 12.8929 0 10.6372V4.09091C0.00154349 3.00626 0.441086 1.96647 1.22224 1.19958C2.00339 0.432695 3.06238 0.00129871 4.16698 0H15.8322C18.1294 0 19.9984 1.83518 19.9984 4.09091V9.81818C19.9984 10.0352 19.9106 10.2433 19.7543 10.3967C19.598 10.5502 19.3861 10.6364 19.1651 10.6364C18.9441 10.6364 18.7322 10.5502 18.5759 10.3967C18.4197 10.2433 18.3319 10.0352 18.3319 9.81818V5.72727H1.66729V10.6364C1.66729 11.9896 2.78882 13.0909 4.16698 13.0909H6.66667C6.88766 13.0909 7.09959 13.1771 7.25586 13.3305C7.41212 13.484 7.4999 13.6921 7.4999 13.9091L7.49907 13.9099ZM1.66729 4.09091H18.3319C18.3319 2.73764 17.2104 1.63636 15.8322 1.63636H4.16698C2.78882 1.63636 1.66729 2.73764 1.66729 4.09091ZM14.5824 13.0909C14.4156 13.0866 14.2496 13.1152 14.0942 13.1749C13.9388 13.2346 13.7972 13.3242 13.6777 13.4385C13.5582 13.5528 13.4631 13.6895 13.3982 13.8404C13.3333 13.9914 13.2999 14.1535 13.2998 14.3174C13.2998 14.4812 13.3331 14.6434 13.3979 14.7944C13.4627 14.9453 13.5576 15.082 13.6771 15.1964C13.7965 15.3108 13.9381 15.4005 14.0934 15.4603C14.2488 15.5202 14.4147 15.5488 14.5815 15.5446C14.9073 15.5365 15.217 15.4037 15.4445 15.1746C15.672 14.9455 15.7994 14.6382 15.7995 14.3182C15.7996 13.9982 15.6724 13.6908 15.4451 13.4615C15.2177 13.2323 14.9081 13.0993 14.5824 13.0909Z" fill="#063164"/>
</svg>
