<svg width="16" height="18" viewBox="0 0 16 18" fill="none" xmlns="http://www.w3.org/2000/svg">
<path d="M12.6666 8.00007C12.8434 8.00007 13.013 7.92983 13.138 7.80481C13.263 7.67978 13.3332 7.51022 13.3332 7.33341V4.0001C13.3332 3.46967 13.1225 2.96096 12.7475 2.58589C12.3724 2.21082 11.8637 2.00011 11.3333 2.00011H10.6666C10.5859 1.44068 10.3048 0.929571 9.87569 0.561731C9.44655 0.19389 8.89847 -0.00567033 8.33328 0.000122669H4.99997C4.4405 0.00237744 3.90047 0.205576 3.4783 0.572687C3.05612 0.939798 2.7799 1.44638 2.69998 2.00011H1.99999C1.46956 2.00011 0.960853 2.21082 0.585782 2.58589C0.210712 2.96096 0 3.46967 0 4.0001V15.3334C0 15.8638 0.210712 16.3725 0.585782 16.7476C0.960853 17.1226 1.46956 17.3333 1.99999 17.3333H5.99996C6.17677 17.3333 6.34634 17.2631 6.47136 17.1381C6.59638 17.0131 6.66662 16.8435 6.66662 16.6667C6.66662 16.4899 6.59638 16.3203 6.47136 16.1953C6.34634 16.0702 6.17677 16 5.99996 16H1.99999C1.82318 16 1.65361 15.9298 1.52859 15.8048C1.40356 15.6797 1.33332 15.5102 1.33332 15.3334V4.0001C1.33332 3.82329 1.40356 3.65372 1.52859 3.52869C1.65361 3.40367 1.82318 3.33343 1.99999 3.33343H2.89998C3.08862 3.73112 3.38589 4.06734 3.75748 4.30327C4.12907 4.5392 4.55981 4.66521 4.99997 4.66676H8.33328C8.77343 4.66521 9.20417 4.5392 9.57576 4.30327C9.94735 4.06734 10.2446 3.73112 10.4333 3.33343H11.3333C11.5101 3.33343 11.6796 3.40367 11.8047 3.52869C11.9297 3.65372 11.9999 3.82329 11.9999 4.0001V7.33341C11.9999 7.51022 12.0702 7.67978 12.1952 7.80481C12.3202 7.92983 12.4898 8.00007 12.6666 8.00007ZM8.33328 3.33343H4.99997C4.73475 3.33343 4.4804 3.22808 4.29286 3.04054C4.10533 2.85301 3.99997 2.59865 3.99997 2.33344C3.99997 2.06823 4.10533 1.81387 4.29286 1.62634C4.4804 1.4388 4.73475 1.33345 4.99997 1.33345H8.33328C8.59849 1.33345 8.85284 1.4388 9.04038 1.62634C9.22791 1.81387 9.33327 2.06823 9.33327 2.33344C9.33327 2.59865 9.22791 2.85301 9.04038 3.04054C8.85284 3.22808 8.59849 3.33343 8.33328 3.33343Z" fill="#063164"/>
<path d="M10.6666 6.66666C10.6666 6.48985 10.5964 6.32028 10.4713 6.19526C10.3463 6.07024 10.1767 6 9.99994 6H3.33332C3.15651 6 2.98694 6.07024 2.86192 6.19526C2.73689 6.32028 2.66666 6.48985 2.66666 6.66666C2.66666 6.84347 2.73689 7.01304 2.86192 7.13806C2.98694 7.26309 3.15651 7.33332 3.33332 7.33332H9.99994C10.1767 7.33332 10.3463 7.26309 10.4713 7.13806C10.5964 7.01304 10.6666 6.84347 10.6666 6.66666ZM8.66662 9.33331C8.66662 9.1565 8.59638 8.98693 8.47135 8.86191C8.34633 8.73689 8.17676 8.66665 7.99995 8.66665H3.33332C3.15651 8.66665 2.98694 8.73689 2.86192 8.86191C2.73689 8.98693 2.66666 9.1565 2.66666 9.33331C2.66666 9.51012 2.73689 9.67969 2.86192 9.80471C2.98694 9.92974 3.15651 9.99997 3.33332 9.99997H7.99995C8.17676 9.99997 8.34633 9.92974 8.47135 9.80471C8.59638 9.67969 8.66662 9.51012 8.66662 9.33331ZM3.33332 11.3333C3.15651 11.3333 2.98694 11.4035 2.86192 11.5286C2.73689 11.6536 2.66666 11.8231 2.66666 12C2.66666 12.1768 2.73689 12.3463 2.86192 12.4714C2.98694 12.5964 3.15651 12.6666 3.33332 12.6666H5.99997C6.17678 12.6666 6.34634 12.5964 6.47137 12.4714C6.59639 12.3463 6.66663 12.1768 6.66663 12C6.66663 11.8231 6.59639 11.6536 6.47137 11.5286C6.34634 11.4035 6.17678 11.3333 5.99997 11.3333H3.33332ZM11.6666 9.33331C10.8095 9.33331 9.97175 9.58745 9.25914 10.0636C8.54653 10.5398 7.99112 11.2165 7.66314 12.0083C7.33517 12.8001 7.24935 13.6714 7.41655 14.512C7.58376 15.3526 7.99646 16.1247 8.60249 16.7307C9.20851 17.3367 9.98063 17.7495 10.8212 17.9167C11.6618 18.0839 12.5331 17.998 13.3249 17.6701C14.1167 17.3421 14.7935 16.7867 15.2696 16.0741C15.7458 15.3615 15.9999 14.5237 15.9999 13.6666C15.9981 12.5179 15.541 11.4167 14.7288 10.6045C13.9165 9.79218 12.8153 9.33507 11.6666 9.33331ZM11.6666 16.6666C11.0733 16.6666 10.4932 16.4906 9.9999 16.161C9.50655 15.8314 9.12204 15.3628 8.89498 14.8147C8.66791 14.2665 8.6085 13.6633 8.72426 13.0813C8.84001 12.4994 9.12573 11.9649 9.54529 11.5453C9.96484 11.1258 10.4994 10.84 11.0813 10.7243C11.6633 10.6085 12.2665 10.6679 12.8146 10.895C13.3628 11.1221 13.8313 11.5066 14.161 11.9999C14.4906 12.4933 14.6666 13.0733 14.6666 13.6666C14.6648 14.4617 14.3482 15.2238 13.786 15.786C13.2237 16.3482 12.4617 16.6648 11.6666 16.6666Z" fill="#063164"/>
<path d="M12.6666 12.1931L11.1399 13.7265L10.6133 13.1931C10.4877 13.0676 10.3175 12.9971 10.1399 12.9971C9.96241 12.9971 9.79215 13.0676 9.66661 13.1931C9.54108 13.3187 9.47055 13.4889 9.47055 13.6665C9.47055 13.844 9.54108 14.0142 9.66661 14.1398L10.6666 15.1398C10.7286 15.2023 10.8023 15.2519 10.8836 15.2857C10.9648 15.3195 11.0519 15.337 11.1399 15.337C11.2279 15.337 11.3151 15.3195 11.3963 15.2857C11.4776 15.2519 11.5513 15.2023 11.6133 15.1398L13.6132 13.1398C13.7388 13.0143 13.8093 12.844 13.8093 12.6665C13.8093 12.4889 13.7388 12.3187 13.6132 12.1931C13.4877 12.0676 13.3175 11.9971 13.1399 11.9971C12.9624 11.9971 12.7921 12.0676 12.6666 12.1931Z" fill="#063164"/>
</svg>
