<svg width="15" height="18" viewBox="0 0 15 18" fill="none" xmlns="http://www.w3.org/2000/svg">
<path d="M5.87157 1.88585H6.19206C6.20458 2.02069 6.23712 2.15162 6.29297 2.27366L6.31374 2.31905L6.34307 2.35943C6.47789 2.54506 6.68649 2.75112 6.94114 2.86753L6.97192 2.8816L7.00432 2.8914C7.21774 2.95592 7.45173 2.96172 7.67313 2.90065L7.7129 2.88968L7.75033 2.87234C8.08562 2.71702 8.34326 2.39007 8.46314 2.12964L8.48828 2.07502L8.49976 2.016C8.50916 1.96763 8.5163 1.9177 8.52056 1.86571L8.84665 1.8697L9.83531 1.8818V3.46272H5.08387V1.88585H5.87157ZM7.35558 0.545984C7.14913 0.545984 6.95943 0.59944 6.79559 0.691974C6.96004 0.569656 7.15732 0.5 7.3629 0.5C7.59158 0.5 7.80968 0.585752 7.98389 0.734256C7.80514 0.615892 7.59107 0.545984 7.35558 0.545984ZM0.99178 2.37808H2.87234V2.91629H2.34541C1.61073 2.91629 1.00745 3.51958 1.00745 4.25425V15.744C1.00745 16.4781 1.6087 17.0819 2.34541 17.0819H12.5708C13.307 17.0819 13.9088 16.4801 13.9088 15.744V4.25425C13.9088 3.51754 13.305 2.91629 12.5708 2.91629H12.0439V2.37808H13.9245C14.1933 2.37808 14.4163 2.60253 14.4163 2.86986V17.0082C14.4163 17.2756 14.1918 17.5 13.9245 17.5H0.99178C0.723942 17.5 0.5 17.2766 0.5 17.0082V2.86986C0.5 2.60005 0.722476 2.37808 0.99178 2.37808ZM5.5361 13.5475C5.51778 13.5475 5.50285 13.5326 5.50285 13.5143C5.50285 13.496 5.51778 13.481 5.5361 13.481H9.38016C9.39847 13.481 9.4134 13.496 9.4134 13.5143C9.4134 13.5326 9.39847 13.5475 9.38016 13.5475H5.5361ZM4.39928 10.3275C4.38097 10.3275 4.36604 10.3126 4.36604 10.2943C4.36604 10.276 4.38097 10.261 4.39928 10.261H10.517C10.5353 10.261 10.5502 10.276 10.5502 10.2943C10.5502 10.3126 10.5353 10.3275 10.517 10.3275H4.39928ZM3.39871 7.10902C3.3804 7.10902 3.36547 7.09409 3.36547 7.07577C3.36547 7.05746 3.3804 7.04252 3.39871 7.04252H11.5205C11.5388 7.04252 11.5537 7.05746 11.5537 7.07577C11.5537 7.09409 11.5388 7.10902 11.5205 7.10902H3.39871Z" fill="#063164" stroke="#063164"/>
</svg>
