<svg width="20" height="20" viewBox="0 0 20 20" fill="none" xmlns="http://www.w3.org/2000/svg">
<path d="M2.5 20H13.75C15.125 20 16.25 18.875 16.25 17.5H0C0 18.875 1.125 20 2.5 20ZM13.75 7.5H2.5C1.125 7.5 0 8.625 0 10V15H16.25V10C16.25 8.625 15.125 7.5 13.75 7.5ZM4.99999 12.5H1.25V11.25H4.99999V12.5ZM18.75 6.06438L9.37499 0.508125C8.75999 0.1175 8.16436 0 7.89061 0C7.33374 0 6.24999 0.224375 5.62499 1.3675L2.7225 6.25H13.75C15.8181 6.25 17.5 7.93187 17.5 10V13.1763L19.6681 9.53125C20.01 8.90625 20 8.34 20 8.125C20 7.49 19.6775 6.65063 18.75 6.06438Z" fill="#063164"/>
</svg>
