<svg width="20" height="20" viewBox="0 0 20 20" fill="none" xmlns="http://www.w3.org/2000/svg">
<mask id="mask0_6_133" style="mask-type:luminance" maskUnits="userSpaceOnUse" x="0" y="-1" width="20" height="21">
<path d="M0 -0.00146484H20V19.9985H0V-0.00146484Z" fill="white"/>
</mask>
<g mask="url(#mask0_6_133)">
<path d="M14.4922 12.8892H18.3594C19.0497 12.8892 19.6094 12.3295 19.6094 11.6392V4.60791C19.6094 3.91756 19.0497 3.35791 18.3594 3.35791H10.1693" fill="#063164"/>
<path d="M5.85938 6.72471V11.6392C5.85938 12.3295 6.41902 12.8892 7.10937 12.8892H10.9766" fill="#063164"/>
<path d="M3.82812 1.02858H10.083C10.6973 1.02859 11.2943 1.23201 11.7807 1.6071L14.0512 3.35788H9.36062C8.86609 3.35788 8.46519 3.75881 8.46519 4.25334C8.46519 4.41309 8.50829 4.56988 8.58994 4.70719C8.67159 4.84449 8.78878 4.95722 8.92914 5.0335L10.5554 5.91737C10.9408 6.12678 11.1129 6.58815 10.9589 6.99877C10.8917 7.17789 10.7679 7.33021 10.6064 7.43264C10.4448 7.53507 10.2543 7.58203 10.0636 7.56639L9.42184 7.51374C7.84112 7.38407 6.29684 6.96988 4.8634 6.29112H3.82812" fill="#063164"/>
<path d="M3.82812 6.95166H0.390625V0.389161H3.82812V6.95166Z" fill="#063164"/>
<path d="M16.4062 16.7173H3.59375C2.98969 16.7173 2.5 17.207 2.5 17.811V19.6079H17.5V17.811C17.5 17.207 17.0103 16.7173 16.4062 16.7173Z" fill="#063164"/>
</g>
</svg>
