<svg width="20" height="20" viewBox="0 0 20 20" fill="none" xmlns="http://www.w3.org/2000/svg">
<path d="M15.8333 0H8.33333C6.03583 0 4.16667 1.86917 4.16667 4.16667V5H3.75C2.75578 5.0011 1.80259 5.39655 1.09957 6.09957C0.396545 6.80259 0.00110286 7.75578 0 8.75L0 17.0833C0.000881786 17.8565 0.308341 18.5977 0.854951 19.1445C1.40156 19.6912 2.1427 19.9989 2.91583 20H15.8333C18.1308 20 20 18.1308 20 15.8333V4.16667C20 1.86917 18.1308 0 15.8333 0ZM4.16667 17.0833C4.16667 17.7725 3.60583 18.3333 2.91667 18.3333C2.2275 18.3333 1.66667 17.7725 1.66667 17.0833V8.75C1.66667 7.60167 2.60167 6.66667 3.75 6.66667H4.16667V17.0833ZM18.3333 15.8333C18.3333 17.2117 17.2117 18.3333 15.8333 18.3333H5.55167C5.73167 17.9542 5.83333 17.5308 5.83333 17.0833V4.16667C5.83333 2.78833 6.955 1.66667 8.33333 1.66667H15.8333C17.2117 1.66667 18.3333 2.78833 18.3333 4.16667V15.8333ZM16.6667 5.83333C16.6667 6.05435 16.5789 6.26631 16.4226 6.42259C16.2663 6.57887 16.0543 6.66667 15.8333 6.66667H13.3333C13.1123 6.66667 12.9004 6.57887 12.7441 6.42259C12.5878 6.26631 12.5 6.05435 12.5 5.83333C12.5 5.61232 12.5878 5.40036 12.7441 5.24408C12.9004 5.0878 13.1123 5 13.3333 5H15.8333C16.0543 5 16.2663 5.0878 16.4226 5.24408C16.5789 5.40036 16.6667 5.61232 16.6667 5.83333ZM16.6667 9.16667C16.6667 9.38768 16.5789 9.59964 16.4226 9.75592C16.2663 9.9122 16.0543 10 15.8333 10H8.33333C8.11232 10 7.90036 9.9122 7.74408 9.75592C7.5878 9.59964 7.5 9.38768 7.5 9.16667C7.5 8.94565 7.5878 8.73369 7.74408 8.57741C7.90036 8.42113 8.11232 8.33333 8.33333 8.33333H15.8333C16.0543 8.33333 16.2663 8.42113 16.4226 8.57741C16.5789 8.73369 16.6667 8.94565 16.6667 9.16667ZM16.6667 12.5C16.6667 12.721 16.5789 12.933 16.4226 13.0893C16.2663 13.2455 16.0543 13.3333 15.8333 13.3333H8.33333C8.11232 13.3333 7.90036 13.2455 7.74408 13.0893C7.5878 12.933 7.5 12.721 7.5 12.5C7.5 12.279 7.5878 12.067 7.74408 11.9107C7.90036 11.7545 8.11232 11.6667 8.33333 11.6667H15.8333C16.0543 11.6667 16.2663 11.7545 16.4226 11.9107C16.5789 12.067 16.6667 12.279 16.6667 12.5ZM16.6667 15.8333C16.6667 16.0543 16.5789 16.2663 16.4226 16.4226C16.2663 16.5789 16.0543 16.6667 15.8333 16.6667H8.33333C8.11232 16.6667 7.90036 16.5789 7.74408 16.4226C7.5878 16.2663 7.5 16.0543 7.5 15.8333C7.5 15.6123 7.5878 15.4004 7.74408 15.2441C7.90036 15.0878 8.11232 15 8.33333 15H15.8333C16.0543 15 16.2663 15.0878 16.4226 15.2441C16.5789 15.4004 16.6667 15.6123 16.6667 15.8333ZM7.5 5.83333V4.16667C7.5 3.94565 7.5878 3.73369 7.74408 3.57741C7.90036 3.42113 8.11232 3.33333 8.33333 3.33333H10C10.221 3.33333 10.433 3.42113 10.5893 3.57741C10.7455 3.73369 10.8333 3.94565 10.8333 4.16667V5.83333C10.8333 6.05435 10.7455 6.26631 10.5893 6.42259C10.433 6.57887 10.221 6.66667 10 6.66667H8.33333C8.11232 6.66667 7.90036 6.57887 7.74408 6.42259C7.5878 6.26631 7.5 6.05435 7.5 5.83333Z" fill="#063164"/>
</svg>
