<svg width="18" height="18" viewBox="0 0 18 18" fill="none" xmlns="http://www.w3.org/2000/svg">
<path d="M8.79688 8.58594H9.20312V8.99219H8.79688V8.58594Z" fill="#063164" stroke="#063164"/>
<path d="M14.5469 1.40625V1.90625H15.0469H15.8906C16.7776 1.90625 17.5 2.62866 17.5 3.51562V8.13662C17.3687 8.02755 17.2332 7.92346 17.0938 7.82459V6.60938V6.10938H16.5938H1.40625H0.90625V6.60938V15.8906C0.90625 16.5545 1.44553 17.0938 2.10938 17.0938H7.82458C7.92344 17.2332 8.02753 17.3687 8.1366 17.5H2.10938C1.22241 17.5 0.5 16.7776 0.5 15.8906V3.51562C0.5 2.62866 1.22241 1.90625 2.10938 1.90625H2.95312H3.45312V1.40625V0.5H3.85938V1.40625V1.90625H4.35938H13.6406H14.1406V1.40625V0.5H14.5469V1.40625ZM16.5938 5.70312H17.0938V5.20312V3.51562C17.0938 2.85178 16.5545 2.3125 15.8906 2.3125H15.0469H14.5469V2.8125V3.71875H14.1406V2.8125V2.3125H13.6406H4.35938H3.85938V2.8125V3.71875H3.45312V2.8125V2.3125H2.95312H2.10938C1.44553 2.3125 0.90625 2.85178 0.90625 3.51562V5.20312V5.70312H1.40625H16.5938Z" fill="#063164" stroke="#063164"/>
<path d="M9.00781 13.2539C9.00781 10.9131 10.9131 9.00781 13.2539 9.00781C15.5948 9.00781 17.5 10.9131 17.5 13.2539C17.5 15.5948 15.5948 17.5 13.2539 17.5C10.9131 17.5 9.00781 15.5948 9.00781 13.2539ZM9.41406 13.2539C9.41406 15.3716 11.1362 17.0938 13.2539 17.0938C15.3716 17.0938 17.0938 15.3716 17.0938 13.2539C17.0938 11.1362 15.3716 9.41406 13.2539 9.41406C11.1362 9.41406 9.41406 11.1362 9.41406 13.2539Z" fill="#063164" stroke="#063164"/>
<path d="M13.4219 12.5508V13.0508H13.9219H14.6172V13.457H13.0156V11.3984H13.4219V12.5508ZM5.98438 11.3984H6.39062V11.8047H5.98438V11.3984ZM3.17188 11.3984H3.57812V11.8047H3.17188V11.3984ZM3.17188 8.58594H3.57812V8.99219H3.17188V8.58594ZM3.17188 14.2109H3.57812V14.6172H3.17188V14.2109ZM5.98438 8.58594H6.39062V8.99219H5.98438V8.58594ZM5.98438 14.2109H6.39062V14.6172H5.98438V14.2109Z" fill="#063164" stroke="#063164"/>
</svg>
