<svg width="20" height="20" viewBox="0 0 20 20" fill="none" xmlns="http://www.w3.org/2000/svg">
<path d="M20 1.75781C20 1.24277 19.7773 0.77875 19.4232 0.456953C19.4101 0.444501 19.3965 0.432666 19.3823 0.421484C19.0751 0.159023 18.677 0 18.2422 0H1.75781C1.32313 0 0.925039 0.158945 0.617891 0.421367C0.603711 0.432539 0.59 0.444414 0.576719 0.457031C0.222656 0.778789 0 1.24281 0 1.75781V11.2109C0 12.1802 0.788555 12.9648 1.75781 12.9648H9.71828C9.51836 13.5225 9.41406 14.1189 9.41406 14.7266C9.41406 16.132 9.97094 17.4566 10.9821 18.4563C11.9891 19.4518 13.3189 20 14.7266 20C17.6343 20 20 17.6343 20 14.7266C20 13.9133 19.8148 13.1425 19.4846 12.454C19.8084 12.1297 20 11.6847 20 11.2109V1.75781ZM17.6635 1.17188L10 6.96098L2.33648 1.17188H17.6635ZM14.7266 18.8281C12.4434 18.8281 10.5859 16.9882 10.5859 14.7266C10.5859 12.465 12.4434 10.625 14.7266 10.625C16.9882 10.625 18.8281 12.465 18.8281 14.7266C18.8281 16.9882 16.9882 18.8281 14.7266 18.8281ZM18.8281 11.2109C18.8281 11.2695 18.8192 11.3276 18.8019 11.3835C17.8339 10.2057 16.3665 9.45312 14.7266 9.45312C12.8985 9.45312 11.2807 10.3779 10.3153 11.7969H1.75781C1.43473 11.7969 1.17188 11.534 1.17188 11.2109V1.76078L9.6468 8.16285C9.75133 8.2418 9.87566 8.28125 10 8.28125C10.1243 8.28125 10.2487 8.2418 10.3532 8.16285L18.8281 1.76078V11.2109Z" fill="#063164"/>
<path d="M17.4846 14.3122L15.7268 12.5544C15.498 12.3256 15.127 12.3256 14.8982 12.5544C14.6693 12.7833 14.6693 13.1542 14.8982 13.3831L15.6557 14.1406H12.3438C12.0202 14.1406 11.7578 14.403 11.7578 14.7266C11.7578 15.0502 12.0202 15.3125 12.3438 15.3125H15.6557L14.8982 16.0701C14.6694 16.2989 14.6694 16.6699 14.8982 16.8987C15.127 17.1275 15.498 17.1275 15.7268 16.8987L17.4846 15.1409C17.7104 14.9152 17.7148 14.5424 17.4846 14.3122Z" fill="#063164"/>
</svg>
