<svg width="21" height="22" viewBox="0 0 21 22" fill="none" xmlns="http://www.w3.org/2000/svg">
<path d="M17.3522 6.99579C17.3227 6.99551 17.2933 6.99166 17.2647 6.98433L14.8235 6.34608C14.6399 6.29732 14.5295 6.10944 14.5783 5.92585L15.8132 1.19975C16.037 0.343486 16.9162 -0.171446 17.7739 0.0523033C18.6302 0.276053 19.1451 1.15529 18.9213 2.01299L17.6864 6.739C17.6751 6.78273 17.6552 6.82377 17.6278 6.85973C17.6005 6.89568 17.5663 6.92583 17.5272 6.94842C17.4741 6.97954 17.4137 6.9959 17.3522 6.99579ZM15.3313 5.76658L17.1069 6.23128L18.2558 1.83943C18.3835 1.35034 18.0894 0.846912 17.6003 0.719253C17.1112 0.591595 16.6078 0.885644 16.4802 1.37474L15.3313 5.76658Z" fill="#063164"/>
<path d="M15.0645 15.7536C15.0349 15.7533 15.0056 15.7495 14.977 15.7421L12.5343 15.1039C12.3508 15.0551 12.2403 14.8673 12.2876 14.6837L14.5767 5.92582C14.5997 5.83689 14.6571 5.76229 14.736 5.7164C14.8149 5.6705 14.9081 5.65761 14.997 5.68053L17.4396 6.31878C17.6232 6.36754 17.7337 6.55543 17.6864 6.73901L15.3972 15.4954C15.3859 15.5392 15.366 15.5802 15.3387 15.6162C15.3113 15.6521 15.2771 15.6823 15.238 15.7048C15.1849 15.7364 15.1247 15.7536 15.0645 15.7536ZM13.0421 14.5244L14.8177 14.9891L16.9333 6.89676L15.1577 6.43207L13.0421 14.5244Z" fill="#063164"/>
<path d="M14.6858 17.1994C14.6563 17.1991 14.6269 17.1952 14.5983 17.1879L12.1571 16.5511C11.9736 16.5023 11.8631 16.3144 11.9104 16.1309L12.2891 14.6836C12.3121 14.5947 12.3694 14.5201 12.4483 14.4742C12.5272 14.4283 12.6205 14.4154 12.7094 14.4383L15.152 15.0766C15.3356 15.1254 15.446 15.3132 15.3987 15.4968L15.02 16.9441C15.0087 16.9878 14.9888 17.0288 14.9615 17.0648C14.9342 17.1007 14.8999 17.1309 14.8608 17.1535C14.8073 17.1833 14.7471 17.1991 14.6858 17.1994ZM12.6635 15.9716L14.4391 16.4363L14.6428 15.6546L12.8672 15.1899L12.6635 15.9716Z" fill="#063164"/>
<path d="M12.4469 20.7694C12.4173 20.7691 12.388 20.7653 12.3594 20.758C12.2935 20.7405 12.2342 20.704 12.1891 20.6529C12.1439 20.6019 12.1148 20.5386 12.1055 20.4711L11.7082 17.4835C11.7017 17.4352 11.7054 17.386 11.7193 17.3393C11.7331 17.2926 11.7567 17.2493 11.7885 17.2124L12.6864 16.1754C12.7285 16.127 12.7833 16.0912 12.8446 16.0722C12.9059 16.0532 12.9713 16.0517 13.0335 16.0679L14.069 16.3389C14.1312 16.3551 14.1876 16.3884 14.2317 16.4351C14.2758 16.4817 14.3059 16.5399 14.3186 16.6028L14.594 17.9453C14.6038 17.993 14.6033 18.0422 14.5927 18.0896C14.5821 18.1371 14.5615 18.1818 14.5323 18.2207L12.7222 20.6318C12.6563 20.7206 12.5544 20.7694 12.4469 20.7694ZM12.411 17.5465L12.6778 19.5459L13.8883 17.9324L13.6875 16.9513L13.0664 16.7892L12.411 17.5465Z" fill="#063164"/>
<path d="M13.1009 18.2393C13.2728 18.2393 13.4122 18.1 13.4122 17.9281C13.4122 17.7562 13.2728 17.6168 13.1009 17.6168C12.929 17.6168 12.7897 17.7562 12.7897 17.9281C12.7897 18.1 12.929 18.2393 13.1009 18.2393Z" fill="#063164"/>
<path d="M18.4279 8.58929C18.3984 8.589 18.369 8.58516 18.3404 8.57783C18.1568 8.52906 18.0463 8.34118 18.0952 8.1576L19.5022 2.7761L18.438 2.49212C18.2544 2.44336 18.1453 2.25404 18.1942 2.07046C18.243 1.88687 18.4322 1.77784 18.6158 1.82665L20.0099 2.19955C20.0536 2.2111 20.0945 2.23114 20.1304 2.25852C20.1662 2.28589 20.1963 2.32008 20.219 2.35911C20.2416 2.39814 20.2564 2.44125 20.2623 2.48598C20.2683 2.53071 20.2654 2.57618 20.2538 2.61978L18.7607 8.33254C18.7205 8.48742 18.5814 8.58929 18.4279 8.58929ZM0.674119 22C0.548952 21.9997 0.423926 21.9916 0.299785 21.9756C0.111901 21.9512 -0.0214888 21.7777 0.00287056 21.5897C0.0272733 21.4019 0.200785 21.2685 0.388712 21.2928C0.872077 21.3559 1.36691 21.2512 1.80294 21.0246C1.28084 20.3749 1.17042 19.411 1.58492 18.6724C1.9062 18.1015 2.63342 17.6899 3.24726 18.0212C3.52407 18.1703 3.71052 18.4342 3.78512 18.7828C3.84105 19.0467 3.83102 19.3522 3.75642 19.6433C3.62446 20.1539 3.35052 20.6244 2.96611 21.0131C3.46524 21.1637 4.05763 21.0346 4.4162 20.656C4.48073 20.5871 4.54243 20.5082 4.60839 20.425C4.71451 20.2888 4.82497 20.1482 4.96983 20.0234C5.11754 19.8958 5.29683 19.8026 5.47612 19.7595C5.70417 19.705 5.92362 19.7323 6.10863 19.8384C6.41701 20.0134 6.526 20.329 6.61349 20.5814L6.64363 20.6675C6.70672 20.8439 6.79421 20.9257 6.82005 20.93C6.85018 20.9285 6.93481 20.8626 6.985 20.8238C7.09113 20.7421 7.22452 20.6388 7.40094 20.5929C7.72364 20.5083 8.01053 20.6517 8.2199 20.7579C8.24574 20.7708 8.27297 20.7837 8.2988 20.7966C9.12498 21.1939 10.2566 20.8884 10.7716 20.1311C10.8777 19.9733 11.0928 19.9332 11.2492 20.0393C11.407 20.1454 11.4471 20.3606 11.341 20.5169C10.9982 21.0232 10.4617 21.3947 9.83209 21.564C9.20244 21.7332 8.55125 21.6816 8.0005 21.4163C7.9718 21.4019 7.94171 21.3876 7.913 21.3732C7.78821 21.3116 7.64622 21.2398 7.57449 21.2585C7.53289 21.2685 7.46837 21.3201 7.40524 21.3689C7.27758 21.4679 7.10259 21.6027 6.86165 21.617C6.84732 21.6185 6.83294 21.6185 6.82005 21.6185C6.46577 21.6185 6.16026 21.3531 5.99674 20.8999C5.98527 20.8683 5.97524 20.8368 5.96374 20.8052C5.90924 20.646 5.85184 20.4825 5.77012 20.4352C5.69552 20.3922 5.53921 20.4409 5.42158 20.5428C5.32692 20.6245 5.24229 20.7335 5.15193 20.8483C5.0802 20.9415 5.00422 21.0362 4.91672 21.1294C4.52085 21.5468 3.95572 21.7619 3.38921 21.7619C3.03063 21.7619 2.67349 21.6758 2.35938 21.498C1.83876 21.8279 1.25358 22 0.674119 22ZM2.78257 18.595C2.57028 18.595 2.3121 18.7872 2.18592 19.0109C1.90337 19.5129 1.9966 20.1971 2.37093 20.6302C2.71518 20.319 2.97479 19.9188 3.09095 19.4713C3.17557 19.1429 3.14544 18.747 2.92169 18.6265C2.87866 18.605 2.83133 18.595 2.78257 18.595Z" fill="#063164"/>
</svg>
