<svg width="22" height="22" viewBox="0 0 22 22" fill="none" xmlns="http://www.w3.org/2000/svg">
<path d="M3.21235 13.0149L1.01178 6.89767C0.973996 6.79107 1.03013 6.67304 1.13673 6.63409C2.30116 6.21582 3.51605 5.80669 4.74241 5.39417M16.4133 17.3501L9.38301 19.877L6.29766 20.9863C6.1911 21.0253 6.07303 20.9691 6.03408 20.8625L3.67537 14.3018" stroke="#063164" stroke-miterlimit="10" stroke-linecap="round" stroke-linejoin="round"/>
<path d="M17.8035 17.1118L10.5028 18.3632L7.27069 18.9178C7.15954 18.9362 7.05182 18.8605 7.0323 18.7494L5.83922 11.7876L4.52461 4.12327C4.51533 4.06949 4.52773 4.01423 4.55909 3.96956C4.59044 3.9249 4.63821 3.89447 4.69194 3.88492L8.37556 3.25349" stroke="#063164" stroke-miterlimit="10" stroke-linecap="round" stroke-linejoin="round"/>
<path d="M8.37561 9.52769V1.41416C8.37573 1.35736 8.39835 1.30292 8.43852 1.26275C8.47869 1.22259 8.53313 1.19998 8.58994 1.19988H18.333C18.3984 1.19988 18.4167 1.22623 18.5279 1.33167L20.8786 3.5732C20.9737 3.66604 21 3.67634 21 3.73823V16.8963C21 17.0143 20.9038 17.1118 20.7858 17.1118H8.58994C8.47191 17.1118 8.37561 17.0143 8.37561 16.8963V10.928" stroke="#063164" stroke-miterlimit="10" stroke-linecap="round" stroke-linejoin="round"/>
<path d="M18.1726 1.19988L18.1772 3.32568C18.1772 3.80125 18.6127 3.77143 18.8224 3.77143H21.0001" stroke="#063164" stroke-miterlimit="10" stroke-linecap="round" stroke-linejoin="round"/>
<path d="M19.0631 5.5844H10.434" stroke="#063164" stroke-miterlimit="10" stroke-linecap="round" stroke-linejoin="round"/>
<path d="M19.0631 7.7285H10.434" stroke="#063164" stroke-miterlimit="10" stroke-linecap="round" stroke-linejoin="round"/>
<path d="M19.0631 9.87265H10.434" stroke="#063164" stroke-miterlimit="10" stroke-linecap="round" stroke-linejoin="round"/>
<path d="M19.0631 12.0168H10.434" stroke="#063164" stroke-miterlimit="10" stroke-linecap="round" stroke-linejoin="round"/>
<path d="M19.0631 14.1609H10.434" stroke="#063164" stroke-miterlimit="10" stroke-linecap="round" stroke-linejoin="round"/>
</svg>
