<svg width="20" height="20" viewBox="0 0 20 20" fill="none" xmlns="http://www.w3.org/2000/svg">
<g clip-path="url(#clip0_3709_1435)">
<path d="M17.8569 10.7139H9.28544C8.10401 10.7139 7.14258 11.6753 7.14258 12.8567V17.8567C7.14258 19.0382 8.10401 19.9996 9.28544 19.9996H17.8569C19.0383 19.9996 19.9997 19.0382 19.9997 17.8567V12.8567C19.9997 11.6753 19.0383 10.7139 17.8569 10.7139ZM17.4661 12.1424L14.4283 14.7139C13.9347 15.0817 13.1726 15.0553 12.7461 14.7403L9.67686 12.1424H17.4661ZM17.8569 18.571H9.28544C9.09599 18.571 8.91431 18.4958 8.78036 18.3618C8.6464 18.2278 8.57115 18.0462 8.57115 17.8567V13.0782L11.8583 15.8574C12.3497 16.2253 12.9583 16.4282 13.5711 16.4282C14.184 16.4282 14.7926 16.2253 15.3176 15.831L18.5711 13.0782V17.8567C18.5711 18.0462 18.4959 18.2278 18.3619 18.3618C18.228 18.4958 18.0463 18.571 17.8569 18.571Z" fill="#063164"/>
<path d="M5.71429 18.5714H1.42857V1.42857H8.57143V5C8.57143 5.18944 8.64668 5.37112 8.78064 5.50508C8.91459 5.63903 9.09627 5.71429 9.28571 5.71429H12.8571V9.28571C12.8571 9.47515 12.9324 9.65684 13.0664 9.79079C13.2003 9.92475 13.382 10 13.5714 10C13.7609 10 13.9426 9.92475 14.0765 9.79079C14.2105 9.65684 14.2857 9.47515 14.2857 9.28571V4.28571C14.2857 4.09629 14.2104 3.91464 14.0764 3.78071L10.505 0.209286C10.3711 0.0753219 10.1894 4.04553e-05 10 0H0.714286C0.524845 0 0.343164 0.0752549 0.209209 0.209209C0.0752549 0.343164 0 0.524845 0 0.714286V19.2857C0 19.4752 0.0752549 19.6568 0.209209 19.7908C0.343164 19.9247 0.524845 20 0.714286 20H5.71429C5.90373 20 6.08541 19.9247 6.21936 19.7908C6.35332 19.6568 6.42857 19.4752 6.42857 19.2857C6.42857 19.0963 6.35332 18.9146 6.21936 18.7806C6.08541 18.6467 5.90373 18.5714 5.71429 18.5714ZM12.5614 4.28571H10V1.72429L12.5614 4.28571Z" fill="#063164"/>
<path d="M10.7146 6.42871H3.57171C3.38227 6.42871 3.20059 6.50397 3.06663 6.63792C2.93268 6.77188 2.85742 6.95356 2.85742 7.143C2.85742 7.33244 2.93268 7.51412 3.06663 7.64807C3.20059 7.78203 3.38227 7.85728 3.57171 7.85728H10.7146C10.904 7.85728 11.0857 7.78203 11.2196 7.64807C11.3536 7.51412 11.4289 7.33244 11.4289 7.143C11.4289 6.95356 11.3536 6.77188 11.2196 6.63792C11.0857 6.50397 10.904 6.42871 10.7146 6.42871ZM10.7146 8.57157H3.57171C3.38227 8.57157 3.20059 8.64682 3.06663 8.78078C2.93268 8.91473 2.85742 9.09641 2.85742 9.28585C2.85742 9.47529 2.93268 9.65698 3.06663 9.79093C3.20059 9.92488 3.38227 10.0001 3.57171 10.0001H10.7146C10.904 10.0001 11.0857 9.92488 11.2196 9.79093C11.3536 9.65698 11.4289 9.47529 11.4289 9.28585C11.4289 9.09641 11.3536 8.91473 11.2196 8.78078C11.0857 8.64682 10.904 8.57157 10.7146 8.57157ZM5.71456 10.7144H3.57171C3.38227 10.7144 3.20059 10.7897 3.06663 10.9236C2.93268 11.0576 2.85742 11.2393 2.85742 11.4287C2.85742 11.6182 2.93268 11.7998 3.06663 11.9338C3.20059 12.0677 3.38227 12.143 3.57171 12.143H5.71456C5.904 12.143 6.08569 12.0677 6.21964 11.9338C6.3536 11.7998 6.42885 11.6182 6.42885 11.4287C6.42885 11.2393 6.3536 11.0576 6.21964 10.9236C6.08569 10.7897 5.904 10.7144 5.71456 10.7144ZM5.71456 12.8573H3.57171C3.38227 12.8573 3.20059 12.9325 3.06663 13.0665C2.93268 13.2004 2.85742 13.3821 2.85742 13.5716C2.85742 13.761 2.93268 13.9427 3.06663 14.0766C3.20059 14.2106 3.38227 14.2859 3.57171 14.2859H5.71456C5.904 14.2859 6.08569 14.2106 6.21964 14.0766C6.3536 13.9427 6.42885 13.761 6.42885 13.5716C6.42885 13.3821 6.3536 13.2004 6.21964 13.0665C6.08569 12.9325 5.904 12.8573 5.71456 12.8573ZM5.71456 15.0001H3.57171C3.38227 15.0001 3.20059 15.0754 3.06663 15.2093C2.93268 15.3433 2.85742 15.525 2.85742 15.7144C2.85742 15.9039 2.93268 16.0855 3.06663 16.2195C3.20059 16.3535 3.38227 16.4287 3.57171 16.4287H5.71456C5.904 16.4287 6.08569 16.3535 6.21964 16.2195C6.3536 16.0855 6.42885 15.9039 6.42885 15.7144C6.42885 15.525 6.3536 15.3433 6.21964 15.2093C6.08569 15.0754 5.904 15.0001 5.71456 15.0001Z" fill="#063164"/>
</g>
<defs>
<clipPath id="clip0_3709_1435">
<rect width="20" height="20" fill="white"/>
</clipPath>
</defs>
</svg>
