<svg width="16" height="20" viewBox="0 0 16 20" fill="none" xmlns="http://www.w3.org/2000/svg">
<path d="M1.42268 -0.000116411C1.23904 0.000807841 1.0574 0.0380127 0.888183 0.10936C0.718967 0.180708 0.56552 0.284791 0.436657 0.41563C0.307794 0.546468 0.206057 0.701482 0.137293 0.871763C0.068528 1.04204 0.0340911 1.22424 0.0359609 1.40787V18.5919C0.0359609 19.3809 0.65727 19.9999 1.42268 19.9999H13.6457C13.8294 19.9986 14.011 19.9612 14.1802 19.8898C14.3494 19.8184 14.5029 19.7143 14.6318 19.5836C14.7608 19.4528 14.8628 19.298 14.9319 19.1278C15.0011 18.9577 15.036 18.7756 15.0348 18.5919V4.37031C15.0337 4.20527 14.9674 4.04736 14.8505 3.9309L11.1274 0.207774C11.069 0.142067 10.9973 0.0895434 10.9171 0.0536981C10.8368 0.0178528 10.7499 -0.00049223 10.662 -0.000116411H1.42268ZM10.0383 1.25195L10.0336 4.37503C10.0336 4.71994 10.3147 5.00106 10.6596 5.00106H13.7874V18.5943C13.7874 18.684 13.7284 18.7502 13.6481 18.7502H1.42268C1.34236 18.7502 1.28567 18.6864 1.28567 18.5943V1.40787C1.28567 1.31337 1.34236 1.24959 1.42268 1.24959L10.0383 1.25195ZM11.2857 2.13312L12.9039 3.75136H11.2833L11.2857 2.13312ZM3.78507 6.87444C2.95115 6.87444 2.95115 8.12651 3.78507 8.12651H11.2833C12.1172 8.12651 12.1172 6.87444 11.2833 6.87444H3.78507ZM3.78507 9.99752C2.95115 9.99752 2.95115 11.2496 3.78507 11.2496H11.2833C12.1172 11.2496 12.1172 9.99752 11.2833 9.99752H3.78507ZM3.78507 14.3774H11.2833C12.1172 14.3774 12.1172 13.1253 11.2833 13.1253H3.78507C2.95115 13.1253 2.95115 14.3774 3.78507 14.3774Z" fill="#063164"/>
</svg>
