<svg width="22" height="22" viewBox="0 0 22 22" fill="none" xmlns="http://www.w3.org/2000/svg">
<path d="M7.93016 9.72092C6.37482 9.72092 5.11621 8.46232 5.11621 6.90697C5.11621 5.35162 6.37482 4.09302 7.93016 4.09302C9.48551 4.09302 10.7441 5.35162 10.7441 6.90697C10.7441 8.46232 9.48551 9.72092 7.93016 9.72092ZM7.93016 5.6279C7.59093 5.6279 7.2656 5.76266 7.02573 6.00253C6.78585 6.2424 6.65109 6.56774 6.65109 6.90697C6.65109 7.2462 6.78585 7.57154 7.02573 7.81141C7.2656 8.05128 7.59093 8.18604 7.93016 8.18604C8.26939 8.18604 8.59473 8.05128 8.8346 7.81141C9.07448 7.57154 9.20923 7.2462 9.20923 6.90697C9.20923 6.56774 9.07448 6.2424 8.8346 6.00253C8.59473 5.76266 8.26939 5.6279 7.93016 5.6279Z" fill="#063164"/>
<path d="M14.0698 22H7.93023C2.37395 22 0 19.626 0 14.0698V7.93023C0 2.37395 2.37395 0 7.93023 0H12.0233C12.4428 0 12.7907 0.347907 12.7907 0.767442C12.7907 1.18698 12.4428 1.53488 12.0233 1.53488H7.93023C3.21302 1.53488 1.53488 3.21302 1.53488 7.93023V14.0698C1.53488 18.787 3.21302 20.4651 7.93023 20.4651H14.0698C18.787 20.4651 20.4651 18.787 20.4651 14.0698V8.95349C20.4651 8.53395 20.813 8.18605 21.2326 8.18605C21.6521 8.18605 22 8.53395 22 8.95349V14.0698C22 19.626 19.626 22 14.0698 22Z" fill="#063164"/>
<path d="M17.1395 7.67446C16.72 7.67446 16.3721 7.32656 16.3721 6.90702V0.767487C16.3721 0.460511 16.5563 0.173999 16.8428 0.0614409C17.1293 -0.0511172 17.4567 0.0102782 17.6818 0.225162L19.7284 2.27167C20.0251 2.56842 20.0251 3.05958 19.7284 3.35632C19.4316 3.65307 18.9404 3.65307 18.6437 3.35632L17.907 2.61958V6.90702C17.907 7.32656 17.559 7.67446 17.1395 7.67446Z" fill="#063164"/>
<path d="M15.0926 3.58128C14.8982 3.58128 14.7037 3.50965 14.5502 3.35616C14.4075 3.21174 14.3275 3.01688 14.3275 2.81384C14.3275 2.61079 14.4075 2.41593 14.5502 2.27151L16.5968 0.225C16.8935 -0.0717446 17.3847 -0.0717446 17.6814 0.225C17.9782 0.521744 17.9782 1.01291 17.6814 1.30965L15.6349 3.35616C15.4814 3.50965 15.287 3.58128 15.0926 3.58128ZM1.45257 18.879C1.28901 18.8778 1.13009 18.8245 0.998907 18.7268C0.867729 18.6291 0.771144 18.4921 0.723204 18.3357C0.675263 18.1794 0.678468 18.0118 0.732351 17.8573C0.786235 17.7029 0.887986 17.5697 1.0228 17.4771L6.06745 14.0901C7.17257 13.3534 8.69722 13.4352 9.70001 14.2845L10.0377 14.5813C10.5493 15.0213 11.4191 15.0213 11.9205 14.5813L16.1772 10.9283C17.2619 9.99709 18.9707 9.99709 20.0656 10.9283L21.7335 12.3608C22.0507 12.6371 22.0916 13.118 21.8154 13.4455C21.5391 13.7627 21.0479 13.8036 20.7307 13.5273L19.0628 12.0948C18.5512 11.6548 17.6916 11.6548 17.18 12.0948L12.9233 15.7478C11.8386 16.679 10.1298 16.679 9.0349 15.7478L8.69722 15.451C8.22652 15.052 7.44885 15.011 6.92699 15.3692L1.89257 18.7562C1.74931 18.838 1.59583 18.879 1.45257 18.879Z" fill="#063164"/>
</svg>
