<svg width="25" height="22" viewBox="0 0 25 22" fill="none" xmlns="http://www.w3.org/2000/svg">
<path d="M24.6178 21.5741L23.1751 13.6198C23.1667 13.5731 23.1491 13.5285 23.1234 13.4886C23.0977 13.4487 23.0644 13.4143 23.0254 13.3872C22.9864 13.3602 22.9425 13.3411 22.8961 13.3311C22.8497 13.321 22.8018 13.3202 22.7551 13.3287C22.7084 13.3371 22.6638 13.3547 22.6239 13.3804C22.584 13.4061 22.5496 13.4394 22.5225 13.4784C22.4679 13.5572 22.4469 13.6544 22.464 13.7487L23.0739 17.1119L18.3714 11.6497L21.5342 10.9438L22.0025 11.2045L22.2059 12.3258C22.2243 12.4188 22.2785 12.5009 22.3569 12.5543C22.4353 12.6077 22.5316 12.6282 22.6249 12.6112C22.7182 12.5943 22.8012 12.5414 22.8558 12.4639C22.9105 12.3863 22.9325 12.2904 22.9171 12.1968L22.6832 10.9073C22.6736 10.8547 22.6526 10.8049 22.6215 10.7615C22.5904 10.718 22.5501 10.682 22.5034 10.656L21.7655 10.2453H21.7655L19.4336 8.94722L17.6343 7.94566L17.6342 7.94561L17.6338 7.94537C17.6201 7.93775 17.6058 7.93105 17.5911 7.92531C17.5866 7.92353 17.5819 7.92233 17.5772 7.92074C17.5672 7.9171 17.5569 7.91389 17.5466 7.91113C17.5407 7.90964 17.5348 7.90877 17.5288 7.90762C17.5195 7.90567 17.5102 7.90408 17.5008 7.90285C17.4945 7.90208 17.4882 7.90184 17.4818 7.90146C17.4727 7.9008 17.4636 7.90048 17.4545 7.9005C17.448 7.90055 17.4416 7.90103 17.4351 7.90141C17.4195 7.90234 17.4041 7.90435 17.3888 7.90742C17.3735 7.91046 17.3583 7.91444 17.3434 7.91935C17.335 7.92223 17.3267 7.9254 17.3186 7.92887C17.3122 7.93157 17.3059 7.93421 17.2996 7.93729C17.2969 7.93863 17.294 7.93955 17.2913 7.94094L16.4657 8.37132C17.0799 7.22601 17.3902 6.11677 17.3902 5.05557C17.3902 2.26792 15.1223 0 12.3346 0C9.54699 0 7.27936 2.26792 7.27936 5.05557C7.27936 6.12706 7.59542 7.24755 8.22167 8.40469L7.33202 7.94094C7.32928 7.9395 7.32635 7.93854 7.32356 7.93719C7.3175 7.93421 7.31124 7.93161 7.30509 7.92902C7.29679 7.92549 7.28837 7.92227 7.27984 7.91935C7.25874 7.91236 7.23706 7.90724 7.21506 7.90406C7.20626 7.90286 7.19742 7.90199 7.18856 7.90146C7.18192 7.90103 7.17529 7.90059 7.1687 7.9005C7.15986 7.90049 7.15102 7.90079 7.1422 7.90141C7.13556 7.90184 7.12893 7.90208 7.12229 7.9029C7.1133 7.90396 7.1044 7.90574 7.0955 7.90747C7.0892 7.90872 7.08286 7.90964 7.0766 7.91122C7.06674 7.91372 7.05708 7.91704 7.04741 7.92036C7.04236 7.92209 7.03722 7.92344 7.03217 7.92541C7.01756 7.93115 7.00335 7.93784 6.98961 7.94542L6.98922 7.94566L6.98912 7.9457L2.12015 10.656C2.07346 10.682 2.03312 10.718 2.00203 10.7615C1.97094 10.8049 1.94989 10.8547 1.94038 10.9073L0.568945 18.469C0.560478 18.5157 0.561294 18.5637 0.571343 18.61C0.581393 18.6564 0.600481 18.7004 0.627516 18.7394C0.654552 18.7784 0.689006 18.8117 0.728912 18.8374C0.768818 18.8631 0.813393 18.8807 0.860093 18.8891C0.906795 18.8976 0.954712 18.8968 1.0011 18.8868C1.0475 18.8767 1.09146 18.8576 1.13047 18.8306C1.16948 18.8036 1.20278 18.7691 1.22847 18.7292C1.25416 18.6893 1.27173 18.6447 1.28018 18.598L1.6916 16.3294L6.36907 13.8568L5.9929 18.7138L0.83951 21.0278L1.02086 20.0275C1.03679 19.9337 1.01508 19.8373 0.960443 19.7594C0.905806 19.6815 0.82265 19.6283 0.729024 19.6114C0.635397 19.5944 0.538854 19.615 0.460346 19.6688C0.381838 19.7225 0.3277 19.8051 0.309681 19.8985L0.00578776 21.5741C-0.00594309 21.6389 0.000231563 21.7056 0.0236455 21.7671C0.0470595 21.8287 0.0868239 21.8826 0.138649 21.9232C0.190473 21.9637 0.252391 21.9894 0.317721 21.9973C0.383051 22.0053 0.449313 21.9952 0.509359 21.9683L6.33656 19.3519L12.1613 21.9672L12.1618 21.9674L12.1637 21.9683C12.167 21.9697 12.1704 21.9708 12.1738 21.9722C12.1843 21.9765 12.195 21.9804 12.2059 21.9838C12.2094 21.9849 12.2128 21.9858 12.2163 21.9867C12.2282 21.9901 12.2403 21.9927 12.2525 21.9946C12.2562 21.9951 12.2597 21.996 12.2634 21.9965L12.2707 21.9975C12.2828 21.9988 12.295 21.9996 12.3071 21.9997C12.3087 21.9997 12.3102 22 12.3118 22L12.3141 21.9999C12.3287 21.9998 12.3432 21.9986 12.3578 21.9967C12.3596 21.9964 12.3614 21.9965 12.3632 21.9962C12.366 21.9959 12.3686 21.9949 12.3714 21.9945C12.3827 21.9926 12.394 21.9902 12.4052 21.9872C12.4083 21.9863 12.4114 21.9859 12.4145 21.985L12.4154 21.9848C12.4164 21.9845 12.4174 21.984 12.4184 21.9836C12.4324 21.9793 12.4462 21.9744 12.4598 21.9683L18.2868 19.3518L24.114 21.9682C24.1196 21.9707 24.1254 21.9726 24.1312 21.9748C24.1368 21.977 24.1424 21.9795 24.1482 21.9814C24.1558 21.9839 24.1635 21.9858 24.1712 21.9877C24.176 21.989 24.1806 21.9905 24.1855 21.9915C24.1947 21.9936 24.2041 21.9949 24.2135 21.9962C24.2169 21.9966 24.2201 21.9974 24.2235 21.9977C24.2363 21.9991 24.2492 21.9999 24.262 21.9999H24.2622C24.2797 21.9999 24.2973 21.9981 24.3148 21.9955C24.3363 21.9925 24.3576 21.9875 24.3782 21.9806C24.3793 21.9802 24.3803 21.9797 24.3814 21.9794C24.3925 21.9755 24.4037 21.9712 24.4145 21.966C24.4177 21.9646 24.4204 21.9624 24.4236 21.9609C24.4327 21.9563 24.4414 21.951 24.4502 21.9456C24.4589 21.9403 24.4676 21.9349 24.4758 21.9288C24.4787 21.9267 24.4819 21.9252 24.4847 21.923C24.491 21.9181 24.4966 21.9123 24.5025 21.9069C24.5073 21.9027 24.5122 21.8986 24.5168 21.8942C24.5278 21.8833 24.5378 21.8718 24.5471 21.8598C24.5488 21.8576 24.5509 21.8556 24.5526 21.8533C24.5634 21.8387 24.5729 21.8233 24.5813 21.8073C24.5837 21.8029 24.5854 21.7981 24.5877 21.7935C24.5932 21.7818 24.5984 21.7699 24.6027 21.7577C24.6049 21.7515 24.6066 21.7453 24.6084 21.7389C24.6171 21.7092 24.6218 21.6784 24.6225 21.6474C24.6227 21.6415 24.6231 21.6357 24.623 21.6296C24.6228 21.611 24.621 21.5924 24.6178 21.5741ZM18.2651 9.12401L17.8946 9.21067L17.8709 8.90456L18.2651 9.12401ZM17.4767 13.1746L15.9674 11.9961C15.9161 11.9561 15.855 11.9306 15.7905 11.9224C15.726 11.9142 15.6604 11.9236 15.6008 11.9496L12.6747 13.2231V12.8271C12.8933 12.649 13.39 12.2292 13.9854 11.6266L17.2459 10.1942L17.4767 13.1746ZM17.1406 8.83478L17.1867 9.43074L15.1499 10.3256C15.3465 10.0823 15.5352 9.83286 15.7157 9.57751L17.1406 8.83478ZM7.48298 8.83478L8.98105 9.6157C9.20289 9.92767 9.4459 10.2419 9.71074 10.5582C9.93122 10.8212 10.1595 11.0775 10.3951 11.3269L7.32399 10.8874L7.48298 8.83478ZM6.43506 13.0044L1.85555 15.4251L2.0786 14.1952L2.08432 14.1635L6.52658 11.8223L6.43506 13.0044ZM6.59261 10.9705L2.24822 13.2602L2.62103 11.2045L6.75261 8.90461L6.64878 10.2455L6.59261 10.9705ZM6.71659 18.7301L7.05876 14.312L11.3279 20.8006L6.71659 18.7301ZM11.9503 17.3372L9.72402 13.8285L11.9503 14.0951V17.3372ZM11.9503 13.3671L9.05381 13.0203C8.98591 13.0122 8.91711 13.0235 8.85539 13.0529C8.79367 13.0823 8.74156 13.1287 8.70512 13.1865C8.66867 13.2444 8.64938 13.3114 8.64949 13.3797C8.64959 13.4481 8.66909 13.5151 8.70572 13.5728L11.9503 18.6863V20.4318L7.14985 13.1355L7.26806 11.6096L11.2555 12.1802C11.5562 12.4593 11.8 12.6665 11.9503 12.7902V13.3671H11.9503ZM12.3349 12.1688C11.4223 11.399 8.00218 8.29764 8.00218 5.05562C8.00213 2.66651 9.94582 0.722822 12.3349 0.722822C14.724 0.722822 16.6677 2.66651 16.6677 5.05562C16.6677 8.29764 13.2476 11.3991 12.3349 12.1688ZM12.6732 21.0801V19.4759L13.7536 20.595L12.6732 21.0801ZM14.4545 20.2803L12.6732 18.4353V14.012L15.692 12.6981L17.5522 14.1506L17.9069 18.7301L14.4545 20.2803ZM17.9511 9.93969L19.2041 9.64667L20.0927 10.1413L20.5844 10.4151L18.032 10.9847L17.9511 9.93969ZM18.6306 18.7138L18.3485 15.0709L22.9913 20.6718L18.6306 18.7138ZM18.2518 13.8216L18.1536 12.5534L18.1494 12.4997L23.3285 18.5155L23.6605 20.3465L18.2518 13.8216Z" fill="#063164"/>
<path d="M12.3349 2.8219C12.2391 2.8219 12.1472 2.85998 12.0794 2.92775C12.0116 2.99553 11.9735 3.08746 11.9735 3.18331C11.9735 3.27916 12.0116 3.37109 12.0794 3.43887C12.1472 3.50665 12.2391 3.54472 12.3349 3.54472C13.168 3.54472 13.8458 4.22249 13.8458 5.05559C13.8458 5.88864 13.168 6.56645 12.3349 6.56645C11.5018 6.56645 10.8241 5.88869 10.8241 5.05559C10.8241 4.65705 10.9779 4.28102 11.2572 3.99669C11.2905 3.96285 11.3167 3.92278 11.3345 3.87877C11.3523 3.83477 11.3612 3.7877 11.3608 3.74024C11.3604 3.69279 11.3506 3.64588 11.3321 3.6022C11.3135 3.55852 11.2865 3.51892 11.2527 3.48567C11.2188 3.4524 11.1788 3.42612 11.1347 3.40834C11.0907 3.39056 11.0437 3.38163 10.9962 3.38205C10.9487 3.38247 10.9018 3.39223 10.8581 3.41079C10.8145 3.42934 10.7749 3.45632 10.7416 3.49019C10.3287 3.91047 10.1013 4.46641 10.1013 5.05559C10.1013 6.28723 11.1033 7.28927 12.335 7.28927C13.5667 7.28927 14.5687 6.28723 14.5687 5.05559C14.5686 3.8239 13.5666 2.8219 12.3349 2.8219Z" fill="#063164"/>
</svg>
