<svg width="20" height="23" viewBox="0 0 20 23" fill="none" xmlns="http://www.w3.org/2000/svg">
<path fill-rule="evenodd" clip-rule="evenodd" d="M14.4444 13.3333C15.8761 13.3334 17.2524 13.8862 18.2864 14.8763C19.3204 15.8664 19.9323 17.2175 19.9944 18.6478L20 18.8889V21.1111C19.9997 21.3943 19.8912 21.6667 19.6968 21.8726C19.5024 22.0786 19.2367 22.2025 18.954 22.2191C18.6713 22.2357 18.3929 22.1437 18.1757 21.9619C17.9586 21.7802 17.819 21.5223 17.7856 21.2411L17.7778 21.1111V18.8889C17.7778 18.0387 17.453 17.2205 16.8697 16.6019C16.2864 15.9833 15.4888 15.611 14.64 15.5611L14.4444 15.5556H5.55556C4.70532 15.5555 3.88721 15.8804 3.2686 16.4636C2.64999 17.0469 2.27766 17.8446 2.22778 18.6933L2.22222 18.8889V21.1111C2.22191 21.3943 2.11347 21.6667 1.91906 21.8726C1.72465 22.0786 1.45894 22.2025 1.17623 22.2191C0.893515 22.2357 0.615134 22.1437 0.397964 21.9619C0.180794 21.7802 0.0412262 21.5223 0.00777774 21.2411L0 21.1111V18.8889C8.27139e-05 17.4573 0.552824 16.0809 1.54296 15.0469C2.53309 14.0129 3.88417 13.401 5.31444 13.3389L5.55556 13.3333H14.4444ZM10 0C11.4734 0 12.8865 0.585316 13.9284 1.62718C14.9702 2.66905 15.5556 4.08213 15.5556 5.55556C15.5556 7.02898 14.9702 8.44206 13.9284 9.48393C12.8865 10.5258 11.4734 11.1111 10 11.1111C8.52658 11.1111 7.1135 10.5258 6.07163 9.48393C5.02976 8.44206 4.44444 7.02898 4.44444 5.55556C4.44444 4.08213 5.02976 2.66905 6.07163 1.62718C7.1135 0.585316 8.52658 0 10 0ZM10 2.22222C9.56226 2.22222 9.12881 2.30844 8.72439 2.47596C8.31997 2.64347 7.95251 2.889 7.64298 3.19853C7.33345 3.50806 7.08792 3.87553 6.9204 4.27994C6.75289 4.68436 6.66667 5.11782 6.66667 5.55556C6.66667 5.9933 6.75289 6.42675 6.9204 6.83117C7.08792 7.23559 7.33345 7.60305 7.64298 7.91258C7.95251 8.22211 8.31997 8.46764 8.72439 8.63515C9.12881 8.80267 9.56226 8.88889 10 8.88889C10.8841 8.88889 11.7319 8.5377 12.357 7.91258C12.9821 7.28746 13.3333 6.43961 13.3333 5.55556C13.3333 4.6715 12.9821 3.82365 12.357 3.19853C11.7319 2.57341 10.8841 2.22222 10 2.22222Z" fill="white"/>
</svg>
