<svg width="22" height="24" viewBox="0 0 22 24" fill="none" xmlns="http://www.w3.org/2000/svg">
<path d="M11.5215 1.39906C10.9813 0.849169 10.0889 0.870383 9.5756 1.44532L1.33875 10.6706C1.12059 10.9149 1 11.231 1 11.5586V21.7166C1 22.453 1.59696 23.0499 2.33333 23.0499H6.33333C7.06971 23.0499 7.66667 22.453 7.66667 21.7166V17.0499C7.66667 16.3135 8.26363 15.7166 9 15.7166H13C13.7364 15.7166 14.3333 16.3135 14.3333 17.0499V21.7166C14.3333 22.453 14.9303 23.0499 15.6667 23.0499H19.6667C20.4031 23.0499 21 22.453 21 21.7166V11.5953C21 11.2458 20.8628 10.9103 20.6179 10.661L11.5215 1.39906Z" stroke="white" stroke-width="1.3"/>
</svg>
