<svg width="20" height="24" viewBox="0 0 20 24" fill="none" xmlns="http://www.w3.org/2000/svg">
<mask id="path-1-inside-1_2604_1251" fill="white">
<path fill-rule="evenodd" clip-rule="evenodd" d="M4.66147 11.195C4.00624 11.597 3.40077 12.075 2.85763 12.619C2.75247 12.7232 2.66899 12.8473 2.61203 12.9839C2.55506 13.1206 2.52573 13.2672 2.52573 13.4153C2.52573 13.5634 2.55506 13.71 2.61203 13.8467C2.66899 13.9834 2.75247 14.1074 2.85763 14.2117C2.96199 14.3162 3.08592 14.3991 3.22234 14.4556C3.35876 14.5122 3.50499 14.5413 3.65267 14.5413C3.80035 14.5413 3.94659 14.5122 4.08301 14.4556C4.21943 14.3991 4.34336 14.3162 4.44771 14.2117C5.06397 13.5939 5.78362 13.0887 6.57406 12.7191C7.5191 13.2265 8.6029 13.5141 9.75046 13.5141C10.898 13.5141 11.9818 13.2265 12.9269 12.7191C14.2191 13.325 15.3121 14.2865 16.0779 15.491C16.8436 16.6955 17.2505 18.0931 17.2508 19.5204V20.6218C17.251 20.7697 17.222 20.9161 17.1655 21.0527C17.109 21.1894 17.0262 21.3135 16.9217 21.4181C16.8172 21.5227 16.6931 21.6057 16.5566 21.6623C16.42 21.7189 16.2736 21.748 16.1258 21.748H3.37516C3.22732 21.748 3.08093 21.7189 2.94436 21.6623C2.80779 21.6057 2.68371 21.5227 2.57923 21.4181C2.47474 21.3135 2.3919 21.1894 2.33542 21.0527C2.27895 20.9161 2.24996 20.7697 2.25011 20.6218V19.5208C2.25011 18.6207 2.41136 17.7372 2.71888 16.9095C2.93639 16.3264 2.63637 15.678 2.0551 15.462C1.47382 15.246 0.825039 15.543 0.607528 16.1258C0.205957 17.2125 0.000264017 18.3618 0 19.5204V20.6215C0 22.4876 1.51132 24 3.37516 24H16.1258C17.9896 24 19.5009 22.4876 19.5009 20.6211V19.5204C19.5008 16.9328 18.4745 14.4509 16.647 12.619C16.1018 12.0758 15.4952 11.5979 14.8394 11.195C15.9128 9.96596 16.5032 8.38885 16.5008 6.75707C16.5008 3.02789 13.4744 0 9.75046 0C6.02653 0 3.00014 3.02789 3.00014 6.75707C2.99771 8.38885 3.5881 9.96596 4.66147 11.195ZM9.75046 2.25236C12.2331 2.25236 14.2507 4.2707 14.2507 6.75707C14.2507 9.24343 12.2331 11.2618 9.75046 11.2618C7.26784 11.2618 5.25025 9.24343 5.25025 6.75707C5.25025 4.2707 7.26784 2.25236 9.75046 2.25236Z"/>
</mask>
<path fill-rule="evenodd" clip-rule="evenodd" d="M4.66147 11.195C4.00624 11.597 3.40077 12.075 2.85763 12.619C2.75247 12.7232 2.66899 12.8473 2.61203 12.9839C2.55506 13.1206 2.52573 13.2672 2.52573 13.4153C2.52573 13.5634 2.55506 13.71 2.61203 13.8467C2.66899 13.9834 2.75247 14.1074 2.85763 14.2117C2.96199 14.3162 3.08592 14.3991 3.22234 14.4556C3.35876 14.5122 3.50499 14.5413 3.65267 14.5413C3.80035 14.5413 3.94659 14.5122 4.08301 14.4556C4.21943 14.3991 4.34336 14.3162 4.44771 14.2117C5.06397 13.5939 5.78362 13.0887 6.57406 12.7191C7.5191 13.2265 8.6029 13.5141 9.75046 13.5141C10.898 13.5141 11.9818 13.2265 12.9269 12.7191C14.2191 13.325 15.3121 14.2865 16.0779 15.491C16.8436 16.6955 17.2505 18.0931 17.2508 19.5204V20.6218C17.251 20.7697 17.222 20.9161 17.1655 21.0527C17.109 21.1894 17.0262 21.3135 16.9217 21.4181C16.8172 21.5227 16.6931 21.6057 16.5566 21.6623C16.42 21.7189 16.2736 21.748 16.1258 21.748H3.37516C3.22732 21.748 3.08093 21.7189 2.94436 21.6623C2.80779 21.6057 2.68371 21.5227 2.57923 21.4181C2.47474 21.3135 2.3919 21.1894 2.33542 21.0527C2.27895 20.9161 2.24996 20.7697 2.25011 20.6218V19.5208C2.25011 18.6207 2.41136 17.7372 2.71888 16.9095C2.93639 16.3264 2.63637 15.678 2.0551 15.462C1.47382 15.246 0.825039 15.543 0.607528 16.1258C0.205957 17.2125 0.000264017 18.3618 0 19.5204V20.6215C0 22.4876 1.51132 24 3.37516 24H16.1258C17.9896 24 19.5009 22.4876 19.5009 20.6211V19.5204C19.5008 16.9328 18.4745 14.4509 16.647 12.619C16.1018 12.0758 15.4952 11.5979 14.8394 11.195C15.9128 9.96596 16.5032 8.38885 16.5008 6.75707C16.5008 3.02789 13.4744 0 9.75046 0C6.02653 0 3.00014 3.02789 3.00014 6.75707C2.99771 8.38885 3.5881 9.96596 4.66147 11.195ZM9.75046 2.25236C12.2331 2.25236 14.2507 4.2707 14.2507 6.75707C14.2507 9.24343 12.2331 11.2618 9.75046 11.2618C7.26784 11.2618 5.25025 9.24343 5.25025 6.75707C5.25025 4.2707 7.26784 2.25236 9.75046 2.25236Z" fill="white"/>
<path d="M4.66147 11.195L8.84503 18.014L16.9144 13.0633L10.6871 5.93271L4.66147 11.195ZM2.85763 12.619L8.48963 18.3006L8.50431 18.286L8.51892 18.2714L2.85763 12.619ZM2.52573 13.4153H-5.47427H2.52573ZM2.85763 14.2117L8.51851 8.55884L8.50411 8.54441L8.48963 8.53006L2.85763 14.2117ZM3.65267 14.5413V6.54131V14.5413ZM4.44771 14.2117L10.1086 19.8645L10.1115 19.8616L4.44771 14.2117ZM6.57406 12.7191L10.3583 5.67075L6.82155 3.77183L3.18519 5.47233L6.57406 12.7191ZM12.9269 12.7191L16.3231 5.47581L12.6839 3.7694L9.14257 5.67075L12.9269 12.7191ZM17.2508 19.5204H25.2508V19.5185L17.2508 19.5204ZM17.2508 20.6218H9.2508L9.25081 20.6298L17.2508 20.6218ZM16.1258 21.748L16.1258 13.748H16.1258V21.748ZM3.37516 21.748V13.748H3.37515L3.37516 21.748ZM2.25011 20.6218L10.2501 20.6298V20.6218H2.25011ZM2.71888 16.9095L-4.7767 14.1138L-4.78024 14.1233L2.71888 16.9095ZM0.607528 16.1258L-6.88746 13.3284L-6.89202 13.3406L-6.89655 13.3529L0.607528 16.1258ZM0 19.5204L-8 19.5186V19.5204H0ZM19.5009 19.5204H27.5009V19.52L19.5009 19.5204ZM16.647 12.619L22.3109 6.96912L22.3021 6.96031L22.2933 6.95153L16.647 12.619ZM14.8394 11.195L8.81383 5.93271L2.59059 13.0586L10.6515 18.0113L14.8394 11.195ZM16.5008 6.75707H8.50076L8.50078 6.76896L16.5008 6.75707ZM3.00014 6.75707L11.0001 6.76896V6.75707H3.00014ZM0.477908 4.37609C-0.714088 5.10741 -1.81557 5.97691 -2.80365 6.96655L8.51892 18.2714C8.61711 18.173 8.72657 18.0866 8.84503 18.014L0.477908 4.37609ZM-2.77436 6.93736C-3.62985 7.78538 -4.30888 8.79444 -4.77228 9.90628L9.99633 16.0616C9.64687 16.9001 9.13479 17.661 8.48963 18.3006L-2.77436 6.93736ZM-4.77228 9.90628C-5.23568 11.0181 -5.47427 12.2108 -5.47427 13.4153H10.5257C10.5257 14.3237 10.3458 15.2231 9.99633 16.0616L-4.77228 9.90628ZM-5.47427 13.4153C-5.47427 14.6199 -5.23569 15.8125 -4.77228 16.9244L9.99633 10.769C10.3458 11.6075 10.5257 12.5069 10.5257 13.4153H-5.47427ZM-4.77228 16.9244C-4.30887 18.0362 -3.62983 19.0453 -2.77436 19.8933L8.48963 8.53006C9.13477 9.16957 9.64686 9.93053 9.99633 10.769L-4.77228 16.9244ZM-2.80325 19.8645C-1.95587 20.7131 -0.949517 21.3863 0.158238 21.8456L6.28644 7.06569C7.12135 7.41187 7.87984 7.91926 8.51851 8.55884L-2.80325 19.8645ZM0.158238 21.8456C1.266 22.3049 2.45345 22.5413 3.65267 22.5413V6.54131C4.55653 6.54131 5.45152 6.71951 6.28644 7.06569L0.158238 21.8456ZM3.65267 22.5413C4.8519 22.5413 6.03935 22.3049 7.1471 21.8456L1.01891 7.06569C1.85382 6.71951 2.74881 6.54131 3.65267 6.54131V22.5413ZM7.1471 21.8456C8.25485 21.3863 9.26121 20.7131 10.1086 19.8645L-1.21317 8.55884C-0.574493 7.91925 0.183999 7.41187 1.01891 7.06569L7.1471 21.8456ZM10.1115 19.8616C10.0685 19.9047 10.0182 19.94 9.96293 19.9659L3.18519 5.47233C1.54907 6.23745 0.0594939 7.28304 -1.2161 8.56177L10.1115 19.8616ZM2.78977 19.7674C4.87399 20.8865 7.25488 21.5141 9.75046 21.5141V5.51413C9.95093 5.51413 10.1642 5.56652 10.3583 5.67075L2.78977 19.7674ZM9.75046 21.5141C12.246 21.5141 14.6269 20.8865 16.7111 19.7674L9.14257 5.67075C9.3367 5.56652 9.54999 5.51413 9.75046 5.51413V21.5141ZM9.53057 19.9624C9.44696 19.9232 9.37624 19.861 9.3267 19.783L22.829 11.1989C21.248 8.71202 18.9913 6.72688 16.3231 5.47581L9.53057 19.9624ZM9.3267 19.783C9.27716 19.7051 9.25083 19.6147 9.25081 19.5223L25.2508 19.5185C25.2501 16.5716 24.4101 13.6858 22.829 11.1989L9.3267 19.783ZM9.25081 19.5204V20.6218H25.2508V19.5204H9.25081ZM9.25081 20.6298C9.24991 19.7264 9.42707 18.8317 9.77216 17.9968L24.5588 24.1087C25.0169 23.0005 25.252 21.8129 25.2508 20.6138L9.25081 20.6298ZM9.77216 17.9968C10.1172 17.1619 10.6235 16.4032 11.262 15.7641L22.5814 27.0721C23.4289 26.2238 24.1008 25.2168 24.5588 24.1087L9.77216 17.9968ZM11.262 15.7641C11.9005 15.1249 12.6587 14.6179 13.4932 14.272L19.6199 29.0525C20.7276 28.5934 21.7339 27.9204 22.5814 27.0721L11.262 15.7641ZM13.4932 14.272C14.3278 13.9261 15.2223 13.748 16.1258 13.748L16.1258 29.748C17.3249 29.748 18.5122 29.5117 19.6199 29.0525L13.4932 14.272ZM16.1258 13.748H3.37516V29.748H16.1258V13.748ZM3.37515 13.748C4.27858 13.748 5.17313 13.9261 6.00767 14.272L-0.118953 29.0525C0.988731 29.5117 2.17606 29.748 3.37516 29.748L3.37515 13.748ZM6.00767 14.272C6.84223 14.6179 7.60042 15.125 8.23891 15.7641L-3.08045 27.0721C-2.233 27.9204 -1.22665 28.5934 -0.118953 29.0525L6.00767 14.272ZM8.23891 15.7641C8.8774 16.4032 9.38366 17.1619 9.72875 17.9968L-5.05791 24.1087C-4.59987 25.2168 -3.92792 26.2238 -3.08045 27.0721L8.23891 15.7641ZM9.72875 17.9968C10.0738 18.8317 10.251 19.7264 10.2501 20.6298L-5.74989 20.6138C-5.75109 21.8129 -5.51595 23.0005 -5.05791 24.1087L9.72875 17.9968ZM10.2501 20.6218V19.5208H-5.74989V20.6218H10.2501ZM10.2501 19.5208C10.2501 19.5772 10.2399 19.6369 10.218 19.6958L-4.78024 14.1233C-5.41716 15.8375 -5.74989 17.6643 -5.74989 19.5208H10.2501ZM10.2145 19.7053C11.9879 14.9506 9.53979 9.70886 4.8418 7.96302L-0.731611 22.9609C-4.26704 21.6471 -6.11514 17.7022 -4.7767 14.1138L10.2145 19.7053ZM4.8418 7.96302C0.110981 6.20499 -5.1311 8.62257 -6.88746 13.3284L8.10251 18.9231C6.78117 22.4634 2.83666 24.2869 -0.731611 22.9609L4.8418 7.96302ZM-6.89655 13.3529C-7.62592 15.3267 -7.99952 17.4143 -8 19.5186L8 19.5222C8.00005 19.3094 8.03783 19.0983 8.1116 18.8986L-6.89655 13.3529ZM-8 19.5204V20.6215H8V19.5204H-8ZM-8 20.6215C-8 26.8989 -2.9139 32 3.37516 32V16C5.93654 16 8 18.0762 8 20.6215H-8ZM3.37516 32H16.1258V16H3.37516V32ZM16.1258 32C22.4154 32 27.5009 26.8983 27.5009 20.6211H11.5009C11.5009 18.0768 13.5638 16 16.1258 16V32ZM27.5009 20.6211V19.5204H11.5009V20.6211H27.5009ZM27.5009 19.52C27.5007 14.8143 25.6342 10.3007 22.3109 6.96912L10.9832 18.2688C11.3147 18.6012 11.5009 19.0514 11.5009 19.5208L27.5009 19.52ZM22.2933 6.95153C21.3082 5.9701 20.2121 5.1067 19.0274 4.37876L10.6515 18.0113C10.7782 18.0891 10.8954 18.1815 11.0008 18.2864L22.2933 6.95153ZM20.8651 16.4573C23.2141 13.7676 24.5061 10.3162 24.5008 6.74517L8.50078 6.76896C8.50033 6.46148 8.61157 6.16431 8.81383 5.93271L20.8651 16.4573ZM24.5008 6.75707C24.5008 -1.38402 17.899 -8 9.75046 -8V8C9.04974 8 8.50077 7.43981 8.50077 6.75707H24.5008ZM9.75046 -8C1.60189 -8 -4.99986 -1.38402 -4.99986 6.75707H11.0001C11.0001 7.43981 10.4512 8 9.75046 8V-8ZM-4.99985 6.74517C-5.00516 10.3162 -3.71314 13.7676 -1.36415 16.4573L10.6871 5.93271C10.8893 6.16431 11.0006 6.46148 11.0001 6.76896L-4.99985 6.74517ZM9.75046 10.2524C7.80872 10.2524 6.25067 8.6829 6.25067 6.75707H22.2507C22.2507 -0.141504 16.6574 -5.74764 9.75046 -5.74764V10.2524ZM6.25067 6.75707C6.25067 4.83123 7.80872 3.26178 9.75046 3.26178V19.2618C16.6574 19.2618 22.2507 13.6556 22.2507 6.75707H6.25067ZM9.75046 3.26178C11.6922 3.26178 13.2502 4.83123 13.2502 6.75707H-2.74975C-2.74975 13.6556 2.84349 19.2618 9.75046 19.2618V3.26178ZM13.2502 6.75707C13.2502 8.6829 11.6922 10.2524 9.75046 10.2524V-5.74764C2.84349 -5.74764 -2.74975 -0.141504 -2.74975 6.75707H13.2502Z" fill="white" mask="url(#path-1-inside-1_2604_1251)"/>
</svg>
