<svg width="23" height="25" viewBox="0 0 23 25" fill="none" xmlns="http://www.w3.org/2000/svg">
<path d="M4.55694 2.67967V9.68465H1V2.67967C1 1.75203 1.79627 1 2.77847 1C3.26957 1 3.71419 1.18801 4.03603 1.49197C4.35788 1.79593 4.55694 2.21585 4.55694 2.67967Z" stroke="white" stroke-width="1.3" stroke-miterlimit="10" stroke-linecap="round" stroke-linejoin="round"/>
<path d="M22.3213 2.67012V24L20.1007 22.8238L17.8802 24L15.6596 22.8238L13.439 24L11.2185 22.8238L8.99792 24L6.77736 22.8238L4.55679 24V2.67967C4.55679 2.21585 4.35772 1.79593 4.03588 1.49197C3.71404 1.18801 3.26942 1 2.77832 1H20.5529C21.5296 1 22.3213 1.74774 22.3213 2.67012Z" stroke="white" stroke-width="1.3" stroke-miterlimit="10" stroke-linecap="round" stroke-linejoin="round"/>
<path d="M15.1192 5.20678C15.1192 5.20678 14.0857 4.38632 12.867 4.73303C11.8179 5.03151 11.6148 6.12124 12.2606 6.66704C12.3335 6.72869 12.4185 6.77612 12.5082 6.81306C12.7537 6.91407 13.3887 7.17061 14.0766 7.41024C16.1976 8.14915 15.284 10.0871 13.5765 10.0871C12.7214 10.0871 12.0038 9.73348 11.5694 9.28078M13.4394 3.86328V4.59985M13.4394 10.1348V10.8714M10.626 13.7414H19.2902M10.626 16.6045H19.2902M10.626 19.4675H19.2902" stroke="white" stroke-width="1.3" stroke-miterlimit="10" stroke-linecap="round" stroke-linejoin="round"/>
</svg>
