<svg width="22" height="20" viewBox="0 0 22 20" fill="none" xmlns="http://www.w3.org/2000/svg">
<path d="M21.3125 12.375C20.933 12.375 20.625 12.683 20.625 13.0625V17.875H1.375V9.625H8.9375C9.317 9.625 9.625 9.317 9.625 8.9375C9.625 8.558 9.317 8.25 8.9375 8.25H1.375V5.5H8.9375C9.317 5.5 9.625 5.192 9.625 4.8125C9.625 4.433 9.317 4.125 8.9375 4.125H1.375C0.616 4.125 0 4.741 0 5.5V17.875C0 18.634 0.616 19.25 1.375 19.25H20.625C21.384 19.25 22 18.634 22 17.875V13.0625C22 12.683 21.692 12.375 21.3125 12.375Z" fill="white"/>
<path d="M6.1875 12.3747H3.4375C3.058 12.3747 2.75 12.6827 2.75 13.0622C2.75 13.4417 3.058 13.7497 3.4375 13.7497H6.1875C6.567 13.7497 6.875 13.4417 6.875 13.0622C6.875 12.6827 6.567 12.3747 6.1875 12.3747ZM21.5834 2.11716L16.7709 0.0546549C16.6849 0.01858 16.5926 0 16.4993 0C16.4061 0 16.3137 0.01858 16.2277 0.0546549L11.4152 2.11716C11.2919 2.17059 11.1868 2.25894 11.1131 2.37132C11.0393 2.48371 11 2.61522 11 2.74966V5.49966C11 9.28228 12.3984 11.4933 16.1576 13.6589C16.2635 13.7194 16.3818 13.7497 16.5 13.7497C16.6182 13.7497 16.7365 13.7194 16.8424 13.6589C20.6016 11.4988 22 9.28778 22 5.49966V2.74966C22 2.47466 21.8364 2.22578 21.5834 2.11716ZM20.625 5.49966C20.625 8.67453 19.5745 10.4222 16.5 12.2647C13.4255 10.418 12.375 8.67041 12.375 5.49966V3.20341L16.5 1.43515L20.625 3.20341V5.49966Z" fill="white"/>
<path d="M18.9928 4.27401C18.6971 4.04026 18.2654 4.08563 18.0261 4.38126L15.8646 7.08451L15.0094 5.80576C14.7963 5.48951 14.3686 5.40563 14.0565 5.61463C13.7416 5.82501 13.655 6.25263 13.8654 6.56751L15.2404 8.63001C15.3628 8.81288 15.5635 8.92563 15.7835 8.93663H15.8124C16.02 8.93663 16.218 8.84313 16.35 8.67813L19.1 5.24063C19.3365 4.94363 19.2898 4.51188 18.9928 4.27401Z" fill="white"/>
</svg>
