<svg width="20" height="24" viewBox="0 0 20 24" fill="none" xmlns="http://www.w3.org/2000/svg">
<path d="M7.82876 2.34781H8.27149L8.32508 1.90833C8.42459 1.09239 9.07541 0.5 9.8172 0.5C10.555 0.5 11.2008 1.0834 11.308 1.89203L11.3649 2.32099L11.7976 2.32628L13.2804 2.34443V4.78363H6.61183V2.34781H7.82876ZM8.54217 2.96219L8.56294 3.00758L8.59227 3.04796C8.76079 3.27998 9.01822 3.53194 9.32415 3.6718L9.35493 3.68587L9.38733 3.69566C9.64274 3.77288 9.92264 3.77966 10.1865 3.70687L10.2263 3.6959L10.2637 3.67856C10.6654 3.49247 10.9846 3.09179 11.1328 2.76983L11.1579 2.71521L11.1694 2.65619C11.1887 2.55687 11.2001 2.45259 11.2001 2.34003C11.2001 1.56972 10.6024 0.894645 9.80744 0.894645C9.00984 0.894645 8.41479 1.57045 8.41479 2.34003C8.41479 2.56081 8.45522 2.77219 8.54217 2.96219ZM1.32237 3.00411H3.99646V4.05506H3.12721C2.23969 4.05506 1.50993 4.78482 1.50993 5.67234V20.9919C1.50993 21.8789 2.23717 22.6092 3.12721 22.6092H16.7611C17.6506 22.6092 18.3784 21.8814 18.3784 20.9919V5.67234C18.3784 4.7823 17.6481 4.05506 16.7611 4.05506H15.8919V3.00411H18.566C19.017 3.00411 19.3883 3.37847 19.3883 3.82648V22.6776C19.3883 23.1262 19.0145 23.5 18.566 23.5H1.32237C0.873368 23.5 0.5 23.1276 0.5 22.6776V3.82648C0.5 3.37453 0.871414 3.00411 1.32237 3.00411ZM7.38146 18.23C7.26499 18.23 7.17046 18.1355 7.17046 18.019C7.17046 17.9026 7.26499 17.808 7.38146 17.808H12.5069C12.6233 17.808 12.7179 17.9026 12.7179 18.019C12.7179 18.1355 12.6233 18.23 12.5069 18.23H7.38146ZM5.86571 13.9367C5.74925 13.9367 5.65472 13.8422 5.65472 13.7257C5.65472 13.6093 5.74924 13.5147 5.86571 13.5147H14.0226C14.1391 13.5147 14.2336 13.6093 14.2336 13.7257C14.2336 13.8422 14.1391 13.9367 14.0226 13.9367H5.86571ZM4.53162 9.64536C4.41515 9.64536 4.32062 9.55083 4.32062 9.43436C4.32062 9.31789 4.41515 9.22337 4.53162 9.22337H15.3606C15.4771 9.22337 15.5716 9.31789 15.5716 9.43436C15.5716 9.55083 15.4771 9.64536 15.3606 9.64536H4.53162Z" fill="white" stroke="white"/>
</svg>
