<svg width="22" height="24" viewBox="0 0 22 24" fill="none" xmlns="http://www.w3.org/2000/svg">
<path d="M2.66667 24C1.91467 24 1.28222 23.7436 0.769333 23.2307C0.256445 22.7178 0 22.0853 0 21.3333V17.64H4V0H21.3333V21.3333C21.3333 22.0853 21.0769 22.7178 20.564 23.2307C20.0511 23.7436 19.4187 24 18.6667 24H2.66667ZM18.6667 22.6667C19.0444 22.6667 19.3613 22.5387 19.6173 22.2827C19.8733 22.0267 20.0009 21.7102 20 21.3333V1.33333H5.33333V17.64H17.3333V21.3333C17.3333 21.7111 17.4613 22.028 17.7173 22.284C17.9733 22.54 18.2898 22.6676 18.6667 22.6667ZM7.18 7.18V5.84667H18.1533V7.18H7.18ZM7.18 10.872V9.53867H18.1533V10.872H7.18ZM2.66667 22.6667H16V18.9733H1.33333V21.3333C1.33333 21.7111 1.46133 22.028 1.71733 22.284C1.97333 22.54 2.28978 22.6676 2.66667 22.6667ZM2.66667 22.6667H1.33333H16H2.66667Z" fill="white"/>
</svg>
