<svg width="36" height="29" viewBox="0 0 36 29" fill="none" xmlns="http://www.w3.org/2000/svg">
<path d="M33.6656 24.4617H2.33438C1.04766 24.4617 0 23.4141 0 22.1273V2.33438C0 1.04766 1.04766 0 2.33438 0H33.6586C34.9523 0 36 1.04766 36 2.33438V22.1203C36 23.4141 34.9523 24.4617 33.6656 24.4617Z" fill="url(#paint0_linear_1870_937)"/>
<path d="M0 3.54395H36V8.44473H0V3.54395Z" fill="url(#paint1_linear_1870_937)"/>
<path d="M36 21.0725V22.1271C36 23.4209 34.9523 24.4615 33.6656 24.4615H2.33438C1.04766 24.4615 0 23.4139 0 22.1201V21.0654H36V21.0725Z" fill="url(#paint2_linear_1870_937)"/>
<path d="M33.3633 24.4617H33.6656C34.9594 24.4617 36 23.4141 36 22.1273V2.33438C36 1.04766 34.9523 0 33.6656 0H33.3633V24.4617Z" fill="url(#paint3_linear_1870_937)"/>
<path d="M36 3.38906V2.33438C36 1.04766 34.9523 0 33.6656 0H2.33438C1.04766 0 0 1.04766 0 2.33438V3.38906H36Z" fill="url(#paint4_linear_1870_937)"/>
<path d="M2.63672 0H2.33438C1.04766 0 0 1.04766 0 2.33438V22.1203C0 23.4141 1.04766 24.4547 2.33438 24.4547H2.63672V0Z" fill="url(#paint5_linear_1870_937)"/>
<path d="M19.9617 16.7061H3.22734C2.93203 16.7061 2.68594 16.467 2.68594 16.1646V13.0287C2.68594 12.7334 2.925 12.4873 3.22734 12.4873H19.9617C20.257 12.4873 20.5031 12.7264 20.5031 13.0287V16.1646C20.5031 16.467 20.2641 16.7061 19.9617 16.7061Z" fill="url(#paint6_linear_1870_937)"/>
<path d="M9.88594 20.3838H2.89688C2.77734 20.3838 2.68594 20.2924 2.68594 20.1729C2.68594 20.0533 2.77734 19.9619 2.89688 19.9619H9.87891C9.99844 19.9619 10.0898 20.0533 10.0898 20.1729C10.0898 20.2924 9.99844 20.3838 9.88594 20.3838Z" fill="url(#paint7_linear_1870_937)"/>
<path d="M28.7508 18.2109C28.4484 18.7523 28.5469 19.4344 28.9898 19.8703L30.2203 21.1008L28.8281 22.4859L27.5977 21.2555C27.1617 20.8195 26.4867 20.7211 25.9383 21.0164C26.5078 20.693 27.0492 20.2922 27.5344 19.807C28.0266 19.3219 28.4273 18.7805 28.7508 18.2109Z" fill="url(#paint8_linear_1870_937)"/>
<path d="M22.3734 7.33398C18.3375 7.33398 15.068 10.6035 15.068 14.6395C15.068 18.6754 18.3375 21.9449 22.3734 21.9449C26.4094 21.9449 29.6789 18.6754 29.6789 14.6395C29.6789 10.6035 26.4094 7.33398 22.3734 7.33398ZM22.3734 20.4895C19.1391 20.4895 16.5234 17.8668 16.5234 14.6395C16.5234 11.4051 19.1461 8.78945 22.3734 8.78945C25.6078 8.78945 28.2234 11.4121 28.2234 14.6395C28.2234 17.8738 25.6078 20.4895 22.3734 20.4895Z" fill="url(#paint9_linear_1870_937)"/>
<path d="M22.3734 7.33398C18.3375 7.33398 15.068 10.6035 15.068 14.6395C15.068 18.6754 18.3375 21.9449 22.3734 21.9449C26.4094 21.9449 29.6789 18.6754 29.6789 14.6395C29.6789 10.6035 26.4094 7.33398 22.3734 7.33398ZM22.3734 20.4895C19.1391 20.4895 16.5234 17.8668 16.5234 14.6395C16.5234 11.4051 19.1461 8.78945 22.3734 8.78945C25.6078 8.78945 28.2234 11.4121 28.2234 14.6395C28.2234 17.8738 25.6078 20.4895 22.3734 20.4895Z" fill="url(#paint10_radial_1870_937)"/>
<path d="M22.3734 7.33398C18.3375 7.33398 15.068 10.6035 15.068 14.6395C15.068 18.6754 18.3375 21.9449 22.3734 21.9449C26.4094 21.9449 29.6789 18.6754 29.6789 14.6395C29.6789 10.6035 26.4094 7.33398 22.3734 7.33398ZM22.3734 20.4895C19.1391 20.4895 16.5234 17.8668 16.5234 14.6395C16.5234 11.4051 19.1461 8.78945 22.3734 8.78945C25.6078 8.78945 28.2234 11.4121 28.2234 14.6395C28.2234 17.8738 25.6078 20.4895 22.3734 20.4895Z" fill="url(#paint11_radial_1870_937)"/>
<path d="M35.3672 24.5604L31.8375 21.0307C31.4086 20.6018 30.7125 20.6018 30.2836 21.0307L28.7648 22.5494C28.3359 22.9783 28.3359 23.6744 28.7648 24.1033L32.2945 27.633C33.1453 28.4838 34.5164 28.4838 35.3672 27.633C36.2109 26.7822 36.2109 25.4111 35.3672 24.5604Z" fill="url(#paint12_linear_1870_937)"/>
<path d="M22.3734 8.78906C19.1391 8.78906 16.5234 11.4117 16.5234 14.6391C16.5234 17.8734 19.1461 20.4891 22.3734 20.4891C25.6078 20.4891 28.2234 17.8664 28.2234 14.6391C28.2234 11.4047 25.6078 8.78906 22.3734 8.78906Z" fill="url(#paint13_linear_1870_937)"/>
<path d="M28.2234 14.6391C28.2234 15.8133 27.8789 16.9031 27.2883 17.8172H17.4586C16.868 16.9031 16.5234 15.8133 16.5234 14.6391C16.5234 13.4648 16.868 12.375 17.4586 11.4609H27.2883C27.8789 12.375 28.2234 13.4648 28.2234 14.6391Z" fill="url(#paint14_linear_1870_937)"/>
<path d="M19.6945 16.4459H19.6383C19.0828 16.4459 18.6258 15.9889 18.6258 15.4334V13.8514C18.6258 13.2959 19.0828 12.8389 19.6383 12.8389H19.6945C20.25 12.8389 20.707 13.2959 20.707 13.8514V15.4334C20.707 15.9889 20.257 16.4459 19.6945 16.4459ZM19.6383 13.5068C19.4484 13.5068 19.2937 13.6615 19.2937 13.8514V15.4334C19.2937 15.6232 19.4484 15.7779 19.6383 15.7779H19.6945C19.8844 15.7779 20.0391 15.6232 20.0391 15.4334V13.8514C20.0391 13.6615 19.8844 13.5068 19.6945 13.5068H19.6383ZM22.4016 16.4459H22.3453C21.7898 16.4459 21.3328 15.9889 21.3328 15.4334V13.8514C21.3328 13.2959 21.7898 12.8389 22.3453 12.8389H22.4016C22.957 12.8389 23.4141 13.2959 23.4141 13.8514V15.4334C23.4141 15.9889 22.9641 16.4459 22.4016 16.4459ZM22.3453 13.5068C22.1555 13.5068 22.0008 13.6615 22.0008 13.8514V15.4334C22.0008 15.6232 22.1555 15.7779 22.3453 15.7779H22.4016C22.5914 15.7779 22.7461 15.6232 22.7461 15.4334V13.8514C22.7461 13.6615 22.5914 13.5068 22.4016 13.5068H22.3453ZM25.1086 16.4459H25.0523C24.4969 16.4459 24.0398 15.9889 24.0398 15.4334V13.8514C24.0398 13.2959 24.4969 12.8389 25.0523 12.8389H25.1086C25.6641 12.8389 26.1211 13.2959 26.1211 13.8514V15.4334C26.1211 15.9889 25.6711 16.4459 25.1086 16.4459ZM25.0523 13.5068C24.8625 13.5068 24.7078 13.6615 24.7078 13.8514V15.4334C24.7078 15.6232 24.8625 15.7779 25.0523 15.7779H25.1086C25.2984 15.7779 25.4531 15.6232 25.4531 15.4334V13.8514C25.4531 13.6615 25.2984 13.5068 25.1086 13.5068H25.0523Z" fill="url(#paint15_linear_1870_937)"/>
<defs>
<linearGradient id="paint0_linear_1870_937" x1="-0.1305" y1="0.752414" x2="35.4866" y2="23.3003" gradientUnits="userSpaceOnUse">
<stop stop-color="#7B7DA1"/>
<stop offset="0.31" stop-color="#6D6F93"/>
<stop offset="0.899" stop-color="#494C6D"/>
<stop offset="1" stop-color="#424566"/>
</linearGradient>
<linearGradient id="paint1_linear_1870_937" x1="-0.0859922" y1="3.55913" x2="35.9208" y2="8.41034" gradientUnits="userSpaceOnUse">
<stop stop-color="#616382"/>
<stop offset="0.31" stop-color="#545674"/>
<stop offset="0.899" stop-color="#33354E"/>
<stop offset="1" stop-color="#2D2F47"/>
</linearGradient>
<linearGradient id="paint2_linear_1870_937" x1="18" y1="24.6265" x2="18" y2="22.3044" gradientUnits="userSpaceOnUse">
<stop stop-color="#32365C"/>
<stop offset="1" stop-color="#32365C" stop-opacity="0"/>
</linearGradient>
<linearGradient id="paint3_linear_1870_937" x1="36.0331" y1="12.2303" x2="33.7946" y2="12.2303" gradientUnits="userSpaceOnUse">
<stop stop-color="#32365C"/>
<stop offset="1" stop-color="#32365C" stop-opacity="0"/>
</linearGradient>
<linearGradient id="paint4_linear_1870_937" x1="18" y1="-0.16643" x2="18" y2="2.15571" gradientUnits="userSpaceOnUse">
<stop stop-color="#A1A4C7"/>
<stop offset="1" stop-color="#A1A4C7" stop-opacity="0"/>
</linearGradient>
<linearGradient id="paint5_linear_1870_937" x1="-0.0331875" y1="12.2302" x2="1.92762" y2="12.2302" gradientUnits="userSpaceOnUse">
<stop stop-color="#A1A4C7"/>
<stop offset="1" stop-color="#A1A4C7" stop-opacity="0"/>
</linearGradient>
<linearGradient id="paint6_linear_1870_937" x1="2.59249" y1="13.3854" x2="20.5173" y2="15.8004" gradientUnits="userSpaceOnUse">
<stop stop-color="#E9EDFF"/>
<stop offset="1" stop-color="#C4CBFF"/>
</linearGradient>
<linearGradient id="paint7_linear_1870_937" x1="6.39084" y1="19.9339" x2="6.39084" y2="20.3738" gradientUnits="userSpaceOnUse">
<stop stop-color="#C4CBFF"/>
<stop offset="0.525" stop-color="#E9EDFF"/>
<stop offset="1" stop-color="#C4CBFF"/>
</linearGradient>
<linearGradient id="paint8_linear_1870_937" x1="27.2999" y1="19.5647" x2="30.2519" y2="22.5167" gradientUnits="userSpaceOnUse">
<stop stop-color="#7B7DA1"/>
<stop offset="0.31" stop-color="#6D6F93"/>
<stop offset="0.899" stop-color="#494C6D"/>
<stop offset="1" stop-color="#424566"/>
</linearGradient>
<linearGradient id="paint9_linear_1870_937" x1="16.3157" y1="8.58351" x2="28.1369" y2="20.4047" gradientUnits="userSpaceOnUse">
<stop stop-color="#A1DDFF"/>
<stop offset="1" stop-color="#1C83FF"/>
</linearGradient>
<radialGradient id="paint10_radial_1870_937" cx="0" cy="0" r="1" gradientUnits="userSpaceOnUse" gradientTransform="translate(22.0166 14.2563) scale(7.90671)">
<stop offset="0.819" stop-color="#1977E8" stop-opacity="0"/>
<stop offset="1" stop-color="#1977E8"/>
</radialGradient>
<radialGradient id="paint11_radial_1870_937" cx="0" cy="0" r="1" gradientUnits="userSpaceOnUse" gradientTransform="translate(22.7659 15.0056) scale(7.90671)">
<stop offset="0.819" stop-color="#ABE1FF" stop-opacity="0"/>
<stop offset="1" stop-color="#ABE1FF"/>
</radialGradient>
<linearGradient id="paint12_linear_1870_937" x1="28.6546" y1="20.922" x2="35.361" y2="27.6284" gradientUnits="userSpaceOnUse">
<stop stop-color="#A1DDFF"/>
<stop offset="1" stop-color="#1C83FF"/>
</linearGradient>
<linearGradient id="paint13_linear_1870_937" x1="17.8343" y1="10.1017" x2="27.0337" y2="19.3011" gradientUnits="userSpaceOnUse">
<stop stop-color="#B3B6E1"/>
<stop offset="0.737" stop-color="#7D80AD"/>
<stop offset="1" stop-color="#686C99"/>
</linearGradient>
<linearGradient id="paint14_linear_1870_937" x1="22.3725" y1="11.4889" x2="22.3725" y2="17.7609" gradientUnits="userSpaceOnUse">
<stop stop-color="#FCFDFF"/>
<stop offset="1" stop-color="#D7DCFF"/>
</linearGradient>
<linearGradient id="paint15_linear_1870_937" x1="18.1036" y1="10.3707" x2="26.4346" y2="18.7017" gradientUnits="userSpaceOnUse">
<stop stop-color="#B3B6E1"/>
<stop offset="0.737" stop-color="#7D80AD"/>
<stop offset="1" stop-color="#686C99"/>
</linearGradient>
</defs>
</svg>
