<svg width="13" height="13" viewBox="0 0 13 13" fill="none" xmlns="http://www.w3.org/2000/svg">
<path d="M1.39286 2.78644H0.464286C0.341149 2.78644 0.223057 2.73753 0.135986 2.65047C0.0489157 2.5634 0 2.44532 0 2.32219C0 2.19906 0.0489157 2.08098 0.135986 1.99392C0.223057 1.90685 0.341149 1.85794 0.464286 1.85794H4.17857V0.464252C4.17857 0.341125 4.22749 0.223041 4.31456 0.135976C4.40163 0.0489122 4.51972 0 4.64286 0H8.35714C8.48028 0 8.59837 0.0489122 8.68544 0.135976C8.77251 0.223041 8.82143 0.341125 8.82143 0.464252V1.85794H12.5357C12.6588 1.85794 12.7769 1.90685 12.864 1.99392C12.9511 2.08098 13 2.19906 13 2.32219C13 2.44532 12.9511 2.5634 12.864 2.65047C12.7769 2.73753 12.6588 2.78644 12.5357 2.78644H11.6071V12.5357C11.6071 12.6589 11.5582 12.777 11.4712 12.864C11.3841 12.9511 11.266 13 11.1429 13H1.85714C1.73401 13 1.61591 12.9511 1.52884 12.864C1.44177 12.777 1.39286 12.6589 1.39286 12.5357V2.78644ZM7.89286 1.85794V0.929434H5.10714V1.85794H7.89286ZM2.32143 12.0715H10.6786V2.78644H2.32143V12.0715ZM5.10714 10.2145C4.98401 10.2145 4.86591 10.1656 4.77884 10.0785C4.69177 9.99144 4.64286 9.87336 4.64286 9.75023V5.10771C4.64286 4.98458 4.69177 4.86649 4.77884 4.77943C4.86591 4.69237 4.98401 4.64345 5.10714 4.64345C5.23028 4.64345 5.34837 4.69237 5.43544 4.77943C5.52251 4.86649 5.57143 4.98458 5.57143 5.10771V9.75023C5.57143 9.87336 5.52251 9.99144 5.43544 10.0785C5.34837 10.1656 5.23028 10.2145 5.10714 10.2145ZM7.89286 10.2145C7.76972 10.2145 7.65163 10.1656 7.56456 10.0785C7.47749 9.99144 7.42857 9.87336 7.42857 9.75023V5.10771C7.42857 4.98458 7.47749 4.86649 7.56456 4.77943C7.65163 4.69237 7.76972 4.64345 7.89286 4.64345C8.01599 4.64345 8.13409 4.69237 8.22116 4.77943C8.30823 4.86649 8.35714 4.98458 8.35714 5.10771V9.75023C8.35714 9.87336 8.30823 9.99144 8.22116 10.0785C8.13409 10.1656 8.01599 10.2145 7.89286 10.2145Z" fill="white"/>
</svg>
