<svg width="24" height="24" viewBox="0 0 24 24" fill="none" xmlns="http://www.w3.org/2000/svg">
<path d="M12 0.0143452C5.39855 0.0143452 0.0143457 5.39855 0.0143457 12C0.0143457 18.6015 5.39855 23.9857 12 23.9857C18.6015 23.9857 23.9857 18.6015 23.9857 12C23.9857 5.39855 18.6015 0.0143452 12 0.0143452ZM12 22.6081C6.1327 22.6081 1.3919 17.8673 1.3919 12C1.3919 6.1327 6.1327 1.3919 12 1.3919C17.8673 1.3919 22.6081 6.1327 22.6081 12C22.6081 17.8673 17.8673 22.6081 12 22.6081ZM12 19.0638C15.5077 19.0638 18.3607 16.2108 18.3607 12.7031C18.3607 12.3366 18.0396 12.0143 17.625 12.0143C17.2579 12.0143 16.9362 12.336 16.9362 12.7031C16.9362 15.4298 14.7267 17.6393 12 17.6393C9.27333 17.6393 7.06378 15.4298 7.06378 12.7031C7.06378 12.336 6.74208 12.0143 6.375 12.0143C5.96044 12.0143 5.63935 12.3366 5.63935 12.7031C5.63935 16.2108 8.4923 19.0638 12 19.0638ZM7.78125 6.38935C6.9923 6.38935 6.38935 6.9923 6.38935 7.78125C6.38935 8.52364 6.99261 9.17315 7.78125 9.17315C8.52333 9.17315 9.17315 8.52333 9.17315 7.78125C9.17315 6.99261 8.52364 6.38935 7.78125 6.38935ZM16.2188 6.38935C15.4764 6.38935 14.8268 6.99261 14.8268 7.78125C14.8268 8.52333 15.4767 9.17315 16.2188 9.17315C17.0074 9.17315 17.6107 8.52364 17.6107 7.78125C17.6107 6.9923 17.0077 6.38935 16.2188 6.38935Z" fill="white" stroke="white" stroke-width="0.0286914"/>
</svg>
