<svg width="12" height="15" viewBox="0 0 12 15" fill="none" xmlns="http://www.w3.org/2000/svg">
<path d="M0 0.200196V14.2754L1.75018 12.2014L3.06998 13.7776L4.36109 12.2014L5.65221 13.7776L6.94332 12.2014L8.23443 13.7776L9.52555 12.2014L11.247 14.2754V0.200196H0ZM10.3863 11.8973L9.52555 10.8741L8.23443 12.4503L6.94332 10.8741L5.65221 12.4503L4.36109 10.8741L3.06998 12.4503L1.77887 10.8741L0.860742 11.9526V1.02978H10.3863V11.8973ZM7.77537 3.51851H2.58223V2.68893H7.77537V3.51851ZM6.05389 6.86448H2.58223V6.0349H6.05389V6.86448ZM8.63611 5.20532H2.58223V4.37574H8.63611V5.20532ZM2.61092 8.52364H8.63611V9.35322H2.61092V8.52364Z" fill="white"/>
</svg>
