<svg width="16" height="20" viewBox="0 0 16 20" fill="none" xmlns="http://www.w3.org/2000/svg">
<path d="M0 0V20L2.39686 17.053L4.20432 19.2927L5.9725 17.053L7.74067 19.2927L9.50884 17.053L11.277 19.2927L13.0452 17.053L15.4028 20V0H0ZM14.224 16.6208L13.0452 15.167L11.277 17.4067L9.50884 15.167L7.74067 17.4067L5.9725 15.167L4.20432 17.4067L2.43615 15.167L1.17878 16.6994V1.17878H14.224V16.6208ZM10.6483 4.71513H3.53635V3.53635H10.6483V4.71513ZM8.29077 9.46955H3.53635V8.29077H8.29077V9.46955ZM11.8271 7.11198H3.53635V5.9332H11.8271V7.11198ZM3.57564 11.8271H11.8271V13.0059H3.57564V11.8271Z" fill="#063164"/>
</svg>
