<svg width="12" height="15" viewBox="0 0 12 15" fill="none" xmlns="http://www.w3.org/2000/svg">
<path d="M0 -0.00041008V14.6035L1.75018 12.4517L3.06998 14.0871L4.36109 12.4517L5.65221 14.0871L6.94332 12.4517L8.23443 14.0871L9.52555 12.4517L11.247 14.6035V-0.00041008H0ZM10.3863 12.1361L9.52555 11.0745L8.23443 12.7099L6.94332 11.0745L5.65221 12.7099L4.36109 11.0745L3.06998 12.7099L1.77887 11.0745L0.860742 12.1934V0.860332H10.3863V12.1361ZM7.77537 3.44256H2.58223V2.58182H7.77537V3.44256ZM6.05389 6.91422H2.58223V6.05348H6.05389V6.91422ZM8.63611 5.19273H2.58223V4.33199H8.63611V5.19273ZM2.61092 8.6357H8.63611V9.49645H2.61092V8.6357Z" fill="#063164"/>
</svg>
