<svg width="19" height="24" viewBox="0 0 19 24" fill="none" xmlns="http://www.w3.org/2000/svg">
<path d="M0 0V24L2.87623 20.4637L5.04519 23.1513L7.16699 20.4637L9.2888 23.1513L11.4106 20.4637L13.5324 23.1513L15.6542 20.4637L18.4833 24V0H0ZM17.0688 19.945L15.6542 18.2004L13.5324 20.888L11.4106 18.2004L9.2888 20.888L7.16699 18.2004L5.04519 20.888L2.92338 18.2004L1.41454 20.0393V1.41454H17.0688V19.945ZM12.778 5.65815H4.24362V4.24361H12.778V5.65815ZM9.94892 11.3635H4.24362V9.94892H9.94892V11.3635ZM14.1925 8.53438H4.24362V7.11984H14.1925V8.53438ZM4.29077 14.1925H14.1925V15.6071H4.29077V14.1925Z" fill="white"/>
</svg>
