<svg width="26" height="26" viewBox="0 0 26 26" fill="none" xmlns="http://www.w3.org/2000/svg">
<path d="M1 9.41016V17.4102C1 21.1814 1 23.067 2.17157 24.2386C3.34315 25.4102 5.22876 25.4102 9 25.4102H17C20.7712 25.4102 22.6568 25.4102 23.8284 24.2386C25 23.067 25 21.1814 25 17.4102V9.41016C25 5.63892 25 3.7533 23.8284 2.58173C22.6568 1.41016 20.7712 1.41016 17 1.41016H9" stroke="white" stroke-linecap="round"/>
<path d="M8.167 17.2433H15.1836L15.517 17.5767H8.167V17.2433ZM6.80506 6.97903L15.8337 16.0075V16.2433H15.5979L6.56937 7.21473L6.80506 6.97903ZM17.167 8.57666V15.9266L16.8337 15.5933V8.57666H17.167Z" fill="#063164" stroke="white"/>
</svg>
