<svg width="15" height="16" viewBox="0 0 15 16" fill="none" xmlns="http://www.w3.org/2000/svg">
<path d="M13.3741 4.68932H11.462L8.41389 1.73335C8.81344 0.941426 8.23394 0 7.345 0C6.45326 0 5.87804 0.944074 6.27601 1.73345L3.228 4.68932H1.31588C0.590288 4.68932 0 5.27965 0 6.0052C0 6.15287 0 13.8098 0 13.9279C0 14.6534 0.590288 15.2437 1.31588 15.2437H13.3741C14.0997 15.2437 14.69 14.6534 14.69 13.9279C14.69 13.8099 14.69 6.15292 14.69 6.0052C14.69 5.27965 14.0997 4.68932 13.3741 4.68932ZM7.345 0.717752C7.60884 0.717752 7.8235 0.932416 7.8235 1.19625C7.8235 1.45515 7.61367 1.67476 7.345 1.67476C7.08208 1.67476 6.8665 1.46086 6.8665 1.19625C6.8665 0.932416 7.08116 0.717752 7.345 0.717752ZM6.7765 2.24789C7.14306 2.44591 7.56679 2.43522 7.9136 2.24799L10.431 4.68932H4.25897L6.7765 2.24789ZM13.9722 13.9279C13.9722 14.2577 13.7039 14.526 13.3741 14.526H1.31588C0.98607 14.526 0.717752 14.2577 0.717752 13.9279V7.89528H13.9722V13.9279ZM13.9722 7.17752H0.717752V6.0052C0.717752 5.67539 0.98607 5.40707 1.31588 5.40707H13.3741C13.7039 5.40707 13.9722 5.67539 13.9722 6.0052V7.17752Z" fill="#063164"/>
<path d="M2.89451 10.498C3.31734 10.498 3.66011 10.1552 3.66011 9.7324C3.66011 9.30957 3.31734 8.9668 2.89451 8.9668C2.47168 8.9668 2.12891 9.30957 2.12891 9.7324C2.12891 10.1552 2.47168 10.498 2.89451 10.498Z" fill="#063164"/>
<path d="M5.86131 10.498C6.28414 10.498 6.62691 10.1552 6.62691 9.7324C6.62691 9.30957 6.28414 8.9668 5.86131 8.9668C5.43847 8.9668 5.0957 9.30957 5.0957 9.7324C5.0957 10.1552 5.43847 10.498 5.86131 10.498Z" fill="#063164"/>
<path d="M8.8281 10.498C9.25093 10.498 9.59371 10.1552 9.59371 9.7324C9.59371 9.30957 9.25093 8.9668 8.8281 8.9668C8.40527 8.9668 8.0625 9.30957 8.0625 9.7324C8.0625 10.1552 8.40527 10.498 8.8281 10.498Z" fill="#063164"/>
<path d="M11.7949 10.498C12.2177 10.498 12.5605 10.1552 12.5605 9.7324C12.5605 9.30957 12.2177 8.9668 11.7949 8.9668C11.3721 8.9668 11.0293 9.30957 11.0293 9.7324C11.0293 10.1552 11.3721 10.498 11.7949 10.498Z" fill="#063164"/>
<path d="M2.89451 13.4541C3.31734 13.4541 3.66011 13.1113 3.66011 12.6885C3.66011 12.2656 3.31734 11.9229 2.89451 11.9229C2.47168 11.9229 2.12891 12.2656 2.12891 12.6885C2.12891 13.1113 2.47168 13.4541 2.89451 13.4541Z" fill="#063164"/>
<path d="M5.86131 13.4541C6.28414 13.4541 6.62691 13.1113 6.62691 12.6885C6.62691 12.2656 6.28414 11.9229 5.86131 11.9229C5.43847 11.9229 5.0957 12.2656 5.0957 12.6885C5.0957 13.1113 5.43847 13.4541 5.86131 13.4541Z" fill="#063164"/>
<path d="M8.8281 13.4541C9.25093 13.4541 9.59371 13.1113 9.59371 12.6885C9.59371 12.2656 9.25093 11.9229 8.8281 11.9229C8.40527 11.9229 8.0625 12.2656 8.0625 12.6885C8.0625 13.1113 8.40527 13.4541 8.8281 13.4541Z" fill="#063164"/>
<path d="M11.7949 13.4541C12.2177 13.4541 12.5605 13.1113 12.5605 12.6885C12.5605 12.2656 12.2177 11.9229 11.7949 11.9229C11.3721 11.9229 11.0293 12.2656 11.0293 12.6885C11.0293 13.1113 11.3721 13.4541 11.7949 13.4541Z" fill="#063164"/>
</svg>
