<svg width="16" height="17" viewBox="0 0 16 17" fill="none" xmlns="http://www.w3.org/2000/svg">
<path d="M10.6562 8.66602C11.0015 8.66602 11.2812 8.96328 11.2812 9.33008V11.3372C11.2812 11.5332 11.1997 11.7191 11.0585 11.8455L10.0571 12.7403C9.94465 12.841 9.80225 12.8962 9.65516 12.896C9.47703 12.896 9.30016 12.8156 9.1765 12.6595C8.95434 12.3787 8.98838 11.9599 9.25256 11.7238L10.0312 11.028V9.33008C10.0312 8.96328 10.311 8.66602 10.6562 8.66602ZM15.375 6.04297C15.0298 6.04297 14.75 6.34024 14.75 6.70703V7.72879C13.7483 6.44117 12.2504 5.67435 10.6422 5.67435C7.70337 5.67435 5.3125 8.21465 5.3125 11.3372C5.3125 14.4597 7.70969 17 10.6562 17C11.4614 17 12.2573 16.8073 12.978 16.4404C12.9902 16.4345 13.0024 16.4288 13.0144 16.4223C13.0177 16.4204 13.021 16.4179 13.0243 16.416C13.1084 16.372 13.1919 16.3263 13.2738 16.2776C13.5751 16.0986 13.6828 15.6939 13.5142 15.3738C13.3457 15.0537 12.965 14.9393 12.6637 15.1183C12.0542 15.4804 11.3601 15.6719 10.6562 15.6719C8.39894 15.6719 6.5625 13.7273 6.5625 11.3372C6.5625 8.94711 8.39256 7.00247 10.6422 7.00247C11.9239 7.00247 13.1143 7.63891 13.8796 8.69922H12.9062C12.561 8.69922 12.2812 8.99649 12.2812 9.36328C12.2812 9.73008 12.561 10.0273 12.9062 10.0273H14.125C15.1589 10.0273 16 9.13371 16 8.03516V6.70703C16 6.34024 15.7202 6.04297 15.375 6.04297ZM14.9284 13.5775C14.6425 13.3722 14.254 13.4522 14.0609 13.7564C13.8678 14.0605 13.9433 14.4732 14.2294 14.6784C14.3325 14.7525 14.4541 14.7921 14.5785 14.792C14.7794 14.792 14.9762 14.6894 15.0972 14.4991C15.2899 14.1954 15.2147 13.7827 14.9285 13.5775H14.9284ZM15.9784 11.5245C15.9743 11.5032 15.9693 11.4823 15.9635 11.4614C15.9516 11.4199 15.9359 11.3797 15.9166 11.3415C15.907 11.3224 15.8966 11.3038 15.8854 11.2857C15.874 11.2675 15.8618 11.2501 15.8488 11.2333C15.8359 11.2163 15.8219 11.2001 15.8075 11.1848C15.7932 11.1695 15.7778 11.1546 15.762 11.141C15.7463 11.1271 15.7294 11.1141 15.7125 11.1022C15.6957 11.0902 15.6778 11.0789 15.66 11.069C15.6241 11.0485 15.5863 11.0318 15.5472 11.0192C15.5276 11.0129 15.5078 11.0076 15.4878 11.0032C15.4678 10.9989 15.4472 10.9956 15.4269 10.9936C15.386 10.9892 15.3449 10.9892 15.3041 10.9936C15.2838 10.9956 15.2634 10.9989 15.2434 11.0032C15.2234 11.0075 15.2035 11.0128 15.1841 11.0192C15.1646 11.0254 15.1454 11.0327 15.1266 11.0411C15.1078 11.0494 15.0891 11.0586 15.0713 11.069C15.0531 11.0789 15.0357 11.0902 15.0188 11.1022C15.0016 11.1141 14.985 11.1271 14.9694 11.1409C14.9535 11.1546 14.9381 11.1695 14.9237 11.1848C14.909 11.2001 14.8953 11.2163 14.8822 11.2333C14.8694 11.2499 14.8572 11.2675 14.8459 11.2857C14.8347 11.3037 14.8241 11.3223 14.8147 11.3415C14.7858 11.3989 14.765 11.4606 14.7528 11.5245C14.7487 11.5457 14.7456 11.5676 14.7437 11.5889C14.7416 11.6108 14.7406 11.6327 14.7406 11.6543C14.7406 11.6758 14.7416 11.6978 14.7437 11.7197C14.7456 11.7409 14.7487 11.7628 14.7528 11.7841C14.757 11.805 14.762 11.8263 14.7678 11.8472C14.7857 11.9095 14.812 11.9687 14.8459 12.0229C14.8572 12.041 14.8694 12.0587 14.8822 12.0753C14.8953 12.0923 14.9091 12.1085 14.9237 12.1238C14.9381 12.1391 14.9535 12.154 14.9693 12.1676C14.985 12.1813 15.0016 12.1945 15.0188 12.2064C15.0357 12.2184 15.0531 12.2297 15.0713 12.2396C15.0891 12.25 15.1078 12.2592 15.1266 12.2675C15.1454 12.2758 15.1647 12.2832 15.1841 12.2894C15.2035 12.2958 15.2235 12.3011 15.2434 12.3054C15.2634 12.3097 15.2838 12.313 15.3041 12.315C15.3243 12.3173 15.3453 12.3184 15.3656 12.3184C15.386 12.3184 15.4066 12.3173 15.4269 12.315C15.4472 12.313 15.4679 12.3097 15.4878 12.3054C15.548 12.2926 15.606 12.2705 15.6601 12.2396C15.6779 12.2297 15.6957 12.2184 15.7125 12.2064C15.7294 12.1945 15.7463 12.1813 15.762 12.1677C15.7778 12.154 15.7932 12.1391 15.8075 12.1238C15.8219 12.1085 15.8359 12.0923 15.8488 12.0753C15.8616 12.0587 15.8742 12.041 15.8854 12.0229C15.8965 12.0048 15.9069 11.9862 15.9166 11.9671C15.9359 11.9289 15.9516 11.8887 15.9635 11.8472C15.9694 11.8263 15.9744 11.805 15.9784 11.7841C15.9825 11.7629 15.9856 11.741 15.9876 11.7197C15.9897 11.6978 15.9906 11.6758 15.9906 11.6543C15.9906 11.6327 15.9897 11.6108 15.9876 11.5889C15.9856 11.5677 15.9824 11.5458 15.9784 11.5245ZM5.125 15.6719H2.5C1.81078 15.6719 1.25 15.076 1.25 14.3438V3.98438C1.25 3.25208 1.81078 2.65625 2.5 2.65625H3.28125V3.32031C3.28125 3.68711 3.56103 3.98438 3.90625 3.98438C4.25147 3.98438 4.53125 3.68711 4.53125 3.32031V2.65625H7.34375V3.32031C7.34375 3.68711 7.62353 3.98438 7.96875 3.98438C8.31397 3.98438 8.59375 3.68711 8.59375 3.32031V2.65625H11.4375V3.32031C11.4375 3.68711 11.7173 3.98438 12.0625 3.98438C12.4077 3.98438 12.6875 3.68711 12.6875 3.32031V2.65625H13.5C14.1892 2.65625 14.75 3.25208 14.75 3.98438C14.75 4.35117 15.0298 4.64844 15.375 4.64844C15.7202 4.64844 16 4.35117 16 3.98438C16 2.51969 14.8785 1.32812 13.5 1.32812H12.6875V0.664062C12.6875 0.297268 12.4077 0 12.0625 0C11.7173 0 11.4375 0.297268 11.4375 0.664062V1.32812H8.59375V0.664062C8.59375 0.297268 8.31397 0 7.96875 0C7.62353 0 7.34375 0.297268 7.34375 0.664062V1.32812H4.53125V0.664062C4.53125 0.297268 4.25147 0 3.90625 0C3.56103 0 3.28125 0.297268 3.28125 0.664062V1.32812H2.5C1.12147 1.32812 0 2.51969 0 3.98438V14.3438C0 15.8084 1.12147 17 2.5 17H5.125C5.47022 17 5.75 16.7027 5.75 16.3359C5.75 15.9691 5.47022 15.6719 5.125 15.6719Z" fill="white"/>
</svg>
