<svg width="21" height="18" viewBox="0 0 21 18" fill="none" xmlns="http://www.w3.org/2000/svg">
<path d="M4.67303 4.4209H7.85832V5.75829H4.67303V4.4209ZM4.67303 7.46205H7.85832V8.79944H4.67303V7.46205ZM4.67303 10.5032H7.85832V11.8406H4.67303V10.5032ZM4.67303 13.5443H7.85832V14.8817H4.67303V13.5443Z" fill="white"/>
<path d="M11.1146 16.6626V5.73487L18.098 5.72672V13.0987H19.4347V5.05724C19.4347 4.69243 19.1299 4.38852 18.7655 4.38852L10.4454 4.39824C10.0767 4.39868 9.77792 4.69791 9.77792 5.06695V16.6626H2.75347V3.43011L9.77792 1.54042V3.05862H11.1146V0.668181C11.1146 0.235557 10.6908 -0.0900473 10.2727 0.0224081L1.91161 2.27165C1.7696 2.3099 1.64416 2.3939 1.55472 2.51064C1.46527 2.62738 1.41681 2.77035 1.41683 2.91742V16.6626H0V18H20.8515V16.6626H11.1146Z" fill="white"/>
<path d="M18.098 14.3021H19.4347V15.5479H18.098V14.3021ZM12.9932 7.46191H16.1785V8.79931H12.9932V7.46191ZM12.9932 10.503H16.1785V11.8404H12.9932V10.503ZM12.9932 13.5442H16.1785V14.8816H12.9932V13.5442Z" fill="white"/>
</svg>
