<svg width="20" height="20" viewBox="0 0 20 20" fill="none" xmlns="http://www.w3.org/2000/svg">
<g clip-path="url(#clip0_3709_1427)">
<path d="M18.3019 11.9756C18.1402 11.5756 17.6848 11.3823 17.2848 11.5441C16.8848 11.7058 16.6916 12.1612 16.8533 12.5612L17.7734 14.8372L15.0407 13.6326C14.9428 13.5894 14.8371 13.5668 14.7302 13.5662C14.6232 13.5656 14.5173 13.5869 14.4189 13.6289C13.485 14.0273 12.4845 14.2294 11.4453 14.2294C7.26277 14.2294 4.45313 10.9546 4.45313 7.89594C4.45313 4.40367 7.58981 1.5625 11.4453 1.5625C15.3008 1.5625 18.4375 4.40367 18.4375 7.89594C18.4375 8.1684 18.4121 8.49465 18.3679 8.79098C18.3043 9.21773 18.5986 9.61527 19.0254 9.67894C19.4521 9.74277 19.8497 9.44828 19.9133 9.02152C19.9692 8.64691 20 8.24715 20 7.89594C20 5.77367 19.1013 3.78234 17.4694 2.28879C15.8568 0.812851 13.7174 0 11.4453 0C9.1732 0 7.03383 0.812851 5.42121 2.28875C3.96293 3.62344 3.09074 5.35578 2.92156 7.22371C1.08731 8.4384 1.32224e-06 10.3848 1.32224e-06 12.4814C1.32224e-06 13.7911 0.412618 15.0338 1.19805 16.1032L0.0569544 18.9259C-0.00131127 19.07 -0.0152584 19.2283 0.0168975 19.3803C0.0490534 19.5324 0.12585 19.6715 0.237462 19.7796C0.349034 19.8879 0.49038 19.9604 0.643398 19.9878C0.796415 20.0152 0.954139 19.9964 1.09637 19.9336L4.38656 18.4832C5.21422 18.7913 6.0891 18.9473 6.99215 18.9473C7.01168 18.9473 7.03086 18.9458 7.05004 18.9444C8.35617 18.9345 9.62598 18.5909 10.7257 17.948C11.7108 17.3721 12.5211 16.5809 13.0892 15.6466C13.6431 15.5473 14.1865 15.3962 14.7121 15.1954L18.9036 17.043C19.0458 17.1057 19.2036 17.1245 19.3566 17.0971C19.5096 17.0697 19.6509 16.9972 19.7625 16.889C19.8741 16.7808 19.9509 16.6418 19.9831 16.4897C20.0153 16.3376 20.0013 16.1794 19.943 16.0353L18.3019 11.9756ZM6.99223 17.3828C6.98156 17.3828 6.97117 17.384 6.96059 17.3844C6.16285 17.3804 5.39504 17.2236 4.67797 16.9176C4.57961 16.8756 4.47367 16.8543 4.36672 16.8549C4.25978 16.8556 4.1541 16.8782 4.05625 16.9213L2.22668 17.7278L2.81688 16.2679C2.8704 16.1354 2.8866 15.9909 2.86372 15.8499C2.84084 15.7089 2.77976 15.5769 2.68711 15.4682C1.95137 14.6051 1.5625 13.5723 1.5625 12.4814C1.5625 11.233 2.0877 10.05 3.0066 9.15308C3.2927 10.7127 4.09992 12.2045 5.31762 13.3765C6.83289 14.8348 8.83719 15.6796 11.0014 15.7814C9.98535 16.7816 8.53129 17.3828 6.99223 17.3828Z" fill="white"/>
</g>
<defs>
<clipPath id="clip0_3709_1427">
<rect width="20" height="20" fill="white"/>
</clipPath>
</defs>
</svg>
