<svg width="18" height="18" viewBox="0 0 18 18" fill="none" xmlns="http://www.w3.org/2000/svg">
<mask id="path-1-inside-1_2553_1296" fill="white">
<path d="M10.4467 11.25H3.75V9.75H11.9475L10.4475 11.25H10.4467ZM3.75 14.25H7.5V14.1968L8.94675 12.75H3.75V14.25ZM18 3.75V7.5H1.5V16.5H7.5V18H0V3.75C0 2.5095 1.0095 1.5 2.25 1.5H4.5V0H6V1.5H12V0H13.5V1.5H15.75C16.9905 1.5 18 2.5095 18 3.75ZM16.5 3.75C16.5 3.33675 16.1632 3 15.75 3H2.25C1.83675 3 1.5 3.33675 1.5 3.75V6H16.5V3.75ZM17.3415 9.65925C17.766 10.0837 18 10.6493 18 11.25C18 11.8507 17.766 12.4162 17.3408 12.8415L12.1823 18H9V14.8177L14.1592 9.65925C15.009 8.80875 16.491 8.80875 17.3415 9.65925ZM16.5 11.25C16.5003 11.1515 16.481 11.0539 16.4433 10.9629C16.4055 10.8718 16.3501 10.7892 16.2803 10.7198C16.1376 10.5831 15.9476 10.5067 15.75 10.5067C15.5524 10.5067 15.3624 10.5831 15.2197 10.7198L10.5 15.4387V16.5H11.5612L16.2803 11.7802C16.3501 11.7108 16.4055 11.6282 16.4433 11.5371C16.481 11.4461 16.5003 11.3485 16.5 11.25Z"/>
</mask>
<path d="M10.4467 11.25H3.75V9.75H11.9475L10.4475 11.25H10.4467ZM3.75 14.25H7.5V14.1968L8.94675 12.75H3.75V14.25ZM18 3.75V7.5H1.5V16.5H7.5V18H0V3.75C0 2.5095 1.0095 1.5 2.25 1.5H4.5V0H6V1.5H12V0H13.5V1.5H15.75C16.9905 1.5 18 2.5095 18 3.75ZM16.5 3.75C16.5 3.33675 16.1632 3 15.75 3H2.25C1.83675 3 1.5 3.33675 1.5 3.75V6H16.5V3.75ZM17.3415 9.65925C17.766 10.0837 18 10.6493 18 11.25C18 11.8507 17.766 12.4162 17.3408 12.8415L12.1823 18H9V14.8177L14.1592 9.65925C15.009 8.80875 16.491 8.80875 17.3415 9.65925ZM16.5 11.25C16.5003 11.1515 16.481 11.0539 16.4433 10.9629C16.4055 10.8718 16.3501 10.7892 16.2803 10.7198C16.1376 10.5831 15.9476 10.5067 15.75 10.5067C15.5524 10.5067 15.3624 10.5831 15.2197 10.7198L10.5 15.4387V16.5H11.5612L16.2803 11.7802C16.3501 11.7108 16.4055 11.6282 16.4433 11.5371C16.481 11.4461 16.5003 11.3485 16.5 11.25Z" fill="white"/>
<path d="M3.75 11.25H-17.5833V32.5833H3.75V11.25ZM3.75 9.75V-11.5833H-17.5833V9.75H3.75ZM11.9475 9.75L27.0324 24.8349L63.4507 -11.5833L11.9475 -11.5833V9.75ZM10.4475 11.25V32.5833H19.2841L25.5324 26.3349L10.4475 11.25ZM3.75 14.25H-17.5833V35.5833H3.75V14.25ZM7.5 14.25V35.5833H28.8333V14.25H7.5ZM7.5 14.1968L-7.58495 -0.888191L-13.8333 5.3602V14.1968H7.5ZM8.94675 12.75L24.0317 27.8349L60.45 -8.58333L8.94675 -8.58333V12.75ZM3.75 12.75V-8.58333H-17.5833V12.75H3.75ZM18 7.5V28.8333H39.3333V7.5H18ZM1.5 7.5V-13.8333H-19.8333V7.5H1.5ZM1.5 16.5H-19.8333V37.8333H1.5V16.5ZM7.5 16.5H28.8333V-4.83333H7.5V16.5ZM7.5 18V39.3333H28.8333V18H7.5ZM0 18H-21.3333V39.3333H0V18ZM4.5 1.5V22.8333H25.8333V1.5H4.5ZM4.5 0V-21.3333H-16.8333V0H4.5ZM6 0H27.3333V-21.3333H6V0ZM6 1.5H-15.3333V22.8333H6V1.5ZM12 1.5V22.8333H33.3333V1.5H12ZM12 0V-21.3333H-9.33333V0H12ZM13.5 0H34.8333V-21.3333H13.5V0ZM13.5 1.5H-7.83333V22.8333H13.5V1.5ZM1.5 6H-19.8333V27.3333H1.5V6ZM16.5 6V27.3333H37.8333V6H16.5ZM12.1823 18V39.3333H21.0188L27.2672 33.0849L12.1823 18ZM9 18H-12.3333V39.3333H9V18ZM9 14.8177L-6.08385 -0.268291L-12.3333 5.98029V14.8177H9ZM14.1592 9.65925L29.2431 24.7453L29.2508 24.7375L14.1592 9.65925ZM16.5 11.25L-4.83326 11.1922L-4.83341 11.25L-4.83326 11.3078L16.5 11.25ZM16.2803 10.7198L31.3188 -4.41147L31.1798 -4.54963L31.0382 -4.68521L16.2803 10.7198ZM15.2197 10.7198L0.461758 -4.68521L0.297178 -4.52754L0.136004 -4.36639L15.2197 10.7198ZM10.5 15.4387L-4.58375 0.352605L-10.8333 6.6012V15.4387H10.5ZM10.5 16.5H-10.8333V37.8333H10.5V16.5ZM11.5612 16.5V37.8333H20.3988L26.6474 31.5837L11.5612 16.5ZM16.2803 11.7802L1.24173 -3.35097L1.21788 -3.32727L1.19411 -3.3035L16.2803 11.7802ZM10.4467 -10.0833H3.75V32.5833H10.4467V-10.0833ZM25.0833 11.25V9.75H-17.5833V11.25H25.0833ZM3.75 31.0833H11.9475V-11.5833H3.75V31.0833ZM-3.13744 -5.33495L-4.63744 -3.83495L25.5324 26.3349L27.0324 24.8349L-3.13744 -5.33495ZM10.4475 -10.0833H10.4467V32.5833H10.4475V-10.0833ZM3.75 35.5833H7.5V-7.08333H3.75V35.5833ZM28.8333 14.25V14.1968H-13.8333V14.25H28.8333ZM22.5849 29.2817L24.0317 27.8349L-6.1382 -2.33494L-7.58495 -0.888191L22.5849 29.2817ZM8.94675 -8.58333H3.75V34.0833H8.94675V-8.58333ZM-17.5833 12.75V14.25H25.0833V12.75H-17.5833ZM-3.33333 3.75V7.5H39.3333V3.75H-3.33333ZM18 -13.8333H1.5V28.8333H18V-13.8333ZM-19.8333 7.5V16.5H22.8333V7.5H-19.8333ZM1.5 37.8333H7.5V-4.83333H1.5V37.8333ZM-13.8333 16.5V18H28.8333V16.5H-13.8333ZM7.5 -3.33333H0V39.3333H7.5V-3.33333ZM21.3333 18V3.75H-21.3333V18H21.3333ZM21.3333 3.75C21.3333 14.2916 12.7916 22.8333 2.25 22.8333V-19.8333C-10.7726 -19.8333 -21.3333 -9.27258 -21.3333 3.75H21.3333ZM2.25 22.8333H4.5V-19.8333H2.25V22.8333ZM25.8333 1.5V0H-16.8333V1.5H25.8333ZM4.5 21.3333H6V-21.3333H4.5V21.3333ZM-15.3333 0V1.5H27.3333V0H-15.3333ZM6 22.8333H12V-19.8333H6V22.8333ZM33.3333 1.5V0H-9.33333V1.5H33.3333ZM12 21.3333H13.5V-21.3333H12V21.3333ZM-7.83333 0V1.5H34.8333V0H-7.83333ZM13.5 22.8333H15.75V-19.8333H13.5V22.8333ZM15.75 22.8333C5.20843 22.8333 -3.33333 14.2916 -3.33333 3.75H39.3333C39.3333 -9.27258 28.7726 -19.8333 15.75 -19.8333V22.8333ZM37.8333 3.75C37.8333 -8.44533 27.9453 -18.3333 15.75 -18.3333V24.3333C4.38117 24.3333 -4.83333 15.1188 -4.83333 3.75H37.8333ZM15.75 -18.3333H2.25V24.3333H15.75V-18.3333ZM2.25 -18.3333C-9.94533 -18.3333 -19.8333 -8.44533 -19.8333 3.75H22.8333C22.8333 15.1188 13.6188 24.3333 2.25 24.3333V-18.3333ZM-19.8333 3.75V6H22.8333V3.75H-19.8333ZM1.5 27.3333H16.5V-15.3333H1.5V27.3333ZM37.8333 6V3.75H-4.83333V6H37.8333ZM2.25655 24.7442C-1.3253 21.1623 -3.33333 16.2993 -3.33333 11.25H39.3333C39.3333 4.9992 36.8573 -0.994838 32.4264 -5.4257L2.25655 24.7442ZM-3.33333 11.25C-3.33333 6.19534 -1.32152 1.33388 2.25581 -2.24345L32.4257 27.9264C36.8535 23.4986 39.3333 17.5062 39.3333 11.25H-3.33333ZM2.25581 -2.24345L-2.9027 2.91505L27.2672 33.0849L32.4257 27.9264L2.25581 -2.24345ZM12.1823 -3.33333H9V39.3333H12.1823V-3.33333ZM30.3333 18V14.8177H-12.3333V18H30.3333ZM24.0838 29.9038L29.2431 24.7453L-0.924599 -5.42679L-6.08385 -0.268291L24.0838 29.9038ZM29.2508 24.7375C21.7642 32.2308 9.73356 32.2212 2.25655 24.7442L32.4264 -5.4257C23.2484 -14.6037 8.25378 -14.6133 -0.932348 -5.41904L29.2508 24.7375ZM37.8333 11.3078C37.8412 8.38699 37.2695 5.49365 36.1512 2.79535L-3.26468 19.1304C-4.30749 16.6141 -4.84063 13.916 -4.83326 11.1922L37.8333 11.3078ZM36.1512 2.79535C35.033 0.0970867 33.3905 -2.35249 31.3188 -4.41147L1.24173 25.851C-0.690184 23.9309 -2.22189 21.6466 -3.26468 19.1304L36.1512 2.79535ZM31.0382 -4.68521C26.9243 -8.62642 21.4472 -10.8266 15.75 -10.8266V31.8401C10.448 31.8401 5.35087 29.7925 1.52226 26.1247L31.0382 -4.68521ZM15.75 -10.8266C10.0528 -10.8266 4.57575 -8.62642 0.461758 -4.68521L29.9777 26.1247C26.1491 29.7925 21.052 31.8401 15.75 31.8401V-10.8266ZM0.136004 -4.36639L-4.58375 0.352605L25.5837 30.5249L30.3035 25.8059L0.136004 -4.36639ZM-10.8333 15.4387V16.5H31.8333V15.4387H-10.8333ZM10.5 37.8333H11.5612V-4.83333H10.5V37.8333ZM26.6474 31.5837L31.3664 26.864L1.19411 -3.3035L-3.52489 1.41625L26.6474 31.5837ZM31.3188 26.9115C33.3905 24.8525 35.033 22.4029 36.1512 19.7047L-3.26468 3.36964C-2.22189 0.853418 -0.690184 -1.4309 1.24173 -3.35097L31.3188 26.9115ZM36.1512 19.7047C37.2695 17.0064 37.8412 14.113 37.8333 11.1922L-4.83326 11.3078C-4.84063 8.58405 -4.30749 5.8859 -3.26468 3.36964L36.1512 19.7047Z" fill="white" mask="url(#path-1-inside-1_2553_1296)"/>
</svg>
