<svg width="15" height="18" viewBox="0 0 15 18" fill="none" xmlns="http://www.w3.org/2000/svg">
<mask id="path-1-inside-1_2553_1299" fill="white">
<path fill-rule="evenodd" clip-rule="evenodd" d="M3.4961 8.39627C3.00468 8.69776 2.55058 9.05623 2.14323 9.46422C2.06435 9.54241 2.00174 9.63544 1.95902 9.73796C1.91629 9.84047 1.8943 9.95043 1.8943 10.0615C1.8943 10.1725 1.91629 10.2825 1.95902 10.385C2.00174 10.4875 2.06435 10.5806 2.14323 10.6587C2.22149 10.7371 2.31444 10.7993 2.41675 10.8417C2.51907 10.8841 2.62874 10.906 2.7395 10.906C2.85026 10.906 2.95994 10.8841 3.06225 10.8417C3.16457 10.7993 3.25752 10.7371 3.33578 10.6587C3.79798 10.1954 4.33771 9.81655 4.93054 9.53932C5.63933 9.91987 6.45218 10.1356 7.31284 10.1356C8.17351 10.1356 8.98636 9.91987 9.69514 9.53932C10.6644 9.99377 11.4841 10.7149 12.0584 11.6182C12.6327 12.5216 12.9378 13.5698 12.9381 14.6403V15.4664C12.9382 15.5773 12.9165 15.6871 12.8741 15.7895C12.8318 15.892 12.7696 15.9851 12.6913 16.0636C12.6129 16.142 12.5198 16.2042 12.4174 16.2467C12.315 16.2892 12.2052 16.311 12.0943 16.311H2.53137C2.42049 16.311 2.3107 16.2892 2.20827 16.2467C2.10584 16.2042 2.01278 16.142 1.93442 16.0636C1.85606 15.9851 1.79392 15.892 1.75157 15.7895C1.70921 15.6871 1.68747 15.5773 1.68758 15.4664V14.6406C1.68758 13.9656 1.80852 13.3029 2.03916 12.6822C2.20229 12.2448 1.97728 11.7585 1.54132 11.5965C1.10536 11.4345 0.618779 11.6572 0.455646 12.0943C0.154468 12.9094 0.000198013 13.7714 0 14.6403V15.4661C0 16.8657 1.13349 18 2.53137 18H12.0943C13.4922 18 14.6257 16.8657 14.6257 15.4658V14.6403C14.6256 12.6996 13.8558 10.8382 12.4853 9.46422C12.0764 9.05683 11.6214 8.69844 11.1296 8.39627C11.9346 7.47447 12.3774 6.29164 12.3756 5.0678C12.3756 2.27092 10.1058 0 7.31284 0C4.5199 0 2.25011 2.27092 2.25011 5.0678C2.24829 6.29164 2.69107 7.47447 3.4961 8.39627ZM7.31284 1.68927C9.1748 1.68927 10.688 3.20302 10.688 5.0678C10.688 6.93257 9.1748 8.44633 7.31284 8.44633C5.45088 8.44633 3.93768 6.93257 3.93768 5.0678C3.93768 3.20302 5.45088 1.68927 7.31284 1.68927Z"/>
</mask>
<path fill-rule="evenodd" clip-rule="evenodd" d="M3.4961 8.39627C3.00468 8.69776 2.55058 9.05623 2.14323 9.46422C2.06435 9.54241 2.00174 9.63544 1.95902 9.73796C1.91629 9.84047 1.8943 9.95043 1.8943 10.0615C1.8943 10.1725 1.91629 10.2825 1.95902 10.385C2.00174 10.4875 2.06435 10.5806 2.14323 10.6587C2.22149 10.7371 2.31444 10.7993 2.41675 10.8417C2.51907 10.8841 2.62874 10.906 2.7395 10.906C2.85026 10.906 2.95994 10.8841 3.06225 10.8417C3.16457 10.7993 3.25752 10.7371 3.33578 10.6587C3.79798 10.1954 4.33771 9.81655 4.93054 9.53932C5.63933 9.91987 6.45218 10.1356 7.31284 10.1356C8.17351 10.1356 8.98636 9.91987 9.69514 9.53932C10.6644 9.99377 11.4841 10.7149 12.0584 11.6182C12.6327 12.5216 12.9378 13.5698 12.9381 14.6403V15.4664C12.9382 15.5773 12.9165 15.6871 12.8741 15.7895C12.8318 15.892 12.7696 15.9851 12.6913 16.0636C12.6129 16.142 12.5198 16.2042 12.4174 16.2467C12.315 16.2892 12.2052 16.311 12.0943 16.311H2.53137C2.42049 16.311 2.3107 16.2892 2.20827 16.2467C2.10584 16.2042 2.01278 16.142 1.93442 16.0636C1.85606 15.9851 1.79392 15.892 1.75157 15.7895C1.70921 15.6871 1.68747 15.5773 1.68758 15.4664V14.6406C1.68758 13.9656 1.80852 13.3029 2.03916 12.6822C2.20229 12.2448 1.97728 11.7585 1.54132 11.5965C1.10536 11.4345 0.618779 11.6572 0.455646 12.0943C0.154468 12.9094 0.000198013 13.7714 0 14.6403V15.4661C0 16.8657 1.13349 18 2.53137 18H12.0943C13.4922 18 14.6257 16.8657 14.6257 15.4658V14.6403C14.6256 12.6996 13.8558 10.8382 12.4853 9.46422C12.0764 9.05683 11.6214 8.69844 11.1296 8.39627C11.9346 7.47447 12.3774 6.29164 12.3756 5.0678C12.3756 2.27092 10.1058 0 7.31284 0C4.5199 0 2.25011 2.27092 2.25011 5.0678C2.24829 6.29164 2.69107 7.47447 3.4961 8.39627ZM7.31284 1.68927C9.1748 1.68927 10.688 3.20302 10.688 5.0678C10.688 6.93257 9.1748 8.44633 7.31284 8.44633C5.45088 8.44633 3.93768 6.93257 3.93768 5.0678C3.93768 3.20302 5.45088 1.68927 7.31284 1.68927Z" fill="white"/>
<path d="M3.4961 8.39627L7.67966 15.2152L15.749 10.2645L9.52172 3.13396L3.4961 8.39627ZM2.14323 9.46422L7.77522 15.1458L7.7899 15.1313L7.80451 15.1166L2.14323 9.46422ZM1.8943 10.0615L-6.1057 10.0615L1.8943 10.0615ZM2.14323 10.6587L7.80411 5.00592L7.7897 4.9915L7.77522 4.97714L2.14323 10.6587ZM2.7395 10.906L2.7395 2.90598L2.7395 10.906ZM3.33578 10.6587L8.99666 16.3116L8.99959 16.3086L3.33578 10.6587ZM4.93054 9.53932L8.71483 2.49098L5.17804 0.592055L1.54167 2.29256L4.93054 9.53932ZM9.69514 9.53932L13.0914 2.29603L9.45217 0.589629L5.91085 2.49098L9.69514 9.53932ZM12.9381 14.6403L20.9381 14.6403L20.9381 14.6384L12.9381 14.6403ZM12.9381 15.4664L4.9381 15.4664L4.93811 15.4744L12.9381 15.4664ZM12.6913 16.0636L18.3509 21.7176L12.6913 16.0636ZM12.0943 16.311L12.0943 8.31101H12.0943V16.311ZM2.53137 16.311L2.53137 8.31101L2.53136 8.31101L2.53137 16.311ZM1.93442 16.0636L-3.72526 21.7176L1.93442 16.0636ZM1.68758 15.4664L9.68758 15.4744V15.4664H1.68758ZM2.03916 12.6822L-5.45642 9.88638L-5.45996 9.8959L2.03916 12.6822ZM0.455646 12.0943L-7.03934 9.29696L-7.0439 9.30919L-7.04843 9.32144L0.455646 12.0943ZM0 14.6403L-8 14.6385V14.6403H0ZM14.6257 14.6403L22.6257 14.6403L22.6257 14.6399L14.6257 14.6403ZM12.4853 9.46422L18.1491 3.81438L18.1403 3.80557L18.1315 3.79678L12.4853 9.46422ZM11.1296 8.39627L5.10397 3.13396L-1.11928 10.2599L6.94168 15.2125L11.1296 8.39627ZM12.3756 5.0678L4.37557 5.0678L4.37559 5.07969L12.3756 5.0678ZM2.25011 5.0678L10.2501 5.07969V5.0678H2.25011ZM-0.687459 1.57734C-1.71565 2.20815 -2.66576 2.95817 -3.51806 3.81181L7.80451 15.1166C7.76692 15.1543 7.72501 15.1874 7.67966 15.2152L-0.687459 1.57734ZM-3.48877 3.78262C-4.31797 4.60458 -4.97613 5.58263 -5.42529 6.66029L9.34332 12.8156C8.97962 13.6883 8.44667 14.4802 7.77522 15.1458L-3.48877 3.78262ZM-5.42529 6.66029C-5.87445 7.73797 -6.1057 8.89394 -6.1057 10.0615H9.8943C9.8943 11.0069 9.70703 11.943 9.34332 12.8156L-5.42529 6.66029ZM-6.1057 10.0615C-6.1057 11.229 -5.87445 12.385 -5.42529 13.4627L9.34332 7.30735C9.70704 8.18001 9.8943 9.11607 9.8943 10.0615L-6.1057 10.0615ZM-5.42529 13.4627C-4.97612 14.5404 -4.31795 15.5184 -3.48877 16.3404L7.77522 4.97714C8.44665 5.64271 8.97961 6.43468 9.34332 7.30735L-5.42529 13.4627ZM-3.51766 16.3116C-2.69637 17.134 -1.721 17.7865 -0.647347 18.2317L5.48085 3.45178C6.34987 3.8121 7.13934 4.34022 7.80411 5.00592L-3.51766 16.3116ZM-0.647347 18.2317C0.426306 18.6768 1.5772 18.906 2.7395 18.906L2.7395 2.90598C3.68029 2.90598 4.61183 3.09146 5.48085 3.45178L-0.647347 18.2317ZM2.7395 18.906C3.90181 18.906 5.0527 18.6768 6.12635 18.2317L-0.00184485 3.45178C0.867178 3.09146 1.79872 2.90598 2.7395 2.90598L2.7395 18.906ZM6.12635 18.2317C7.2 17.7865 8.17537 17.134 8.99666 16.3116L-2.3251 5.00592C-1.66033 4.34021 -0.870858 3.8121 -0.00184485 3.45178L6.12635 18.2317ZM8.99959 16.3086C8.80246 16.5063 8.57226 16.6678 8.31941 16.7861L1.54167 2.29256C0.103163 2.96526 -1.2065 3.88457 -2.32803 5.00886L8.99959 16.3086ZM1.14625 16.5877C2.99422 17.5798 5.10415 18.1356 7.31284 18.1356V2.1356C7.8002 2.1356 8.28444 2.2599 8.71483 2.49098L1.14625 16.5877ZM7.31284 18.1356C9.52153 18.1356 11.6315 17.5798 13.4794 16.5877L5.91085 2.49098C6.34125 2.2599 6.82549 2.1356 7.31284 2.1356V18.1356ZM6.29886 16.7826C5.89217 16.5919 5.54821 16.2893 5.30723 15.9103L18.8096 7.32617C17.4199 5.1404 15.4365 3.39562 13.0914 2.29603L6.29886 16.7826ZM5.30723 15.9103C5.06625 15.5312 4.93821 15.0914 4.93811 14.6422L20.9381 14.6384C20.9375 12.0483 20.1992 9.51194 18.8096 7.32617L5.30723 15.9103ZM4.93811 14.6403V15.4664H20.9381V14.6403H4.93811ZM4.93811 15.4744C4.93717 14.534 5.12158 13.6027 5.48079 12.7336L20.2674 18.8455C20.7114 17.7715 20.9393 16.6205 20.9381 15.4584L4.93811 15.4744ZM5.48079 12.7336C5.83999 11.8646 6.36695 11.0748 7.03158 10.4095L18.3509 21.7176C19.1723 20.8954 19.8235 19.9194 20.2674 18.8455L5.48079 12.7336ZM7.03158 10.4095C7.6962 9.74427 8.48542 9.21651 9.3541 8.85643L15.4807 23.637C16.5543 23.192 17.5296 22.5398 18.3509 21.7176L7.03158 10.4095ZM9.3541 8.85643C10.2228 8.49636 11.1539 8.31101 12.0943 8.31101L12.0943 24.311C13.2565 24.311 14.4072 24.082 15.4807 23.637L9.3541 8.85643ZM12.0943 8.31101H2.53137V24.311H12.0943V8.31101ZM2.53136 8.31101C3.47175 8.31101 4.4029 8.49636 5.27158 8.85643L-0.855043 23.637C0.218498 24.082 1.36923 24.311 2.53137 24.311L2.53136 8.31101ZM5.27158 8.85643C6.14028 9.21651 6.92949 9.74428 7.5941 10.4095L-3.72526 21.7176C-2.90392 22.5398 -1.9286 23.192 -0.855043 23.637L5.27158 8.85643ZM7.5941 10.4095C8.25872 11.0748 8.78569 11.8646 9.1449 12.7336L-5.64176 18.8455C-5.19785 19.9195 -4.54661 20.8954 -3.72526 21.7176L7.5941 10.4095ZM9.1449 12.7336C9.50411 13.6027 9.68852 14.534 9.68758 15.4744L-6.31242 15.4584C-6.31358 16.6205 -6.08568 17.7715 -5.64176 18.8455L9.1449 12.7336ZM9.68758 15.4664V14.6406H-6.31242V15.4664H9.68758ZM9.68758 14.6406C9.68758 14.922 9.63705 15.2026 9.53827 15.4684L-5.45996 9.8959C-6.02 11.4032 -6.31242 13.0091 -6.31242 14.6406H9.68758ZM9.53473 15.4779C11.2538 10.869 8.8807 5.78936 4.32803 4.09753L-1.24538 19.0954C-4.92614 17.7276 -6.84923 13.6206 -5.45642 9.88638L9.53473 15.4779ZM4.32803 4.09753C-0.257473 2.3935 -5.33736 4.73682 -7.03934 9.29696L7.95063 14.8917C6.57491 18.5776 2.4682 20.4754 -1.24538 19.0954L4.32803 4.09753ZM-7.04843 9.32144C-7.67741 11.0236 -7.99959 12.8238 -8 14.6385L8 14.6421C7.99998 14.7189 7.98634 14.7951 7.95972 14.8672L-7.04843 9.32144ZM-8 14.6403V15.4661H8V14.6403H-8ZM-8 15.4661C-8 21.277 -3.29173 26 2.53137 26V10C5.55871 10 8 12.4543 8 15.4661H-8ZM2.53137 26H12.0943V10H2.53137V26ZM12.0943 26C17.918 26 22.6257 21.2764 22.6257 15.4658H6.62568C6.62568 12.4549 9.06639 10 12.0943 10V26ZM22.6257 15.4658V14.6403H6.62568V15.4658H22.6257ZM22.6257 14.6399C22.6255 10.581 21.0156 6.68796 18.1491 3.81438L6.82142 15.1141C6.69609 14.9884 6.62569 14.8182 6.62568 14.6407L22.6257 14.6399ZM18.1315 3.79678C17.2827 2.95115 16.3383 2.20722 15.3175 1.58001L6.94168 15.2125C6.90444 15.1897 6.86999 15.1625 6.83902 15.1317L18.1315 3.79678ZM17.1552 13.6586C19.2359 11.2761 20.3803 8.219 20.3756 5.05591L4.37559 5.07969C4.37452 4.36427 4.63337 3.67281 5.10397 3.13396L17.1552 13.6586ZM20.3756 5.0678C20.3756 -2.141 14.5304 -8 7.31284 -8V8C5.68115 8 4.37558 6.68283 4.37558 5.0678H20.3756ZM7.31284 -8C0.0952604 -8 -5.74989 -2.141 -5.74989 5.0678H10.2501C10.2501 6.68283 8.94454 8 7.31284 8V-8ZM-5.74989 5.05591C-5.75459 8.219 -4.61017 11.2761 -2.52952 13.6586L9.52172 3.13396C9.99232 3.67281 10.2512 4.36427 10.2501 5.07969L-5.74989 5.05591ZM7.31284 9.68927C4.75046 9.68927 2.688 7.61523 2.688 5.0678H18.688C18.688 -1.20918 13.5992 -6.31073 7.31284 -6.31073V9.68927ZM2.688 5.0678C2.688 2.52037 4.75045 0.446333 7.31284 0.446333V16.4463C13.5992 16.4463 18.688 11.3448 18.688 5.0678H2.688ZM7.31284 0.446333C9.87523 0.446333 11.9377 2.52037 11.9377 5.0678H-4.06232C-4.06232 11.3448 1.02653 16.4463 7.31284 16.4463V0.446333ZM11.9377 5.0678C11.9377 7.61523 9.87523 9.68927 7.31284 9.68927V-6.31073C1.02653 -6.31073 -4.06232 -1.20918 -4.06232 5.0678H11.9377Z" fill="white" mask="url(#path-1-inside-1_2553_1299)"/>
</svg>
