<svg width="20" height="20" viewBox="0 0 20 20" fill="none" xmlns="http://www.w3.org/2000/svg">
<path d="M9.58313 17.4996H3.74992C3.06077 17.4996 2.49995 16.9388 2.49995 16.2497C2.49995 15.5605 3.06077 14.9997 3.74992 14.9997H7.9165C8.24802 14.9997 8.56595 14.868 8.80037 14.6336C9.03478 14.3992 9.16648 14.0812 9.16648 13.7497C9.16648 13.4182 9.03478 13.1003 8.80037 12.8658C8.56595 12.6314 8.24802 12.4997 7.9165 12.4997H7.49984V2.49995H13.7497C14.8989 2.49995 15.833 3.43493 15.833 4.58324V12.9164C15.833 13.2479 15.9647 13.5658 16.1991 13.8003C16.4335 14.0347 16.7515 14.1664 17.083 14.1664C17.4145 14.1664 17.7324 14.0347 17.9668 13.8003C18.2013 13.5658 18.333 13.2479 18.333 12.9164V4.58324C18.333 2.05579 16.2763 0 13.7497 0H4.58324C3.36809 0.00132345 2.2031 0.484624 1.34386 1.34386C0.484624 2.2031 0.00132345 3.36809 0 4.58324L0.0258328 16.2497C0.0258328 18.333 1.76913 19.9996 3.74992 19.9996H9.58313C9.91465 19.9996 10.2326 19.8679 10.467 19.6335C10.7014 19.3991 10.8331 19.0811 10.8331 18.7496C10.8331 18.4181 10.7014 18.1002 10.467 17.8657C10.2326 17.6313 9.91465 17.4996 9.58313 17.4996ZM4.58324 2.49995H4.9999V12.4997H3.74992C3.3091 12.4997 2.89244 12.5897 2.49995 12.7297V4.58324C2.49995 3.43493 3.4341 2.49995 4.58324 2.49995ZM19.7204 18.8221L19.2854 19.3221C19.0662 19.5396 18.806 19.7114 18.5199 19.8277C18.2339 19.944 17.9276 20.0024 17.6188 19.9996C14.5239 19.9996 9.99979 15.7138 9.99979 12.3806C9.99979 11.7781 10.2173 11.1731 10.6773 10.7139L11.1773 10.279C11.3559 10.1004 11.5981 10.0002 11.8506 10.0002C12.1031 10.0002 12.3453 10.1004 12.5239 10.279L13.5306 11.3639C13.9022 11.7356 13.9022 12.3389 13.5306 12.7106L12.6764 13.5739C13.4272 15.4438 14.7005 16.6655 16.4263 17.3238L17.2896 16.4697C17.4682 16.2911 17.7104 16.1909 17.963 16.1909C18.2155 16.1909 18.4577 16.2911 18.6363 16.4697L19.7213 17.4763C20.0929 17.848 20.0929 18.4513 19.7213 18.8229L19.7204 18.8221Z" fill="white"/>
</svg>
