<svg width="18" height="18" viewBox="0 0 18 18" fill="none" xmlns="http://www.w3.org/2000/svg">
<path fill-rule="evenodd" clip-rule="evenodd" d="M7.74242 15.9179H1.42293C1.37853 15.9179 1.33595 15.9002 1.30456 15.8688C1.27317 15.8374 1.25553 15.7948 1.25553 15.7504V14.5365C1.25553 13.8407 1.75188 13.2279 2.51692 12.7072C3.88293 11.7745 6.0935 11.1868 8.57944 11.1868C8.98958 11.1868 9.39219 11.2035 9.78559 11.2345C9.86875 11.2429 9.95274 11.2346 10.0326 11.21C10.1126 11.1855 10.1868 11.1453 10.2509 11.0917C10.3151 11.0381 10.3679 10.9722 10.4062 10.898C10.4446 10.8237 10.4677 10.7425 10.4743 10.6592C10.4809 10.5758 10.4708 10.492 10.4445 10.4126C10.4183 10.3333 10.3765 10.2599 10.3215 10.1969C10.2666 10.134 10.1996 10.0826 10.1245 10.0458C10.0495 10.0091 9.9678 9.98766 9.88436 9.98288C9.45026 9.94807 9.01493 9.93075 8.57944 9.93098C5.79887 9.93098 3.33719 10.6267 1.8088 11.669C0.642831 12.4644 0 13.4749 0 14.5356V15.7504C0.000221906 16.1277 0.150236 16.4895 0.417063 16.7563C0.683891 17.023 1.04569 17.1728 1.42293 17.1728L7.74242 17.1737C7.90892 17.1737 8.06859 17.1075 8.18632 16.9898C8.30405 16.872 8.37019 16.7123 8.37019 16.5458C8.37019 16.3792 8.30405 16.2195 8.18632 16.1018C8.06859 15.984 7.90892 15.9179 7.74242 15.9179ZM8.57944 0C6.03825 0 3.97584 2.06288 3.97584 4.60465C3.97584 7.14642 6.03825 9.2093 8.57944 9.2093C11.1206 9.2093 13.183 7.14642 13.183 4.60465C13.183 2.06288 11.1206 0 8.57944 0ZM8.57944 1.25581C10.4276 1.25581 11.9275 2.75609 11.9275 4.60465C11.9275 6.45321 10.4276 7.95349 8.57944 7.95349C6.73131 7.95349 5.23137 6.45321 5.23137 4.60465C5.23137 2.75609 6.73131 1.25581 8.57944 1.25581ZM14.1473 15.8718C14.7133 15.9576 15.2918 15.897 15.8277 15.6956C16.3636 15.4942 16.839 15.1589 17.2085 14.7216C17.578 14.2842 17.8293 13.7595 17.9385 13.1974C18.0477 12.6354 18.011 12.0547 17.8321 11.5108C17.6532 10.9669 17.3379 10.4779 16.9164 10.0905C16.4948 9.70309 15.9811 9.43018 15.4241 9.29778C14.8672 9.16539 14.2856 9.17793 13.7349 9.33421C13.1842 9.49049 12.6827 9.7853 12.2782 10.1905C11.9071 10.5613 11.6284 11.0142 11.4645 11.5126C11.3007 12.011 11.2563 12.5409 11.3349 13.0596L9.39135 15.0028C9.33294 15.0611 9.28661 15.1304 9.25501 15.2067C9.22342 15.283 9.20717 15.3648 9.20721 15.4473V17.3721C9.20721 17.7187 9.48845 18 9.83497 18H11.7593C11.8418 18 11.9236 17.9838 11.9998 17.9522C12.0761 17.9206 12.1454 17.8742 12.2037 17.8158L14.1473 15.8718ZM14.1038 14.5825C13.9975 14.5542 13.8857 14.5543 13.7795 14.5828C13.6733 14.6113 13.5764 14.6672 13.4986 14.7449L11.4998 16.7442H10.4627V15.7069L12.4615 13.7076C12.5392 13.6298 12.5951 13.5329 12.6236 13.4267C12.6521 13.3205 12.6522 13.2086 12.6239 13.1023C12.5057 12.6571 12.5374 12.1854 12.714 11.7601C12.8907 11.3347 13.2025 10.9793 13.6013 10.749C14 10.5186 14.4635 10.4259 14.9202 10.4854C15.3768 10.5449 15.8012 10.7531 16.1277 11.078C16.4524 11.4045 16.6606 11.829 16.7201 12.2857C16.7795 12.7425 16.6869 13.2061 16.4566 13.605C16.2263 14.0038 15.871 14.3157 15.4457 14.4924C15.0205 14.6691 14.5488 14.7007 14.1038 14.5825Z" fill="white"/>
<path fill-rule="evenodd" clip-rule="evenodd" d="M14.005 13.2009C13.9175 13.1173 13.8476 13.017 13.7994 12.9059C13.7512 12.7948 13.7256 12.6752 13.7243 12.5542C13.723 12.4331 13.7458 12.313 13.7916 12.2009C13.8373 12.0888 13.905 11.9869 13.9907 11.9014C14.0763 11.8158 14.1782 11.7482 14.2903 11.7026C14.4025 11.657 14.5226 11.6343 14.6436 11.6358C14.7647 11.6373 14.8842 11.663 14.9952 11.7114C15.1062 11.7597 15.2063 11.8298 15.2899 11.9175C15.4535 12.0892 15.5434 12.3181 15.5405 12.5554C15.5376 12.7926 15.442 13.0192 15.2742 13.1868C15.1063 13.3545 14.8796 13.4498 14.6425 13.4524C14.4053 13.4551 14.1765 13.3648 14.005 13.2009Z" fill="white"/>
</svg>
