<svg width="18" height="18" viewBox="0 0 18 18" fill="none" xmlns="http://www.w3.org/2000/svg">
<path d="M5.0718 12.2732C4.9966 12.2393 4.91547 12.2206 4.83303 12.2181C4.75059 12.2156 4.66847 12.2293 4.59135 12.2586C4.51423 12.2878 4.44362 12.3319 4.38356 12.3885C4.3235 12.445 4.27515 12.5128 4.24129 12.588C4.20743 12.6633 4.18871 12.7444 4.1862 12.8269C4.1837 12.9093 4.19745 12.9915 4.22668 13.0686C4.25591 13.1457 4.30005 13.2164 4.35657 13.2764C4.41309 13.3365 4.48088 13.3849 4.55608 13.4187L6.2305 14.1724C6.3057 14.2063 6.38684 14.225 6.46927 14.2275C6.55171 14.23 6.63383 14.2163 6.71095 14.187C6.78807 14.1578 6.85868 14.1136 6.91874 14.0571C6.97881 14.0006 7.02715 13.9328 7.06101 13.8575C7.09488 13.7823 7.11359 13.7012 7.1161 13.6187C7.11861 13.5363 7.10485 13.4541 7.07562 13.377C7.04639 13.2998 7.00226 13.2292 6.94574 13.1691C6.88922 13.1091 6.82142 13.0607 6.74622 13.0268L5.0718 12.2732Z" fill="white"/>
<path fill-rule="evenodd" clip-rule="evenodd" d="M10.5003 0.331841C10.0303 0.113254 9.51829 0 9 0C8.48171 0 7.96968 0.113254 7.49972 0.331841L2.05786 2.86333C1.44321 3.14922 0.92299 3.60477 0.558424 4.17638C0.193858 4.74798 0.000116459 5.41186 0 6.08988V11.9643C7.21976e-05 12.6474 0.196667 13.316 0.566316 13.8904C0.935965 14.4647 1.46305 14.9206 2.08465 15.2034L7.52651 17.6805C7.98922 17.891 8.49166 18 9 18C9.50834 18 10.0108 17.891 10.4735 17.6805L15.9153 15.2034C16.5369 14.9206 17.064 14.4647 17.4337 13.8904C17.8033 13.316 17.9999 12.6474 18 11.9643V6.08988C17.9999 5.41186 17.8061 4.74798 17.4416 4.17638C17.077 3.60477 16.5568 3.14922 15.9421 2.86333L10.5003 0.331841ZM8.02967 1.47072C8.33376 1.32929 8.66506 1.25601 9.00042 1.25601C9.33577 1.25601 9.66708 1.32929 9.97116 1.47072L15.413 4.00221C15.804 4.18393 16.128 4.46781 16.3574 4.81283L13.8625 5.99525L6.27237 2.28803L8.02967 1.47072ZM4.80642 2.96969L2.58698 4.00305C2.20308 4.18106 1.87572 4.46155 1.64093 4.81366L9 8.29897L12.4108 6.68277L4.80642 2.96969ZM1.25581 6.02121L8.37209 9.39263V16.658C8.26041 16.6263 8.15126 16.5863 8.04558 16.5383L2.60372 14.0612C2.20151 13.8781 1.86047 13.5832 1.62131 13.2115C1.38216 12.8398 1.25498 12.4072 1.25498 11.9652V6.08988L1.25581 6.02121ZM9.62791 16.6572C9.73901 16.6257 9.8476 16.586 9.95274 16.5383L15.3946 14.0612C15.7968 13.8781 16.1379 13.5832 16.377 13.2115C16.6162 12.8398 16.7433 12.4072 16.7433 11.9652V6.08988L16.7425 6.02037L9.62707 9.39095L9.62791 16.6572Z" fill="white"/>
</svg>
