<svg width="74" height="82" viewBox="0 0 74 82" fill="none" xmlns="http://www.w3.org/2000/svg">
<path fill-rule="evenodd" clip-rule="evenodd" d="M54.847 4.24116C54.8474 3.62208 54.7235 3.01089 54.4847 2.45316C54.2458 1.89543 53.8982 1.40553 53.4676 1.02C53.037 0.634471 52.5347 0.363245 51.9979 0.226541C51.4612 0.0898373 50.904 0.0911822 50.3678 0.230476L6.49023 11.6249C5.68551 11.834 4.9674 12.3434 4.45284 13.0702C3.93828 13.7969 3.65759 14.6983 3.65647 15.6274V77.754H1.82823C1.34336 77.754 0.878338 77.9707 0.535478 78.3564C0.192617 78.7421 0 79.2653 0 79.8107C0 80.3562 0.192617 80.8794 0.535478 81.2651C0.878338 81.6508 1.34336 81.8675 1.82823 81.8675H21.9388V69.5269C21.9388 68.4359 22.324 67.3896 23.0098 66.6182C23.6955 65.8468 24.6255 65.4134 25.5953 65.4134H32.9082C33.878 65.4134 34.808 65.8468 35.4937 66.6182C36.1794 67.3896 36.5647 68.4359 36.5647 69.5269V81.8675H54.847V4.24116ZM16.4541 24.2781C15.9692 24.2781 15.5042 24.4948 15.1613 24.8806C14.8185 25.2663 14.6259 25.7894 14.6259 26.3349V30.4484C14.6259 30.9939 14.8185 31.5171 15.1613 31.9028C15.5042 32.2885 15.9692 32.5052 16.4541 32.5052H20.1106C20.5954 32.5052 21.0605 32.2885 21.4033 31.9028C21.7462 31.5171 21.9388 30.9939 21.9388 30.4484V26.3349C21.9388 25.7894 21.7462 25.2663 21.4033 24.8806C21.0605 24.4948 20.5954 24.2781 20.1106 24.2781H16.4541ZM14.6259 38.6755C14.6259 38.13 14.8185 37.6068 15.1613 37.2211C15.5042 36.8354 15.9692 36.6187 16.4541 36.6187H20.1106C20.5954 36.6187 21.0605 36.8354 21.4033 37.2211C21.7462 37.6068 21.9388 38.13 21.9388 38.6755V42.789C21.9388 43.3345 21.7462 43.8576 21.4033 44.2434C21.0605 44.6291 20.5954 44.8458 20.1106 44.8458H16.4541C15.9692 44.8458 15.5042 44.6291 15.1613 44.2434C14.8185 43.8576 14.6259 43.3345 14.6259 42.789V38.6755ZM16.4541 48.9593C15.9692 48.9593 15.5042 49.176 15.1613 49.5617C14.8185 49.9474 14.6259 50.4706 14.6259 51.0161V55.1296C14.6259 55.6751 14.8185 56.1982 15.1613 56.5839C15.5042 56.9697 15.9692 57.1863 16.4541 57.1863H20.1106C20.5954 57.1863 21.0605 56.9697 21.4033 56.5839C21.7462 56.1982 21.9388 55.6751 21.9388 55.1296V51.0161C21.9388 50.4706 21.7462 49.9474 21.4033 49.5617C21.0605 49.176 20.5954 48.9593 20.1106 48.9593H16.4541ZM25.5953 26.3349C25.5953 25.7894 25.7879 25.2663 26.1307 24.8806C26.4736 24.4948 26.9386 24.2781 27.4235 24.2781H31.08C31.5648 24.2781 32.0299 24.4948 32.3727 24.8806C32.7156 25.2663 32.9082 25.7894 32.9082 26.3349V30.4484C32.9082 30.9939 32.7156 31.5171 32.3727 31.9028C32.0299 32.2885 31.5648 32.5052 31.08 32.5052H27.4235C26.9386 32.5052 26.4736 32.2885 26.1307 31.9028C25.7879 31.5171 25.5953 30.9939 25.5953 30.4484V26.3349ZM27.4235 36.6187C26.9386 36.6187 26.4736 36.8354 26.1307 37.2211C25.7879 37.6068 25.5953 38.13 25.5953 38.6755V42.789C25.5953 43.3345 25.7879 43.8576 26.1307 44.2434C26.4736 44.6291 26.9386 44.8458 27.4235 44.8458H31.08C31.5648 44.8458 32.0299 44.6291 32.3727 44.2434C32.7156 43.8576 32.9082 43.3345 32.9082 42.789V38.6755C32.9082 38.13 32.7156 37.6068 32.3727 37.2211C32.0299 36.8354 31.5648 36.6187 31.08 36.6187H27.4235ZM25.5953 51.0161C25.5953 50.4706 25.7879 49.9474 26.1307 49.5617C26.4736 49.176 26.9386 48.9593 27.4235 48.9593H31.08C31.5648 48.9593 32.0299 49.176 32.3727 49.5617C32.7156 49.9474 32.9082 50.4706 32.9082 51.0161V55.1296C32.9082 55.6751 32.7156 56.1982 32.3727 56.5839C32.0299 56.9697 31.5648 57.1863 31.08 57.1863H27.4235C26.9386 57.1863 26.4736 56.9697 26.1307 56.5839C25.7879 56.1982 25.5953 55.6751 25.5953 55.1296V51.0161ZM38.3929 24.2781C37.908 24.2781 37.443 24.4948 37.1001 24.8806C36.7573 25.2663 36.5647 25.7894 36.5647 26.3349V30.4484C36.5647 30.9939 36.7573 31.5171 37.1001 31.9028C37.443 32.2885 37.908 32.5052 38.3929 32.5052H42.0494C42.5342 32.5052 42.9993 32.2885 43.3421 31.9028C43.685 31.5171 43.8776 30.9939 43.8776 30.4484V26.3349C43.8776 25.7894 43.685 25.2663 43.3421 24.8806C42.9993 24.4948 42.5342 24.2781 42.0494 24.2781H38.3929ZM36.5647 38.6755C36.5647 38.13 36.7573 37.6068 37.1001 37.2211C37.443 36.8354 37.908 36.6187 38.3929 36.6187H42.0494C42.5342 36.6187 42.9993 36.8354 43.3421 37.2211C43.685 37.6068 43.8776 38.13 43.8776 38.6755V42.789C43.8776 43.3345 43.685 43.8576 43.3421 44.2434C42.9993 44.6291 42.5342 44.8458 42.0494 44.8458H38.3929C37.908 44.8458 37.443 44.6291 37.1001 44.2434C36.7573 43.8576 36.5647 43.3345 36.5647 42.789V38.6755ZM38.3929 48.9593C37.908 48.9593 37.443 49.176 37.1001 49.5617C36.7573 49.9474 36.5647 50.4706 36.5647 51.0161V55.1296C36.5647 55.6751 36.7573 56.1982 37.1001 56.5839C37.443 56.9697 37.908 57.1863 38.3929 57.1863H42.0494C42.5342 57.1863 42.9993 56.9697 43.3421 56.5839C43.685 56.1982 43.8776 55.6751 43.8776 55.1296V51.0161C43.8776 50.4706 43.685 49.9474 43.3421 49.5617C42.9993 49.176 42.5342 48.9593 42.0494 48.9593H38.3929Z" fill="white"/>
<path d="M58.5034 14.7803V81.8678H71.3011C71.7859 81.8678 72.251 81.6511 72.5938 81.2654C72.9367 80.8796 73.1293 80.3565 73.1293 79.811C73.1293 79.2655 72.9367 78.7424 72.5938 78.3566C72.251 77.9709 71.7859 77.7542 71.3011 77.7542H69.4728V23.4927C69.4725 22.729 69.2831 21.9805 68.926 21.331C68.5689 20.6814 68.0581 20.1566 67.4508 19.8152L58.5034 14.7803ZM32.9081 81.8678H25.5952V69.5272H32.9081V81.8678Z" fill="white"/>
</svg>
