<svg width="16" height="20" viewBox="0 0 16 20" fill="none" xmlns="http://www.w3.org/2000/svg">
<path d="M13.8652 19.9999H1.57894C0.708418 19.9999 0 19.2917 0 18.421V1.57894C0 0.708207 0.708418 0 1.57894 0H9.73406C9.87343 0 10.0073 0.0555787 10.1061 0.153894L15.2896 5.33492C15.3386 5.38384 15.3774 5.44193 15.4039 5.50587C15.4304 5.56981 15.444 5.63834 15.4439 5.70755V18.421C15.4439 19.2917 14.7359 19.9999 13.8652 19.9999ZM1.57894 1.05263C1.4394 1.05279 1.30563 1.1083 1.20696 1.20696C1.1083 1.30563 1.05279 1.4394 1.05263 1.57894V18.421C1.05263 18.7113 1.28884 18.9473 1.57894 18.9473H13.8652C14.1553 18.9473 14.3915 18.7113 14.3915 18.421V5.92566L9.51574 1.05263H1.57894Z" fill="white"/>
<path d="M14.9186 6.23375H10.7873C9.91655 6.23375 9.20835 5.52555 9.20835 4.65481V0.526412C9.20833 0.422328 9.23917 0.320575 9.29697 0.234018C9.35478 0.147461 9.43695 0.0799869 9.5331 0.0401259C9.62925 0.000264944 9.73505 -0.0101927 9.83715 0.010075C9.93924 0.0303428 10.033 0.080426 10.1067 0.153992L15.2902 5.33502C15.364 5.40859 15.4142 5.5024 15.4346 5.60456C15.455 5.70672 15.4447 5.81263 15.4048 5.9089C15.365 6.00516 15.2975 6.08743 15.2109 6.1453C15.1242 6.20317 15.0224 6.23402 14.9182 6.23396L14.9186 6.23375ZM10.261 1.79651V4.65481C10.261 4.94534 10.497 5.18113 10.7873 5.18113H13.6473L10.261 1.79651ZM5.88499 5.01186H3.47574C3.33616 5.01186 3.20229 4.95641 3.10358 4.85771C3.00488 4.75901 2.94943 4.62514 2.94943 4.48555C2.94943 4.34596 3.00488 4.21209 3.10358 4.11339C3.20229 4.01469 3.33616 3.95924 3.47574 3.95924H5.88499C6.02458 3.95924 6.15845 4.01469 6.25715 4.11339C6.35586 4.21209 6.41131 4.34596 6.41131 4.48555C6.41131 4.62514 6.35586 4.75901 6.25715 4.85771C6.15845 4.95641 6.02458 5.01186 5.88499 5.01186ZM11.9702 9.78742H3.47553C3.33595 9.78742 3.20208 9.73197 3.10337 9.63327C3.00467 9.53456 2.94922 9.40069 2.94922 9.26111C2.94922 9.12152 3.00467 8.98765 3.10337 8.88895C3.20208 8.79024 3.33595 8.73479 3.47553 8.73479H11.9702C12.1098 8.73479 12.2437 8.79024 12.3424 8.88895C12.4411 8.98765 12.4965 9.12152 12.4965 9.26111C12.4965 9.40069 12.4411 9.53456 12.3424 9.63327C12.2437 9.73197 12.1098 9.78742 11.9702 9.78742ZM11.9702 13.1171H3.47553C3.33595 13.1171 3.20208 13.0616 3.10337 12.9629C3.00467 12.8642 2.94922 12.7304 2.94922 12.5908C2.94922 12.4512 3.00467 12.3173 3.10337 12.2186C3.20208 12.1199 3.33595 12.0645 3.47553 12.0645H11.9702C12.1098 12.0645 12.2437 12.1199 12.3424 12.2186C12.4411 12.3173 12.4965 12.4512 12.4965 12.5908C12.4965 12.7304 12.4411 12.8642 12.3424 12.9629C12.2437 13.0616 12.1098 13.1171 11.9702 13.1171ZM11.9702 16.4463H3.47553C3.33595 16.4463 3.20208 16.3909 3.10337 16.2922C3.00467 16.1935 2.94922 16.0596 2.94922 15.92C2.94922 15.7804 3.00467 15.6466 3.10337 15.5479C3.20208 15.4492 3.33595 15.3937 3.47553 15.3937H11.9702C12.1098 15.3937 12.2437 15.4492 12.3424 15.5479C12.4411 15.6466 12.4965 15.7804 12.4965 15.92C12.4965 16.0596 12.4411 16.1935 12.3424 16.2922C12.2437 16.3909 12.1098 16.4463 11.9702 16.4463Z" fill="white"/>
</svg>
